# 3ds Max Wavefront OBJ Exporter v0.97b - (c)2007 guruware
# File Created: 18.03.2019 12:33:18

mtllib run_effect.mtl

#
# object Plane001
#

v  -27.5678 -0.0000 70.0643
v  0.0000 -0.0000 70.0643
v  0.0000 29.1278 70.0642
v  -22.9326 22.9326 70.0643
v  -72.9849 72.9849 22.2195
v  -86.1720 86.1720 0.7047
v  -103.5896 -0.0000 0.7047
v  -87.7371 -0.0000 22.2195
v  72.9849 72.9849 22.2195
v  86.1720 86.1720 0.7047
v  0.0000 109.4515 0.7047
v  0.0000 92.7019 22.2195
v  72.9849 -72.9849 22.2195
v  86.1720 -86.1720 0.7047
v  103.5896 -0.0000 0.7047
v  87.7371 -0.0000 22.2195
v  -72.9849 -72.9849 22.2195
v  -86.1720 -86.1720 0.7047
v  0.0000 -109.4515 0.7047
v  0.0000 -92.7019 22.2195
v  -60.0132 60.0132 41.8188
v  -72.1434 -0.0000 41.8188
v  60.0132 60.0132 41.8188
v  0.0000 76.2259 41.8188
v  60.0132 -60.0132 41.8188
v  72.1434 -0.0000 41.8188
v  -60.0132 -60.0132 41.8188
v  0.0000 -76.2259 41.8188
v  -97.7044 101.7612 -27.2582
v  -117.4530 0.0000 -27.2582
v  97.7044 101.7612 -27.2582
v  0.0000 129.2522 -27.2582
v  97.7044 -101.7612 -27.2582
v  117.4530 0.0000 -27.2582
v  -97.7044 -101.7612 -27.2582
v  0.0000 -129.2522 -27.2582
v  22.9326 25.6791 70.0643
v  22.9326 -25.6791 70.0643
v  27.5678 -0.0000 70.0643
v  -22.9326 -22.9326 70.0643
v  0.0000 -29.1278 70.0643
# 41 vertices

vn -0.1749 -0.0000 0.9846
vn -0.0000 0.0000 1.0000
vn -0.0110 0.1669 0.9859
vn -0.1334 0.1201 0.9838
vn -0.3660 0.3373 0.8673
vn -0.4402 0.3650 0.8204
vn -0.6534 -0.0000 0.7570
vn -0.5563 -0.0000 0.8310
vn 0.3660 0.3373 0.8673
vn 0.4402 0.3650 0.8204
vn -0.0000 0.5692 0.8222
vn 0.0000 0.5358 0.8444
vn 0.3660 -0.3373 0.8673
vn 0.4402 -0.3650 0.8204
vn 0.6534 -0.0000 0.7570
vn 0.5563 -0.0000 0.8310
vn -0.3660 -0.3373 0.8673
vn -0.4402 -0.3650 0.8204
vn 0.0000 -0.5692 0.8222
vn -0.0000 -0.5358 0.8444
vn -0.3010 0.2758 0.9129
vn -0.4405 -0.0000 0.8977
vn 0.3037 0.2772 0.9115
vn -0.0017 0.4283 0.9036
vn 0.3037 -0.2772 0.9115
vn 0.4415 -0.0000 0.8973
vn -0.3010 -0.2758 0.9129
vn -0.0017 -0.4283 0.9036
vn -0.4243 0.4204 0.8020
vn -0.7147 -0.0000 0.6994
vn 0.4243 0.4204 0.8020
vn 0.0000 0.5882 0.8087
vn 0.4243 -0.4204 0.8020
vn 0.7147 -0.0000 0.6994
vn -0.4243 -0.4204 0.8020
vn -0.0000 -0.5882 0.8087
vn 0.1305 0.1296 0.9829
vn 0.1305 -0.1296 0.9829
vn 0.1729 -0.0000 0.9849
vn -0.1334 -0.1201 0.9838
vn -0.0110 -0.1669 0.9859
# 41 vertex normals

vt 0.3873 0.5000 0.0000
vt 0.5000 0.5000 0.0000
vt 0.5000 0.6127 0.0000
vt 0.3873 0.6127 0.0000
vt 0.1414 0.8586 0.0000
vt 0.0766 0.9234 0.0000
vt 0.0766 0.5000 0.0000
vt 0.1414 0.5000 0.0000
vt 0.8586 0.8586 0.0000
vt 0.9234 0.9234 0.0000
vt 0.5000 0.9234 0.0000
vt 0.5000 0.8586 0.0000
vt 0.8586 0.1414 0.0000
vt 0.9234 0.0766 0.0000
vt 0.9234 0.5000 0.0000
vt 0.8586 0.5000 0.0000
vt 0.1414 0.1414 0.0000
vt 0.0766 0.0766 0.0000
vt 0.5000 0.0766 0.0000
vt 0.5000 0.1414 0.0000
vt 0.2844 0.7156 0.0000
vt 0.2844 0.5000 0.0000
vt 0.7156 0.7156 0.0000
vt 0.5000 0.7156 0.0000
vt 0.7156 0.2844 0.0000
vt 0.7156 0.5000 0.0000
vt 0.2844 0.2844 0.0000
vt 0.5000 0.2844 0.0000
vt 0.0000 1.0000 0.0000
vt 0.0000 0.5000 0.0000
vt 1.0000 1.0000 0.0000
vt 0.5000 1.0000 0.0000
vt 1.0000 0.0000 0.0000
vt 1.0000 0.5000 0.0000
vt 0.0000 0.0000 0.0000
vt 0.5000 0.0000 0.0000
vt 0.6127 0.6127 0.0000
vt 0.6127 0.3873 0.0000
vt 0.6127 0.5000 0.0000
vt 0.3873 0.3873 0.0000
vt 0.5000 0.3873 0.0000
# 41 texture coords

o Plane001
g Plane001
usemtl Material__26
s 1
f 1/1/1 2/2/2 3/3/3 
f 3/3/3 4/4/4 1/1/1 
f 5/5/5 6/6/6 7/7/7 
f 7/7/7 8/8/8 5/5/5 
f 9/9/9 10/10/10 11/11/11 
f 11/11/11 12/12/12 9/9/9 
f 13/13/13 14/14/14 15/15/15 
f 15/15/15 16/16/16 13/13/13 
f 17/17/17 18/18/18 19/19/19 
f 19/19/19 20/20/20 17/17/17 
f 21/21/21 5/5/5 8/8/8 
f 8/8/8 22/22/22 21/21/21 
f 23/23/23 9/9/9 12/12/12 
f 12/12/12 24/24/24 23/23/23 
f 25/25/25 13/13/13 16/16/16 
f 16/16/16 26/26/26 25/25/25 
f 27/27/27 17/17/17 20/20/20 
f 20/20/20 28/28/28 27/27/27 
f 6/6/6 29/29/29 30/30/30 
f 30/30/30 7/7/7 6/6/6 
f 10/10/10 31/31/31 32/32/32 
f 32/32/32 11/11/11 10/10/10 
f 14/14/14 33/33/33 34/34/34 
f 34/34/34 15/15/15 14/14/14 
f 18/18/18 35/35/35 36/36/36 
f 36/36/36 19/19/19 18/18/18 
f 4/4/4 21/21/21 22/22/22 
f 22/22/22 1/1/1 4/4/4 
f 37/37/37 23/23/23 24/24/24 
f 24/24/24 3/3/3 37/37/37 
f 38/38/38 25/25/25 26/26/26 
f 26/26/26 39/39/39 38/38/38 
f 40/40/40 27/27/27 28/28/28 
f 28/28/28 41/41/41 40/40/40 
f 40/40/40 41/41/41 2/2/2 
f 2/2/2 1/1/1 40/40/40 
f 7/7/7 18/18/18 17/17/17 
f 17/17/17 8/8/8 7/7/7 
f 15/15/15 10/10/10 9/9/9 
f 9/9/9 16/16/16 15/15/15 
f 8/8/8 17/17/17 27/27/27 
f 27/27/27 22/22/22 8/8/8 
f 16/16/16 9/9/9 23/23/23 
f 23/23/23 26/26/26 16/16/16 
f 30/30/30 35/35/35 18/18/18 
f 18/18/18 7/7/7 30/30/30 
f 34/34/34 31/31/31 10/10/10 
f 10/10/10 15/15/15 34/34/34 
f 22/22/22 27/27/27 40/40/40 
f 40/40/40 1/1/1 22/22/22 
f 26/26/26 23/23/23 37/37/37 
f 37/37/37 39/39/39 26/26/26 
f 39/39/39 37/37/37 3/3/3 
f 3/3/3 2/2/2 39/39/39 
f 11/11/11 6/6/6 5/5/5 
f 5/5/5 12/12/12 11/11/11 
f 19/19/19 14/14/14 13/13/13 
f 13/13/13 20/20/20 19/19/19 
f 12/12/12 5/5/5 21/21/21 
f 21/21/21 24/24/24 12/12/12 
f 20/20/20 13/13/13 25/25/25 
f 25/25/25 28/28/28 20/20/20 
f 32/32/32 29/29/29 6/6/6 
f 6/6/6 11/11/11 32/32/32 
f 36/36/36 33/33/33 14/14/14 
f 14/14/14 19/19/19 36/36/36 
f 24/24/24 21/21/21 4/4/4 
f 4/4/4 3/3/3 24/24/24 
f 28/28/28 25/25/25 38/38/38 
f 38/38/38 41/41/41 28/28/28 
f 38/38/38 39/39/39 2/2/2 
f 2/2/2 41/41/41 38/38/38 
# 72 faces

