# 3ds Max Wavefront OBJ Exporter v0.97b - (c)2007 guruware
# File Created: 17.03.2019 15:07:03

mtllib Enemy_Attack18.mtl

#
# object Sphere001
#

v  0.0000 7.3419 -0.0000
v  -0.0000 5.9397 -4.3154
v  -2.5366 5.9397 -3.4913
v  -4.1042 5.9397 -1.3335
v  -4.1042 5.9397 1.3335
v  -2.5366 5.9397 3.4913
v  0.0000 5.9397 4.3154
v  2.5366 5.9397 3.4913
v  4.1042 5.9397 1.3335
v  4.1042 5.9397 -1.3335
v  2.5366 5.9397 -3.4913
v  -0.0000 2.2688 -6.9825
v  -4.1042 2.2688 -5.6490
v  -6.6408 2.2688 -2.1577
v  -6.6408 2.2688 2.1577
v  -4.1042 2.2688 5.6490
v  0.0000 2.2688 6.9825
v  4.1042 2.2688 5.6490
v  6.6408 2.2688 2.1577
v  6.6408 2.2688 -2.1577
v  4.1042 2.2688 -5.6490
v  -0.0000 -2.2688 -6.9825
v  -4.1042 -2.2688 -5.6490
v  -6.6408 -2.2688 -2.1577
v  -6.6408 -2.2688 2.1577
v  -4.1042 -2.2688 5.6490
v  0.0000 -2.2688 6.9825
v  4.1042 -2.2688 5.6490
v  6.6408 -2.2688 2.1577
v  6.6408 -2.2688 -2.1577
v  4.1042 -2.2688 -5.6490
v  -0.0000 -5.9397 -4.3154
v  -2.5366 -5.9397 -3.4913
v  -4.1042 -5.9397 -1.3335
v  -4.1042 -5.9397 1.3335
v  -2.5366 -5.9397 3.4913
v  0.0000 -5.9397 4.3154
v  2.5366 -5.9397 3.4913
v  4.1042 -5.9397 1.3335
v  4.1042 -5.9397 -1.3335
v  2.5365 -5.9397 -3.4913
v  0.0000 -7.3419 -0.0000
# 42 vertices

vn -0.0000 1.0000 0.0000
vn -0.0000 0.7804 -0.6252
vn -0.3675 0.7804 -0.5058
vn -0.5946 0.7804 -0.1932
vn -0.5946 0.7804 0.1932
vn -0.3675 0.7804 0.5058
vn -0.0000 0.7804 0.6252
vn 0.3675 0.7804 0.5058
vn 0.5946 0.7804 0.1932
vn 0.5946 0.7804 -0.1932
vn 0.3675 0.7804 -0.5058
vn -0.0000 0.2925 -0.9563
vn -0.5621 0.2925 -0.7736
vn -0.9095 0.2925 -0.2955
vn -0.9095 0.2925 0.2955
vn -0.5621 0.2925 0.7736
vn -0.0000 0.2925 0.9563
vn 0.5621 0.2925 0.7736
vn 0.9095 0.2925 0.2955
vn 0.9095 0.2925 -0.2955
vn 0.5621 0.2925 -0.7736
vn -0.0000 -0.2925 -0.9563
vn -0.5621 -0.2925 -0.7736
vn -0.9095 -0.2925 -0.2955
vn -0.9095 -0.2925 0.2955
vn -0.5621 -0.2925 0.7736
vn -0.0000 -0.2925 0.9563
vn 0.5621 -0.2925 0.7736
vn 0.9095 -0.2925 0.2955
vn 0.9095 -0.2925 -0.2955
vn 0.5621 -0.2925 -0.7736
vn -0.0000 -0.7804 -0.6252
vn -0.3675 -0.7804 -0.5058
vn -0.5946 -0.7804 -0.1932
vn -0.5946 -0.7804 0.1932
vn -0.3675 -0.7804 0.5058
vn -0.0000 -0.7804 0.6252
vn 0.3675 -0.7804 0.5058
vn 0.5946 -0.7804 0.1932
vn 0.5946 -0.7804 -0.1932
vn 0.3675 -0.7804 -0.5058
vn 0.0000 -1.0000 -0.0000
# 42 vertex normals

vt 0.0000 1.0000 0.0000
vt 0.0000 0.8000 0.0000
vt 0.1000 0.8000 0.0000
vt 0.1000 1.0000 0.0000
vt 0.2000 0.8000 0.0000
vt 0.2000 1.0000 0.0000
vt 0.3000 0.8000 0.0000
vt 0.3000 1.0000 0.0000
vt 0.4000 0.8000 0.0000
vt 0.4000 1.0000 0.0000
vt 0.5000 0.8000 0.0000
vt 0.5000 1.0000 0.0000
vt 0.6000 0.8000 0.0000
vt 0.6000 1.0000 0.0000
vt 0.7000 0.8000 0.0000
vt 0.7000 1.0000 0.0000
vt 0.8000 0.8000 0.0000
vt 0.8000 1.0000 0.0000
vt 0.9000 0.8000 0.0000
vt 0.9000 1.0000 0.0000
vt 1.0000 0.8000 0.0000
vt 0.0000 0.6000 0.0000
vt 0.1000 0.6000 0.0000
vt 0.2000 0.6000 0.0000
vt 0.3000 0.6000 0.0000
vt 0.4000 0.6000 0.0000
vt 0.5000 0.6000 0.0000
vt 0.6000 0.6000 0.0000
vt 0.7000 0.6000 0.0000
vt 0.8000 0.6000 0.0000
vt 0.9000 0.6000 0.0000
vt 1.0000 0.6000 0.0000
vt 0.0000 0.4000 0.0000
vt 0.1000 0.4000 0.0000
vt 0.2000 0.4000 0.0000
vt 0.3000 0.4000 0.0000
vt 0.4000 0.4000 0.0000
vt 0.5000 0.4000 0.0000
vt 0.6000 0.4000 0.0000
vt 0.7000 0.4000 0.0000
vt 0.8000 0.4000 0.0000
vt 0.9000 0.4000 0.0000
vt 1.0000 0.4000 0.0000
vt 0.0000 0.2000 0.0000
vt 0.1000 0.2000 0.0000
vt 0.2000 0.2000 0.0000
vt 0.3000 0.2000 0.0000
vt 0.4000 0.2000 0.0000
vt 0.5000 0.2000 0.0000
vt 0.6000 0.2000 0.0000
vt 0.7000 0.2000 0.0000
vt 0.8000 0.2000 0.0000
vt 0.9000 0.2000 0.0000
vt 1.0000 0.2000 0.0000
vt 0.0000 0.0000 0.0000
vt 0.1000 0.0000 0.0000
vt 0.2000 0.0000 0.0000
vt 0.3000 0.0000 0.0000
vt 0.4000 0.0000 0.0000
vt 0.5000 0.0000 0.0000
vt 0.6000 0.0000 0.0000
vt 0.7000 0.0000 0.0000
vt 0.8000 0.0000 0.0000
vt 0.9000 0.0000 0.0000
# 64 texture coords

o Sphere001
g Sphere001
usemtl 02___Default
s 1
f 1/1/1 2/2/2 3/3/3 
f 1/4/1 3/3/3 4/5/4 
f 1/6/1 4/5/4 5/7/5 
f 1/8/1 5/7/5 6/9/6 
f 1/10/1 6/9/6 7/11/7 
f 1/12/1 7/11/7 8/13/8 
f 1/14/1 8/13/8 9/15/9 
f 1/16/1 9/15/9 10/17/10 
f 1/18/1 10/17/10 11/19/11 
f 1/20/1 11/19/11 2/21/2 
f 2/2/2 12/22/12 13/23/13 
f 2/2/2 13/23/13 3/3/3 
f 3/3/3 13/23/13 14/24/14 
f 3/3/3 14/24/14 4/5/4 
f 4/5/4 14/24/14 15/25/15 
f 4/5/4 15/25/15 5/7/5 
f 5/7/5 15/25/15 16/26/16 
f 5/7/5 16/26/16 6/9/6 
f 6/9/6 16/26/16 17/27/17 
f 6/9/6 17/27/17 7/11/7 
f 7/11/7 17/27/17 18/28/18 
f 7/11/7 18/28/18 8/13/8 
f 8/13/8 18/28/18 19/29/19 
f 8/13/8 19/29/19 9/15/9 
f 9/15/9 19/29/19 20/30/20 
f 9/15/9 20/30/20 10/17/10 
f 10/17/10 20/30/20 21/31/21 
f 10/17/10 21/31/21 11/19/11 
f 11/19/11 21/31/21 12/32/12 
f 11/19/11 12/32/12 2/21/2 
f 12/22/12 22/33/22 23/34/23 
f 12/22/12 23/34/23 13/23/13 
f 13/23/13 23/34/23 24/35/24 
f 13/23/13 24/35/24 14/24/14 
f 14/24/14 24/35/24 25/36/25 
f 14/24/14 25/36/25 15/25/15 
f 15/25/15 25/36/25 26/37/26 
f 15/25/15 26/37/26 16/26/16 
f 16/26/16 26/37/26 27/38/27 
f 16/26/16 27/38/27 17/27/17 
f 17/27/17 27/38/27 28/39/28 
f 17/27/17 28/39/28 18/28/18 
f 18/28/18 28/39/28 29/40/29 
f 18/28/18 29/40/29 19/29/19 
f 19/29/19 29/40/29 30/41/30 
f 19/29/19 30/41/30 20/30/20 
f 20/30/20 30/41/30 31/42/31 
f 20/30/20 31/42/31 21/31/21 
f 21/31/21 31/42/31 22/43/22 
f 21/31/21 22/43/22 12/32/12 
f 22/33/22 32/44/32 33/45/33 
f 22/33/22 33/45/33 23/34/23 
f 23/34/23 33/45/33 34/46/34 
f 23/34/23 34/46/34 24/35/24 
f 24/35/24 34/46/34 35/47/35 
f 24/35/24 35/47/35 25/36/25 
f 25/36/25 35/47/35 36/48/36 
f 25/36/25 36/48/36 26/37/26 
f 26/37/26 36/48/36 37/49/37 
f 26/37/26 37/49/37 27/38/27 
f 27/38/27 37/49/37 38/50/38 
f 27/38/27 38/50/38 28/39/28 
f 28/39/28 38/50/38 39/51/39 
f 28/39/28 39/51/39 29/40/29 
f 29/40/29 39/51/39 40/52/40 
f 29/40/29 40/52/40 30/41/30 
f 30/41/30 40/52/40 41/53/41 
f 30/41/30 41/53/41 31/42/31 
f 31/42/31 41/53/41 32/54/32 
f 31/42/31 32/54/32 22/43/22 
f 42/55/42 33/45/33 32/44/32 
f 42/56/42 34/46/34 33/45/33 
f 42/57/42 35/47/35 34/46/34 
f 42/58/42 36/48/36 35/47/35 
f 42/59/42 37/49/37 36/48/36 
f 42/60/42 38/50/38 37/49/37 
f 42/61/42 39/51/39 38/50/38 
f 42/62/42 40/52/40 39/51/39 
f 42/63/42 41/53/41 40/52/40 
f 42/64/42 32/54/32 41/53/41 
# 80 faces

#
# object Sphere002
#

v  0.0000 11.4158 -0.0000
v  -0.0000 9.2356 -6.7100
v  -3.9441 9.2356 -5.4285
v  -6.3816 9.2356 -2.0735
v  -6.3816 9.2356 2.0735
v  -3.9441 9.2356 5.4285
v  0.0000 9.2356 6.7100
v  3.9441 9.2356 5.4285
v  6.3816 9.2356 2.0735
v  6.3816 9.2356 -2.0735
v  3.9441 9.2356 -5.4285
v  -0.0000 3.5277 -10.8571
v  -6.3816 3.5277 -8.7836
v  -10.3257 3.5277 -3.3550
v  -10.3257 3.5277 3.3550
v  -6.3816 3.5277 8.7836
v  0.0000 3.5277 10.8571
v  6.3816 3.5277 8.7836
v  10.3257 3.5277 3.3550
v  10.3257 3.5277 -3.3550
v  6.3816 3.5277 -8.7836
v  -0.0000 -3.5277 -10.8571
v  -6.3816 -3.5277 -8.7836
v  -10.3257 -3.5277 -3.3550
v  -10.3257 -3.5277 3.3550
v  -6.3816 -3.5277 8.7836
v  0.0000 -3.5277 10.8571
v  6.3816 -3.5277 8.7836
v  10.3257 -3.5277 3.3550
v  10.3257 -3.5277 -3.3550
v  6.3816 -3.5277 -8.7836
v  -0.0000 -9.2356 -6.7100
v  -3.9441 -9.2356 -5.4285
v  -6.3816 -9.2356 -2.0735
v  -6.3816 -9.2356 2.0735
v  -3.9441 -9.2356 5.4285
v  0.0000 -9.2356 6.7100
v  3.9441 -9.2356 5.4285
v  6.3816 -9.2356 2.0735
v  6.3816 -9.2356 -2.0735
v  3.9441 -9.2356 -5.4285
v  0.0000 -11.4158 -0.0000
# 42 vertices

vn -0.0000 1.0000 0.0000
vn -0.0000 0.7804 -0.6252
vn -0.3675 0.7804 -0.5058
vn -0.5946 0.7804 -0.1932
vn -0.5946 0.7804 0.1932
vn -0.3675 0.7804 0.5058
vn -0.0000 0.7804 0.6252
vn 0.3675 0.7804 0.5058
vn 0.5946 0.7804 0.1932
vn 0.5946 0.7804 -0.1932
vn 0.3675 0.7804 -0.5058
vn -0.0000 0.2925 -0.9563
vn -0.5621 0.2925 -0.7736
vn -0.9095 0.2925 -0.2955
vn -0.9095 0.2925 0.2955
vn -0.5621 0.2925 0.7736
vn -0.0000 0.2925 0.9563
vn 0.5621 0.2925 0.7736
vn 0.9095 0.2925 0.2955
vn 0.9095 0.2925 -0.2955
vn 0.5621 0.2925 -0.7736
vn -0.0000 -0.2925 -0.9563
vn -0.5621 -0.2925 -0.7736
vn -0.9095 -0.2925 -0.2955
vn -0.9095 -0.2925 0.2955
vn -0.5621 -0.2925 0.7736
vn -0.0000 -0.2925 0.9563
vn 0.5621 -0.2925 0.7736
vn 0.9095 -0.2925 0.2955
vn 0.9095 -0.2925 -0.2955
vn 0.5621 -0.2925 -0.7736
vn -0.0000 -0.7804 -0.6252
vn -0.3675 -0.7804 -0.5058
vn -0.5946 -0.7804 -0.1932
vn -0.5946 -0.7804 0.1932
vn -0.3675 -0.7804 0.5058
vn -0.0000 -0.7804 0.6252
vn 0.3675 -0.7804 0.5058
vn 0.5946 -0.7804 0.1932
vn 0.5946 -0.7804 -0.1932
vn 0.3675 -0.7804 -0.5058
vn 0.0000 -1.0000 -0.0000
# 42 vertex normals

vt 0.0000 1.0000 0.0000
vt 0.0000 0.8000 0.0000
vt 0.1000 0.8000 0.0000
vt 0.1000 1.0000 0.0000
vt 0.2000 0.8000 0.0000
vt 0.2000 1.0000 0.0000
vt 0.3000 0.8000 0.0000
vt 0.3000 1.0000 0.0000
vt 0.4000 0.8000 0.0000
vt 0.4000 1.0000 0.0000
vt 0.5000 0.8000 0.0000
vt 0.5000 1.0000 0.0000
vt 0.6000 0.8000 0.0000
vt 0.6000 1.0000 0.0000
vt 0.7000 0.8000 0.0000
vt 0.7000 1.0000 0.0000
vt 0.8000 0.8000 0.0000
vt 0.8000 1.0000 0.0000
vt 0.9000 0.8000 0.0000
vt 0.9000 1.0000 0.0000
vt 1.0000 0.8000 0.0000
vt 0.0000 0.6000 0.0000
vt 0.1000 0.6000 0.0000
vt 0.2000 0.6000 0.0000
vt 0.3000 0.6000 0.0000
vt 0.4000 0.6000 0.0000
vt 0.5000 0.6000 0.0000
vt 0.6000 0.6000 0.0000
vt 0.7000 0.6000 0.0000
vt 0.8000 0.6000 0.0000
vt 0.9000 0.6000 0.0000
vt 1.0000 0.6000 0.0000
vt 0.0000 0.4000 0.0000
vt 0.1000 0.4000 0.0000
vt 0.2000 0.4000 0.0000
vt 0.3000 0.4000 0.0000
vt 0.4000 0.4000 0.0000
vt 0.5000 0.4000 0.0000
vt 0.6000 0.4000 0.0000
vt 0.7000 0.4000 0.0000
vt 0.8000 0.4000 0.0000
vt 0.9000 0.4000 0.0000
vt 1.0000 0.4000 0.0000
vt 0.0000 0.2000 0.0000
vt 0.1000 0.2000 0.0000
vt 0.2000 0.2000 0.0000
vt 0.3000 0.2000 0.0000
vt 0.4000 0.2000 0.0000
vt 0.5000 0.2000 0.0000
vt 0.6000 0.2000 0.0000
vt 0.7000 0.2000 0.0000
vt 0.8000 0.2000 0.0000
vt 0.9000 0.2000 0.0000
vt 1.0000 0.2000 0.0000
vt 0.0000 0.0000 0.0000
vt 0.1000 0.0000 0.0000
vt 0.2000 0.0000 0.0000
vt 0.3000 0.0000 0.0000
vt 0.4000 0.0000 0.0000
vt 0.5000 0.0000 0.0000
vt 0.6000 0.0000 0.0000
vt 0.7000 0.0000 0.0000
vt 0.8000 0.0000 0.0000
vt 0.9000 0.0000 0.0000
# 64 texture coords

o Sphere002
g Sphere002
usemtl 01___Default
s 1
f 43/65/43 44/66/44 45/67/45 
f 43/68/43 45/67/45 46/69/46 
f 43/70/43 46/69/46 47/71/47 
f 43/72/43 47/71/47 48/73/48 
f 43/74/43 48/73/48 49/75/49 
f 43/76/43 49/75/49 50/77/50 
f 43/78/43 50/77/50 51/79/51 
f 43/80/43 51/79/51 52/81/52 
f 43/82/43 52/81/52 53/83/53 
f 43/84/43 53/83/53 44/85/44 
f 44/66/44 54/86/54 55/87/55 
f 44/66/44 55/87/55 45/67/45 
f 45/67/45 55/87/55 56/88/56 
f 45/67/45 56/88/56 46/69/46 
f 46/69/46 56/88/56 57/89/57 
f 46/69/46 57/89/57 47/71/47 
f 47/71/47 57/89/57 58/90/58 
f 47/71/47 58/90/58 48/73/48 
f 48/73/48 58/90/58 59/91/59 
f 48/73/48 59/91/59 49/75/49 
f 49/75/49 59/91/59 60/92/60 
f 49/75/49 60/92/60 50/77/50 
f 50/77/50 60/92/60 61/93/61 
f 50/77/50 61/93/61 51/79/51 
f 51/79/51 61/93/61 62/94/62 
f 51/79/51 62/94/62 52/81/52 
f 52/81/52 62/94/62 63/95/63 
f 52/81/52 63/95/63 53/83/53 
f 53/83/53 63/95/63 54/96/54 
f 53/83/53 54/96/54 44/85/44 
f 54/86/54 64/97/64 65/98/65 
f 54/86/54 65/98/65 55/87/55 
f 55/87/55 65/98/65 66/99/66 
f 55/87/55 66/99/66 56/88/56 
f 56/88/56 66/99/66 67/100/67 
f 56/88/56 67/100/67 57/89/57 
f 57/89/57 67/100/67 68/101/68 
f 57/89/57 68/101/68 58/90/58 
f 58/90/58 68/101/68 69/102/69 
f 58/90/58 69/102/69 59/91/59 
f 59/91/59 69/102/69 70/103/70 
f 59/91/59 70/103/70 60/92/60 
f 60/92/60 70/103/70 71/104/71 
f 60/92/60 71/104/71 61/93/61 
f 61/93/61 71/104/71 72/105/72 
f 61/93/61 72/105/72 62/94/62 
f 62/94/62 72/105/72 73/106/73 
f 62/94/62 73/106/73 63/95/63 
f 63/95/63 73/106/73 64/107/64 
f 63/95/63 64/107/64 54/96/54 
f 64/97/64 74/108/74 75/109/75 
f 64/97/64 75/109/75 65/98/65 
f 65/98/65 75/109/75 76/110/76 
f 65/98/65 76/110/76 66/99/66 
f 66/99/66 76/110/76 77/111/77 
f 66/99/66 77/111/77 67/100/67 
f 67/100/67 77/111/77 78/112/78 
f 67/100/67 78/112/78 68/101/68 
f 68/101/68 78/112/78 79/113/79 
f 68/101/68 79/113/79 69/102/69 
f 69/102/69 79/113/79 80/114/80 
f 69/102/69 80/114/80 70/103/70 
f 70/103/70 80/114/80 81/115/81 
f 70/103/70 81/115/81 71/104/71 
f 71/104/71 81/115/81 82/116/82 
f 71/104/71 82/116/82 72/105/72 
f 72/105/72 82/116/82 83/117/83 
f 72/105/72 83/117/83 73/106/73 
f 73/106/73 83/117/83 74/118/74 
f 73/106/73 74/118/74 64/107/64 
f 84/119/84 75/109/75 74/108/74 
f 84/120/84 76/110/76 75/109/75 
f 84/121/84 77/111/77 76/110/76 
f 84/122/84 78/112/78 77/111/77 
f 84/123/84 79/113/79 78/112/78 
f 84/124/84 80/114/80 79/113/79 
f 84/125/84 81/115/81 80/114/80 
f 84/126/84 82/116/82 81/115/81 
f 84/127/84 83/117/83 82/116/82 
f 84/128/84 74/118/74 83/117/83 
# 80 faces

#
# object Tube001
#

v  -0.0000 -0.0000 -15.8670
v  2.1763 9.1030 -12.8367
v  2.9235 8.8563 -12.8367
v  -0.7472 0.2466 -15.8670
v  1.3992 6.7488 -9.4244
v  -0.7472 0.2466 -11.6493
v  2.1464 6.5022 -9.4244
v  -0.0000 -0.0000 -11.6493
v  3.9832 14.5765 -4.9032
v  4.7303 14.3299 -4.9032
v  2.7257 10.7673 -3.5998
v  3.4729 10.5207 -3.5998
v  3.9832 14.5765 4.9032
v  4.7303 14.3299 4.9032
v  2.7257 10.7673 3.5998
v  3.4729 10.5207 3.5998
v  2.1763 9.1030 12.8367
v  2.9235 8.8563 12.8367
v  1.3992 6.7488 9.4244
v  2.1464 6.5022 9.4244
v  -0.7472 0.2466 15.8670
v  -0.0000 -0.0000 15.8670
v  -0.7472 0.2466 11.6493
v  -0.0000 -0.0000 11.6493
v  -3.6707 -8.6097 12.8367
v  -2.9235 -8.8563 12.8367
v  -2.8935 -6.2555 9.4244
v  -2.1464 -6.5022 9.4244
v  -5.4775 -14.0832 4.9032
v  -4.7303 -14.3298 4.9032
v  -4.2201 -10.2741 3.5998
v  -3.4729 -10.5207 3.5998
v  -5.4775 -14.0832 -4.9032
v  -4.7303 -14.3299 -4.9032
v  -4.2201 -10.2741 -3.5998
v  -3.4729 -10.5207 -3.5998
v  -3.6707 -8.6097 -12.8367
v  -2.9235 -8.8563 -12.8367
v  -2.8935 -6.2555 -9.4244
v  -2.1464 -6.5022 -9.4244
# 40 vertices

vn -0.0000 -0.0000 -1.0000
vn 0.1842 0.5582 -0.8090
vn -0.9496 0.3135 -0.0000
vn 0.0000 0.0000 1.0000
vn -0.1842 -0.5582 0.8090
vn -0.1843 -0.5582 0.8090
vn 0.9496 -0.3135 -0.0000
vn 0.2981 0.9031 -0.3090
vn -0.2981 -0.9031 0.3090
vn 0.2981 0.9031 0.3090
vn -0.2981 -0.9031 -0.3090
vn 0.1842 0.5582 0.8090
vn 0.1843 0.5582 0.8090
vn -0.1842 -0.5582 -0.8090
vn -0.0000 -0.0000 1.0000
vn 0.0000 0.0000 -1.0000
vn 0.1843 0.5582 -0.8090
vn -0.1843 -0.5582 -0.8090
# 18 vertex normals

vt 0.0000 0.0000 0.0000
vt 0.2500 0.1000 0.0000
vt 0.0000 0.1000 0.0000
vt 0.2500 0.0000 0.0000
vt 0.5000 0.1000 0.0000
vt 0.5000 0.0000 0.0000
vt 0.7500 0.1000 0.0000
vt 0.7500 0.0000 0.0000
vt 1.0000 0.1000 0.0000
vt 1.0000 0.0000 0.0000
vt 0.2500 0.2000 0.0000
vt 0.0000 0.2000 0.0000
vt 0.5000 0.2000 0.0000
vt 0.7500 0.2000 0.0000
vt 1.0000 0.2000 0.0000
vt 0.2500 0.3000 0.0000
vt 0.0000 0.3000 0.0000
vt 0.5000 0.3000 0.0000
vt 0.7500 0.3000 0.0000
vt 1.0000 0.3000 0.0000
vt 0.2500 0.4000 0.0000
vt 0.0000 0.4000 0.0000
vt 0.5000 0.4000 0.0000
vt 0.7500 0.4000 0.0000
vt 1.0000 0.4000 0.0000
vt 0.2500 0.5000 0.0000
vt 0.0000 0.5000 0.0000
vt 0.5000 0.5000 0.0000
vt 0.7500 0.5000 0.0000
vt 1.0000 0.5000 0.0000
vt 0.2500 0.6000 0.0000
vt 0.0000 0.6000 0.0000
vt 0.5000 0.6000 0.0000
vt 0.7500 0.6000 0.0000
vt 1.0000 0.6000 0.0000
vt 0.2500 0.7000 0.0000
vt 0.0000 0.7000 0.0000
vt 0.5000 0.7000 0.0000
vt 0.7500 0.7000 0.0000
vt 1.0000 0.7000 0.0000
vt 0.2500 0.8000 0.0000
vt 0.0000 0.8000 0.0000
vt 0.5000 0.8000 0.0000
vt 0.7500 0.8000 0.0000
vt 1.0000 0.8000 0.0000
vt 0.2500 0.9000 0.0000
vt 0.0000 0.9000 0.0000
vt 0.5000 0.9000 0.0000
vt 0.7500 0.9000 0.0000
vt 1.0000 0.9000 0.0000
vt 0.2500 1.0000 0.0000
vt 0.0000 1.0000 0.0000
vt 0.5000 1.0000 0.0000
vt 0.7500 1.0000 0.0000
vt 1.0000 1.0000 0.0000
# 55 texture coords

o Tube001
g Tube001
usemtl 07___Default
s 2
f 85/129/85 86/130/86 87/131/86 
f 85/129/85 88/132/85 86/130/86 
s 4
f 88/132/87 89/133/87 86/130/87 
f 88/132/87 90/134/87 89/133/87 
s 2
f 90/134/88 91/135/89 89/133/90 
f 90/134/88 92/136/88 91/135/89 
s 4
f 92/136/91 87/137/91 91/135/91 
f 92/136/91 85/138/91 87/137/91 
s 2
f 87/131/86 93/139/92 94/140/92 
f 87/131/86 86/130/86 93/139/92 
s 4
f 86/130/87 95/141/87 93/139/87 
f 86/130/87 89/133/87 95/141/87 
s 2
f 89/133/90 96/142/93 95/141/93 
f 89/133/90 91/135/89 96/142/93 
s 4
f 91/135/91 94/143/91 96/142/91 
f 91/135/91 87/137/91 94/143/91 
s 2
f 94/140/92 97/144/94 98/145/94 
f 94/140/92 93/139/92 97/144/94 
s 4
f 93/139/87 99/146/87 97/144/87 
f 93/139/87 95/141/87 99/146/87 
s 2
f 95/141/93 100/147/95 99/146/95 
f 95/141/93 96/142/93 100/147/95 
s 4
f 96/142/91 98/148/91 100/147/91 
f 96/142/91 94/143/91 98/148/91 
s 2
f 98/145/94 101/149/96 102/150/97 
f 98/145/94 97/144/94 101/149/96 
s 4
f 97/144/87 103/151/87 101/149/87 
f 97/144/87 99/146/87 103/151/87 
s 2
f 99/146/95 104/152/98 103/151/98 
f 99/146/95 100/147/95 104/152/98 
s 4
f 100/147/91 102/153/91 104/152/91 
f 100/147/91 98/148/91 102/153/91 
s 2
f 102/150/97 105/154/99 106/155/88 
f 102/150/97 101/149/96 105/154/99 
s 4
f 101/149/87 107/156/87 105/154/87 
f 101/149/87 103/151/87 107/156/87 
s 2
f 103/151/98 108/157/100 107/156/100 
f 103/151/98 104/152/98 108/157/100 
s 4
f 104/152/91 106/158/91 108/157/91 
f 104/152/91 102/153/91 106/158/91 
s 2
f 106/155/88 109/159/89 110/160/89 
f 106/155/88 105/154/99 109/159/89 
s 4
f 105/154/87 111/161/87 109/159/87 
f 105/154/87 107/156/87 111/161/87 
s 2
f 107/156/100 112/162/86 111/161/101 
f 107/156/100 108/157/100 112/162/86 
s 4
f 108/157/91 110/163/91 112/162/91 
f 108/157/91 106/158/91 110/163/91 
s 2
f 110/160/89 113/164/93 114/165/93 
f 110/160/89 109/159/89 113/164/93 
s 4
f 109/159/87 115/166/87 113/164/87 
f 109/159/87 111/161/87 115/166/87 
s 2
f 111/161/101 116/167/92 115/166/92 
f 111/161/101 112/162/86 116/167/92 
s 4
f 112/162/91 114/168/91 116/167/91 
f 112/162/91 110/163/91 114/168/91 
s 2
f 114/165/93 117/169/95 118/170/95 
f 114/165/93 113/164/93 117/169/95 
s 4
f 113/164/87 119/171/87 117/169/87 
f 113/164/87 115/166/87 119/171/87 
s 2
f 115/166/92 120/172/94 119/171/94 
f 115/166/92 116/167/92 120/172/94 
s 4
f 116/167/91 118/173/91 120/172/91 
f 116/167/91 114/168/91 118/173/91 
s 2
f 118/170/95 121/174/102 122/175/102 
f 118/170/95 117/169/95 121/174/102 
s 4
f 117/169/87 123/176/87 121/174/87 
f 117/169/87 119/171/87 123/176/87 
s 2
f 119/171/94 124/177/97 123/176/97 
f 119/171/94 120/172/94 124/177/97 
s 4
f 120/172/91 122/178/91 124/177/91 
f 120/172/91 118/173/91 122/178/91 
s 2
f 122/175/102 88/179/85 85/180/85 
f 122/175/102 121/174/102 88/179/85 
s 4
f 121/174/87 90/181/87 88/179/87 
f 121/174/87 123/176/87 90/181/87 
s 2
f 123/176/97 92/182/88 90/181/88 
f 123/176/97 124/177/97 92/182/88 
s 4
f 124/177/91 85/183/91 92/182/91 
f 124/177/91 122/178/91 85/183/91 
# 80 faces

#
# object Tube002
#

v  10.5153 -0.0000 2.3006
v  7.1548 0.5338 8.0420
v  7.1548 0.0000 8.0420
v  10.5153 0.5338 2.3006
v  5.2529 0.5338 5.9043
v  7.7201 0.5338 1.6891
v  5.2529 0.0000 5.9043
v  7.7201 -0.0000 1.6891
v  1.0614 0.5338 10.7116
v  1.0614 0.0000 10.7116
v  0.7793 0.5338 7.8642
v  0.7793 0.0000 7.8642
v  -5.4374 0.5338 9.2897
v  -5.4374 0.0000 9.2897
v  -3.9921 0.5338 6.8203
v  -3.9921 0.0000 6.8203
v  -9.8593 0.5338 4.3195
v  -9.8593 0.0000 4.3195
v  -7.2385 0.5338 3.1713
v  -7.2385 0.0000 3.1713
v  -10.5153 0.5338 -2.3006
v  -10.5153 -0.0000 -2.3006
v  -7.7201 0.5338 -1.6891
v  -7.7201 -0.0000 -1.6891
v  -7.1548 0.5338 -8.0420
v  -7.1548 -0.0000 -8.0420
v  -5.2529 0.5338 -5.9043
v  -5.2529 -0.0000 -5.9043
v  -1.0614 0.5338 -10.7116
v  -1.0614 -0.0000 -10.7116
v  -0.7793 0.5338 -7.8642
v  -0.7793 -0.0000 -7.8642
v  5.4374 0.5338 -9.2897
v  5.4374 -0.0000 -9.2897
v  3.9921 0.5338 -6.8203
v  3.9921 -0.0000 -6.8203
v  9.8593 0.5338 -4.3195
v  9.8593 -0.0000 -4.3195
v  7.2385 0.5338 -3.1713
v  7.2385 -0.0000 -3.1713
# 40 vertices

vn 0.9769 -0.0000 0.2137
vn 0.6647 0.0000 0.7471
vn 0.0000 1.0000 -0.0000
vn -0.9769 0.0000 -0.2137
vn -0.6647 -0.0000 -0.7471
vn -0.0000 -1.0000 0.0000
vn 0.0986 0.0000 0.9951
vn -0.0986 -0.0000 -0.9951
vn -0.5051 0.0000 0.8630
vn 0.5051 -0.0000 -0.8630
vn -0.9160 0.0000 0.4013
vn 0.9160 -0.0000 -0.4013
vn -0.9769 -0.0000 -0.2137
vn 0.9769 0.0000 0.2137
# 14 vertex normals

vt 0.0000 0.0000 0.0000
vt 0.2500 0.1000 0.0000
vt 0.0000 0.1000 0.0000
vt 0.2500 0.0000 0.0000
vt 0.5000 0.1000 0.0000
vt 0.5000 0.0000 0.0000
vt 0.7500 0.1000 0.0000
vt 0.7500 0.0000 0.0000
vt 1.0000 0.1000 0.0000
vt 1.0000 0.0000 0.0000
vt 0.2500 0.2000 0.0000
vt 0.0000 0.2000 0.0000
vt 0.5000 0.2000 0.0000
vt 0.7500 0.2000 0.0000
vt 1.0000 0.2000 0.0000
vt 0.2500 0.3000 0.0000
vt 0.0000 0.3000 0.0000
vt 0.5000 0.3000 0.0000
vt 0.7500 0.3000 0.0000
vt 1.0000 0.3000 0.0000
vt 0.2500 0.4000 0.0000
vt 0.0000 0.4000 0.0000
vt 0.5000 0.4000 0.0000
vt 0.7500 0.4000 0.0000
vt 1.0000 0.4000 0.0000
vt 0.2500 0.5000 0.0000
vt 0.0000 0.5000 0.0000
vt 0.5000 0.5000 0.0000
vt 0.7500 0.5000 0.0000
vt 1.0000 0.5000 0.0000
vt 0.2500 0.6000 0.0000
vt 0.0000 0.6000 0.0000
vt 0.5000 0.6000 0.0000
vt 0.7500 0.6000 0.0000
vt 1.0000 0.6000 0.0000
vt 0.2500 0.7000 0.0000
vt 0.0000 0.7000 0.0000
vt 0.5000 0.7000 0.0000
vt 0.7500 0.7000 0.0000
vt 1.0000 0.7000 0.0000
vt 0.2500 0.8000 0.0000
vt 0.0000 0.8000 0.0000
vt 0.5000 0.8000 0.0000
vt 0.7500 0.8000 0.0000
vt 1.0000 0.8000 0.0000
vt 0.2500 0.9000 0.0000
vt 0.0000 0.9000 0.0000
vt 0.5000 0.9000 0.0000
vt 0.7500 0.9000 0.0000
vt 1.0000 0.9000 0.0000
vt 0.2500 1.0000 0.0000
vt 0.0000 1.0000 0.0000
vt 0.5000 1.0000 0.0000
vt 0.7500 1.0000 0.0000
vt 1.0000 1.0000 0.0000
# 55 texture coords

o Tube002
g Tube002
usemtl 07___Default
s 2
f 125/184/103 126/185/104 127/186/104 
f 125/184/103 128/187/103 126/185/104 
s 4
f 128/187/105 129/188/105 126/185/105 
f 128/187/105 130/189/105 129/188/105 
s 2
f 130/189/106 131/190/107 129/188/107 
f 130/189/106 132/191/106 131/190/107 
s 4
f 132/191/108 127/192/108 131/190/108 
f 132/191/108 125/193/108 127/192/108 
s 2
f 127/186/104 133/194/109 134/195/109 
f 127/186/104 126/185/104 133/194/109 
s 4
f 126/185/105 135/196/105 133/194/105 
f 126/185/105 129/188/105 135/196/105 
s 2
f 129/188/107 136/197/110 135/196/110 
f 129/188/107 131/190/107 136/197/110 
s 4
f 131/190/108 134/198/108 136/197/108 
f 131/190/108 127/192/108 134/198/108 
s 2
f 134/195/109 137/199/111 138/200/111 
f 134/195/109 133/194/109 137/199/111 
s 4
f 133/194/105 139/201/105 137/199/105 
f 133/194/105 135/196/105 139/201/105 
s 2
f 135/196/110 140/202/112 139/201/112 
f 135/196/110 136/197/110 140/202/112 
s 4
f 136/197/108 138/203/108 140/202/108 
f 136/197/108 134/198/108 138/203/108 
s 2
f 138/200/111 141/204/113 142/205/113 
f 138/200/111 137/199/111 141/204/113 
s 4
f 137/199/105 143/206/105 141/204/105 
f 137/199/105 139/201/105 143/206/105 
s 2
f 139/201/112 144/207/114 143/206/114 
f 139/201/112 140/202/112 144/207/114 
s 4
f 140/202/108 142/208/108 144/207/108 
f 140/202/108 138/203/108 142/208/108 
s 2
f 142/205/113 145/209/115 146/210/106 
f 142/205/113 141/204/113 145/209/115 
s 4
f 141/204/105 147/211/105 145/209/105 
f 141/204/105 143/206/105 147/211/105 
s 2
f 143/206/114 148/212/116 147/211/116 
f 143/206/114 144/207/114 148/212/116 
s 4
f 144/207/108 146/213/108 148/212/108 
f 144/207/108 142/208/108 146/213/108 
s 2
f 146/210/106 149/214/107 150/215/107 
f 146/210/106 145/209/115 149/214/107 
s 4
f 145/209/105 151/216/105 149/214/105 
f 145/209/105 147/211/105 151/216/105 
s 2
f 147/211/116 152/217/104 151/216/104 
f 147/211/116 148/212/116 152/217/104 
s 4
f 148/212/108 150/218/108 152/217/108 
f 148/212/108 146/213/108 150/218/108 
s 2
f 150/215/107 153/219/110 154/220/110 
f 150/215/107 149/214/107 153/219/110 
s 4
f 149/214/105 155/221/105 153/219/105 
f 149/214/105 151/216/105 155/221/105 
s 2
f 151/216/104 156/222/109 155/221/109 
f 151/216/104 152/217/104 156/222/109 
s 4
f 152/217/108 154/223/108 156/222/108 
f 152/217/108 150/218/108 154/223/108 
s 2
f 154/220/110 157/224/112 158/225/112 
f 154/220/110 153/219/110 157/224/112 
s 4
f 153/219/105 159/226/105 157/224/105 
f 153/219/105 155/221/105 159/226/105 
s 2
f 155/221/109 160/227/111 159/226/111 
f 155/221/109 156/222/109 160/227/111 
s 4
f 156/222/108 158/228/108 160/227/108 
f 156/222/108 154/223/108 158/228/108 
s 2
f 158/225/112 161/229/114 162/230/114 
f 158/225/112 157/224/112 161/229/114 
s 4
f 157/224/105 163/231/105 161/229/105 
f 157/224/105 159/226/105 163/231/105 
s 2
f 159/226/111 164/232/113 163/231/113 
f 159/226/111 160/227/111 164/232/113 
s 4
f 160/227/108 162/233/108 164/232/108 
f 160/227/108 158/228/108 162/233/108 
s 2
f 162/230/114 128/234/103 125/235/103 
f 162/230/114 161/229/114 128/234/103 
s 4
f 161/229/105 130/236/105 128/234/105 
f 161/229/105 163/231/105 130/236/105 
s 2
f 163/231/113 132/237/106 130/236/106 
f 163/231/113 164/232/113 132/237/106 
s 4
f 164/232/108 125/238/108 132/237/108 
f 164/232/108 162/233/108 125/238/108 
# 80 faces

