# 3ds Max Wavefront OBJ Exporter v0.97b - (c)2007 guruware
# File Created: 18.03.2019 10:08:00

mtllib stone_effect9.mtl

#
# object Sphere011
#

v  0.0000 54.3755 77.8223
v  -0.0000 70.2816 90.8786
v  -15.5744 67.8216 84.9919
v  -19.4210 62.2938 71.7646
v  -8.6431 57.8609 61.1572
v  8.6432 57.8609 61.1572
v  19.4210 62.2938 71.7646
v  15.5744 67.8216 84.9919
v  -19.4210 89.8869 81.6054
v  -0.0000 92.9545 88.9459
v  -24.2176 82.9939 65.1112
v  -10.7778 77.4661 51.8840
v  10.7778 77.4661 51.8840
v  24.2176 82.9939 65.1112
v  19.4210 89.8869 81.6054
v  0.0000 104.1601 64.1248
v  3.7119 40.8992 74.2691
v  3.0146 29.9607 70.5353
v  4.8161 30.5709 79.3862
v  9.0893 37.1984 83.8329
v  12.6164 44.8526 80.5269
v  12.7415 47.7697 71.9576
v  9.3703 43.7531 64.5780
v  5.0415 35.8273 63.9450
v  13.8620 23.3451 79.1867
v  11.6156 22.5842 68.1497
v  19.1906 31.6095 84.7317
v  23.5889 41.1541 80.6091
v  23.7448 44.7917 69.9234
v  19.5410 39.7830 60.7211
v  14.1430 29.8998 59.9318
v  27.0133 28.4829 70.3825
v  54.8664 36.3706 -13.4200
v  53.6090 35.9324 8.6499
v  51.9350 51.8422 2.1006
v  58.4249 58.1776 -12.6154
v  68.1917 50.1679 -24.4167
v  73.8808 33.8446 -24.4166
v  71.2082 21.4994 -12.6154
v  62.1864 22.4286 2.1006
v  67.0312 61.1771 15.2845
v  69.1187 41.3379 23.4513
v  75.1240 69.0772 -3.0660
v  87.3030 59.0892 -17.7820
v  94.3972 38.7344 -17.7820
v  91.0645 23.3403 -3.0660
v  79.8145 24.4989 15.2845
v  96.8845 51.0150 11.4150
v  59.4338 54.8591 46.9438
v  43.6368 32.5332 58.9452
v  42.3545 58.0615 69.7125
v  65.8550 68.8147 63.9620
v  81.6613 49.9322 49.6407
v  67.9297 27.5090 46.5402
v  61.9047 33.1829 78.2508
v  -68.6176 47.0376 24.9846
v  -81.8871 46.6578 9.2605
v  -75.5239 31.2591 11.6390
v  -62.1168 27.7947 16.9833
v  -51.7618 38.8733 21.2692
v  -52.2563 56.1525 21.2692
v  -63.2280 66.6208 16.9833
v  -76.4149 62.3952 11.6390
v  -72.3340 27.5023 -10.4710
v  -80.2688 46.7041 -13.4369
v  -55.6157 23.1822 -3.8067
v  -42.7032 36.9970 1.5376
v  -43.3198 58.5438 1.5376
v  -57.0013 71.5975 -3.8067
v  -73.4451 66.3284 -10.4710
v  -55.6151 47.4097 -24.9846
v  -34.1365 12.7630 -66.5812
v  -35.4679 34.6041 -63.4119
v  -32.0282 30.3527 -79.8104
v  -23.8687 16.3528 -85.8306
v  -17.1338 3.1467 -76.9393
v  -16.8949 0.6789 -59.8317
v  -23.3320 10.8076 -47.3903
v  -31.5978 25.9057 -48.9836
v  -14.7555 43.9849 -81.9717
v  -19.0448 49.2863 -61.5232
v  -4.5808 26.5273 -89.4788
v  3.8175 10.0596 -78.3915
v  4.1153 6.9822 -57.0587
v  -3.9116 19.6125 -41.5445
v  -14.2188 38.4396 -43.5314
v  10.3562 37.4313 -63.6438
v  -39.8526 24.2766 -42.4620
v  -40.3166 24.7678 -33.2855
v  -33.2978 28.8471 -36.0086
v  -29.0166 27.1579 -42.1274
v  -30.6968 20.9722 -47.0343
v  -37.0732 14.9480 -47.0343
v  -43.3442 13.6216 -42.1274
v  -44.7877 17.9918 -36.0086
v  -25.8404 23.7960 -30.5268
v  -34.5927 18.7092 -27.1311
v  -20.5017 21.6897 -38.1568
v  -22.5969 13.9763 -44.2757
v  -30.5481 6.4642 -44.2757
v  -38.3680 4.8101 -38.1568
v  -40.1680 10.2597 -30.5268
v  -24.3455 7.8630 -32.1357
v  -6.4452 120.8568 -20.8369
v  -7.1425 127.0895 -11.1031
v  -5.3410 132.1245 -18.4080
v  -1.0678 129.7086 -26.0146
v  2.4593 121.6612 -28.1950
v  2.5844 114.0419 -23.3074
v  -0.7868 112.5884 -15.0322
v  -5.1157 118.3951 -9.6007
v  3.7048 137.6535 -13.7517
v  1.4585 131.3750 -4.6427
v  9.0335 134.6410 -23.2370
v  13.4317 124.6060 -25.9560
v  13.5877 115.1049 -19.8612
v  9.3839 113.2924 -9.5421
v  3.9859 120.5333 -2.7693
v  16.8561 128.1505 -10.0633
v  -5.3733 27.6959 -73.3058
v  -6.0706 27.6862 -61.7475
v  -4.2692 35.8684 -65.1774
v  0.0040 37.9421 -72.8844
v  3.5312 32.3459 -79.0648
v  3.6563 23.2937 -79.0648
v  0.2851 17.6021 -72.8843
v  -4.0438 19.5570 -65.1774
v  4.7767 38.0081 -58.2729
v  2.5303 27.8051 -53.9959
v  10.1053 40.5940 -67.8832
v  14.5036 33.6155 -75.5902
v  14.6596 22.3277 -75.5902
v  10.4558 15.2304 -67.8832
v  5.0578 17.6681 -58.2729
v  17.9280 28.0178 -60.2994
v  33.9330 24.5466 -61.8149
v  54.8396 45.8669 -61.1970
v  31.3644 49.5797 -75.4939
v  23.9621 25.1303 -82.4510
v  42.8625 6.3069 -72.4539
v  61.9459 19.1229 -59.3181
v  60.1619 38.0194 -86.0351
v  92.6574 44.8060 -41.3483
v  97.3803 45.9420 -54.4567
v  89.4303 55.4114 -50.1936
v  81.9635 45.0231 -47.4772
v  89.9136 35.5537 -51.7404
v  86.6864 46.1591 -60.5856
# 148 vertices

vn -0.0000 -0.9058 0.4460
vn -0.0000 -0.2442 1.0248
vn -0.6211 -0.3243 0.7657
vn -0.8352 -0.5281 0.0314
vn -0.3624 -0.6693 -0.5654
vn 0.3624 -0.6693 -0.5654
vn 0.8352 -0.5281 0.0314
vn 0.6210 -0.3243 0.7657
vn -0.7429 0.3976 0.4992
vn -0.0000 0.4677 0.8497
vn -0.9323 0.1863 -0.3355
vn -0.3801 0.0329 -0.9572
vn 0.3801 0.0329 -0.9572
vn 0.9323 0.1863 -0.3355
vn 0.7429 0.3976 0.4992
vn -0.0000 0.9250 -0.3839
vn -0.8928 0.4005 0.1326
vn -0.9092 -0.3583 -0.1521
vn -0.7559 -0.3430 0.6043
vn -0.4172 0.1004 0.9203
vn -0.1528 0.6614 0.6589
vn -0.1426 0.9517 -0.1052
vn -0.4182 0.6356 -0.7129
vn -0.7331 0.0825 -0.7051
vn -0.0417 -0.8404 0.5923
vn -0.2190 -0.8620 -0.3021
vn 0.3484 -0.2730 0.9517
vn 0.6715 0.3623 0.6181
vn 0.6944 0.6740 -0.2423
vn 0.3664 0.3353 -0.9270
vn -0.0208 -0.2995 -0.9470
vn 0.8802 -0.4265 -0.1268
vn -0.8284 -0.2235 -0.5011
vn -0.8564 -0.2786 0.4716
vn -0.9304 0.2983 0.1685
vn -0.6672 0.5856 -0.5070
vn -0.2432 0.2838 -0.9845
vn -0.0193 -0.2859 -0.9531
vn -0.1283 -0.8131 -0.4447
vn -0.5320 -0.8018 0.2403
vn -0.2878 0.6022 0.6808
vn -0.1954 -0.1011 1.0171
vn 0.0340 0.9609 -0.1066
vn 0.5188 0.5846 -0.6846
vn 0.7746 -0.1151 -0.6279
vn 0.6679 -0.7101 -0.0166
vn 0.2080 -0.6942 0.7574
vn 0.8267 0.2422 0.4923
vn -0.2770 0.4117 -0.9329
vn -0.8220 -0.5199 -0.1268
vn -0.7909 0.4576 0.3462
vn 0.2555 0.9004 0.1486
vn 0.9185 0.1699 -0.3838
vn 0.2910 -0.7133 -0.5444
vn 0.1770 -0.5222 0.9044
vn -0.3357 -0.0513 0.9758
vn -0.9621 -0.0355 0.2826
vn -0.7159 -0.5815 0.4242
vn 0.0370 -0.7732 0.6974
vn 0.5736 -0.3107 0.8108
vn 0.5562 0.2683 0.7779
vn -0.0110 0.7167 0.6084
vn -0.7486 0.5072 0.3584
vn -0.5060 -0.6653 -0.4577
vn -0.8320 0.0050 -0.5728
vn 0.3484 -0.8682 -0.1636
vn 0.9456 -0.3116 0.0055
vn 0.9270 0.3606 -0.0339
vn 0.2930 0.9057 -0.2694
vn -0.5469 0.6802 -0.5370
vn 0.3119 0.0517 -0.9843
vn -0.8948 -0.4222 -0.0370
vn -0.9103 0.3857 0.0623
vn -0.7513 0.2465 -0.6546
vn -0.4225 -0.2402 -0.8723
vn -0.1537 -0.7798 -0.4961
vn -0.1432 -0.9316 0.3109
vn -0.4110 -0.5194 0.8149
vn -0.7310 0.0239 0.7008
vn -0.0409 0.7360 -0.7438
vn -0.2193 0.9182 0.1047
vn 0.3444 0.1265 -0.9729
vn 0.6745 -0.4679 -0.5211
vn 0.6914 -0.6311 0.3810
vn 0.3666 -0.1894 0.9590
vn -0.0199 0.4539 0.8590
vn 0.8807 0.4487 0.0336
vn -0.6072 0.5737 -0.6046
vn -0.6350 0.5581 0.4642
vn -0.0625 0.9293 0.1541
vn 0.3258 0.7935 -0.5635
vn 0.1497 0.3078 -0.9990
vn -0.3035 -0.0656 -0.9732
vn -0.8507 -0.2074 -0.4715
vn -0.9746 0.0930 0.1979
vn 0.4986 0.4511 0.7020
vn -0.1396 0.0728 1.0105
vn 0.9337 0.3412 -0.0867
vn 0.7484 -0.1581 -0.6453
vn 0.1858 -0.6753 -0.6342
vn -0.4484 -0.8553 0.0040
vn -0.5633 -0.4444 0.7556
vn 0.6090 -0.6160 0.5505
vn -0.8776 -0.2155 -0.4134
vn -0.9025 0.1684 0.3872
vn -0.7817 0.5759 -0.2430
vn -0.4179 0.4084 -0.8736
vn -0.1476 -0.1291 -0.9966
vn -0.1390 -0.7052 -0.6085
vn -0.4292 -0.8678 0.1322
vn -0.7562 -0.4234 0.5461
vn -0.0509 0.9382 0.1160
vn -0.2112 0.4300 0.8491
vn 0.3648 0.7328 -0.6328
vn 0.6686 0.0620 -0.7711
vn 0.6998 -0.6004 -0.2916
vn 0.3758 -0.7785 0.5510
vn -0.0258 -0.2770 1.0181
vn 0.8753 0.2332 0.4058
vn -0.8695 0.0124 -0.5108
vn -0.9000 -0.0307 0.4519
vn -0.7890 0.5547 0.1566
vn -0.4383 0.7574 -0.5302
vn -0.1469 0.3413 -0.9902
vn -0.1375 -0.2590 -0.9547
vn -0.4157 -0.7258 -0.4432
vn -0.7726 -0.5921 0.2249
vn -0.0532 0.6552 0.6806
vn -0.2045 -0.0472 1.0138
vn 0.3615 0.8964 -0.1083
vn 0.6799 0.4026 -0.6655
vn 0.6906 -0.3284 -0.6214
vn 0.3883 -0.8811 -0.0033
vn -0.0324 -0.7203 0.7621
vn 0.8722 -0.0114 0.5057
vn -0.5833 -0.1843 0.8347
vn 0.3941 0.6397 0.5834
vn -0.5629 0.7922 -0.1555
vn -0.8377 -0.1856 -0.5066
vn -0.0640 -0.9504 -0.0364
vn 0.7095 -0.4425 0.5994
vn 0.6423 0.2839 -0.7611
vn 0.3379 -0.1076 0.9759
vn 0.9337 0.0644 -0.3700
vn -0.0223 0.9543 0.0188
vn -0.9337 -0.0644 0.3700
vn 0.0223 -0.9543 -0.0188
vn -0.3379 0.1076 -0.9759
# 148 vertex normals

vt 0.0000 1.0000 0.0000
vt 0.0000 0.7143 0.0000
vt 0.1429 0.7143 0.0000
vt 0.1429 1.0000 0.0000
vt 0.2857 0.7143 0.0000
vt 0.2857 1.0000 0.0000
vt 0.4286 0.7143 0.0000
vt 0.4286 1.0000 0.0000
vt 0.5714 0.7143 0.0000
vt 0.5714 1.0000 0.0000
vt 0.7143 0.7143 0.0000
vt 0.7143 1.0000 0.0000
vt 0.8571 0.7143 0.0000
vt 0.8571 1.0000 0.0000
vt 1.0000 0.7143 0.0000
vt 0.1429 0.4286 0.0000
vt 0.0000 0.4286 0.0000
vt 0.2857 0.4286 0.0000
vt 0.4286 0.4286 0.0000
vt 0.5714 0.4286 0.0000
vt 0.7143 0.4286 0.0000
vt 0.8571 0.4286 0.0000
vt 1.0000 0.4286 0.0000
vt 0.0000 0.1429 0.0000
vt 0.1429 0.1429 0.0000
vt 0.2857 0.1429 0.0000
vt 0.4286 0.1429 0.0000
vt 0.5714 0.1429 0.0000
vt 0.7143 0.1429 0.0000
vt 0.8571 0.1429 0.0000
vt 0.0000 0.6000 0.0000
vt 0.2000 0.6000 0.0000
vt 0.2000 1.0000 0.0000
vt 0.4000 0.6000 0.0000
vt 0.4000 1.0000 0.0000
vt 0.6000 0.6000 0.0000
vt 0.6000 1.0000 0.0000
vt 0.8000 0.6000 0.0000
vt 0.8000 1.0000 0.0000
vt 1.0000 0.6000 0.0000
vt 0.0000 0.2000 0.0000
vt 0.2000 0.2000 0.0000
vt 0.4000 0.2000 0.0000
vt 0.6000 0.2000 0.0000
vt 0.8000 0.2000 0.0000
vt 0.0000 0.5000 0.0000
vt 0.2500 0.5000 0.0000
vt 0.2500 1.0000 0.0000
vt 0.5000 0.5000 0.0000
vt 0.5000 1.0000 0.0000
vt 0.7500 0.5000 0.0000
vt 0.7500 1.0000 0.0000
vt 1.0000 0.5000 0.0000
vt 0.0000 0.0000 0.0000
vt 0.2500 0.0000 0.0000
vt 0.5000 0.0000 0.0000
vt 0.7500 0.0000 0.0000
# 57 texture coords

o Sphere011
g Sphere011
usemtl Material__25
s 1
f 1/1/1 2/2/2 3/3/3 
f 1/4/1 3/3/3 4/5/4 
f 1/6/1 4/5/4 5/7/5 
f 1/8/1 5/7/5 6/9/6 
f 1/10/1 6/9/6 7/11/7 
f 1/12/1 7/11/7 8/13/8 
f 1/14/1 8/13/8 2/15/2 
f 9/16/9 3/3/3 2/2/2 
f 2/2/2 10/17/10 9/16/9 
f 11/18/11 4/5/4 3/3/3 
f 3/3/3 9/16/9 11/18/11 
f 12/19/12 5/7/5 4/5/4 
f 4/5/4 11/18/11 12/19/12 
f 13/20/13 6/9/6 5/7/5 
f 5/7/5 12/19/12 13/20/13 
f 14/21/14 7/11/7 6/9/6 
f 6/9/6 13/20/13 14/21/14 
f 15/22/15 8/13/8 7/11/7 
f 7/11/7 14/21/14 15/22/15 
f 10/23/10 2/15/2 8/13/8 
f 8/13/8 15/22/15 10/23/10 
f 16/24/16 9/16/9 10/17/10 
f 16/25/16 11/18/11 9/16/9 
f 16/26/16 12/19/12 11/18/11 
f 16/27/16 13/20/13 12/19/12 
f 16/28/16 14/21/14 13/20/13 
f 16/29/16 15/22/15 14/21/14 
f 16/30/16 10/23/10 15/22/15 
f 17/1/17 18/2/18 19/3/19 
f 17/4/17 19/3/19 20/5/20 
f 17/6/17 20/5/20 21/7/21 
f 17/8/17 21/7/21 22/9/22 
f 17/10/17 22/9/22 23/11/23 
f 17/12/17 23/11/23 24/13/24 
f 17/14/17 24/13/24 18/15/18 
f 25/16/25 19/3/19 18/2/18 
f 18/2/18 26/17/26 25/16/25 
f 27/18/27 20/5/20 19/3/19 
f 19/3/19 25/16/25 27/18/27 
f 28/19/28 21/7/21 20/5/20 
f 20/5/20 27/18/27 28/19/28 
f 29/20/29 22/9/22 21/7/21 
f 21/7/21 28/19/28 29/20/29 
f 30/21/30 23/11/23 22/9/22 
f 22/9/22 29/20/29 30/21/30 
f 31/22/31 24/13/24 23/11/23 
f 23/11/23 30/21/30 31/22/31 
f 26/23/26 18/15/18 24/13/24 
f 24/13/24 31/22/31 26/23/26 
f 32/24/32 25/16/25 26/17/26 
f 32/25/32 27/18/27 25/16/25 
f 32/26/32 28/19/28 27/18/27 
f 32/27/32 29/20/29 28/19/28 
f 32/28/32 30/21/30 29/20/29 
f 32/29/32 31/22/31 30/21/30 
f 32/30/32 26/23/26 31/22/31 
f 33/1/33 34/2/34 35/3/35 
f 33/4/33 35/3/35 36/5/36 
f 33/6/33 36/5/36 37/7/37 
f 33/8/33 37/7/37 38/9/38 
f 33/10/33 38/9/38 39/11/39 
f 33/12/33 39/11/39 40/13/40 
f 33/14/33 40/13/40 34/15/34 
f 41/16/41 35/3/35 34/2/34 
f 34/2/34 42/17/42 41/16/41 
f 43/18/43 36/5/36 35/3/35 
f 35/3/35 41/16/41 43/18/43 
f 44/19/44 37/7/37 36/5/36 
f 36/5/36 43/18/43 44/19/44 
f 45/20/45 38/9/38 37/7/37 
f 37/7/37 44/19/44 45/20/45 
f 46/21/46 39/11/39 38/9/38 
f 38/9/38 45/20/45 46/21/46 
f 47/22/47 40/13/40 39/11/39 
f 39/11/39 46/21/46 47/22/47 
f 42/23/42 34/15/34 40/13/40 
f 40/13/40 47/22/47 42/23/42 
f 48/24/48 41/16/41 42/17/42 
f 48/25/48 43/18/43 41/16/41 
f 48/26/48 44/19/44 43/18/43 
f 48/27/48 45/20/45 44/19/44 
f 48/28/48 46/21/46 45/20/45 
f 48/29/48 47/22/47 46/21/46 
f 48/30/48 42/23/42 47/22/47 
f 49/1/49 50/31/50 51/32/51 
f 49/33/49 51/32/51 52/34/52 
f 49/35/49 52/34/52 53/36/53 
f 49/37/49 53/36/53 54/38/54 
f 49/39/49 54/38/54 50/40/50 
f 55/41/55 51/32/51 50/31/50 
f 55/42/55 52/34/52 51/32/51 
f 55/43/55 53/36/53 52/34/52 
f 55/44/55 54/38/54 53/36/53 
f 55/45/55 50/40/50 54/38/54 
f 56/1/56 57/2/57 58/3/58 
f 56/4/56 58/3/58 59/5/59 
f 56/6/56 59/5/59 60/7/60 
f 56/8/56 60/7/60 61/9/61 
f 56/10/56 61/9/61 62/11/62 
f 56/12/56 62/11/62 63/13/63 
f 56/14/56 63/13/63 57/15/57 
f 64/16/64 58/3/58 57/2/57 
f 57/2/57 65/17/65 64/16/64 
f 66/18/66 59/5/59 58/3/58 
f 58/3/58 64/16/64 66/18/66 
f 67/19/67 60/7/60 59/5/59 
f 59/5/59 66/18/66 67/19/67 
f 68/20/68 61/9/61 60/7/60 
f 60/7/60 67/19/67 68/20/68 
f 69/21/69 62/11/62 61/9/61 
f 61/9/61 68/20/68 69/21/69 
f 70/22/70 63/13/63 62/11/62 
f 62/11/62 69/21/69 70/22/70 
f 65/23/65 57/15/57 63/13/63 
f 63/13/63 70/22/70 65/23/65 
f 71/24/71 64/16/64 65/17/65 
f 71/25/71 66/18/66 64/16/64 
f 71/26/71 67/19/67 66/18/66 
f 71/27/71 68/20/68 67/19/67 
f 71/28/71 69/21/69 68/20/68 
f 71/29/71 70/22/70 69/21/69 
f 71/30/71 65/23/65 70/22/70 
f 72/1/72 73/2/73 74/3/74 
f 72/4/72 74/3/74 75/5/75 
f 72/6/72 75/5/75 76/7/76 
f 72/8/72 76/7/76 77/9/77 
f 72/10/72 77/9/77 78/11/78 
f 72/12/72 78/11/78 79/13/79 
f 72/14/72 79/13/79 73/15/73 
f 80/16/80 74/3/74 73/2/73 
f 73/2/73 81/17/81 80/16/80 
f 82/18/82 75/5/75 74/3/74 
f 74/3/74 80/16/80 82/18/82 
f 83/19/83 76/7/76 75/5/75 
f 75/5/75 82/18/82 83/19/83 
f 84/20/84 77/9/77 76/7/76 
f 76/7/76 83/19/83 84/20/84 
f 85/21/85 78/11/78 77/9/77 
f 77/9/77 84/20/84 85/21/85 
f 86/22/86 79/13/79 78/11/78 
f 78/11/78 85/21/85 86/22/86 
f 81/23/81 73/15/73 79/13/79 
f 79/13/79 86/22/86 81/23/81 
f 87/24/87 80/16/80 81/17/81 
f 87/25/87 82/18/82 80/16/80 
f 87/26/87 83/19/83 82/18/82 
f 87/27/87 84/20/84 83/19/83 
f 87/28/87 85/21/85 84/20/84 
f 87/29/87 86/22/86 85/21/85 
f 87/30/87 81/23/81 86/22/86 
f 88/1/88 89/2/89 90/3/90 
f 88/4/88 90/3/90 91/5/91 
f 88/6/88 91/5/91 92/7/92 
f 88/8/88 92/7/92 93/9/93 
f 88/10/88 93/9/93 94/11/94 
f 88/12/88 94/11/94 95/13/95 
f 88/14/88 95/13/95 89/15/89 
f 96/16/96 90/3/90 89/2/89 
f 89/2/89 97/17/97 96/16/96 
f 98/18/98 91/5/91 90/3/90 
f 90/3/90 96/16/96 98/18/98 
f 99/19/99 92/7/92 91/5/91 
f 91/5/91 98/18/98 99/19/99 
f 100/20/100 93/9/93 92/7/92 
f 92/7/92 99/19/99 100/20/100 
f 101/21/101 94/11/94 93/9/93 
f 93/9/93 100/20/100 101/21/101 
f 102/22/102 95/13/95 94/11/94 
f 94/11/94 101/21/101 102/22/102 
f 97/23/97 89/15/89 95/13/95 
f 95/13/95 102/22/102 97/23/97 
f 103/24/103 96/16/96 97/17/97 
f 103/25/103 98/18/98 96/16/96 
f 103/26/103 99/19/99 98/18/98 
f 103/27/103 100/20/100 99/19/99 
f 103/28/103 101/21/101 100/20/100 
f 103/29/103 102/22/102 101/21/101 
f 103/30/103 97/23/97 102/22/102 
f 104/1/104 105/2/105 106/3/106 
f 104/4/104 106/3/106 107/5/107 
f 104/6/104 107/5/107 108/7/108 
f 104/8/104 108/7/108 109/9/109 
f 104/10/104 109/9/109 110/11/110 
f 104/12/104 110/11/110 111/13/111 
f 104/14/104 111/13/111 105/15/105 
f 112/16/112 106/3/106 105/2/105 
f 105/2/105 113/17/113 112/16/112 
f 114/18/114 107/5/107 106/3/106 
f 106/3/106 112/16/112 114/18/114 
f 115/19/115 108/7/108 107/5/107 
f 107/5/107 114/18/114 115/19/115 
f 116/20/116 109/9/109 108/7/108 
f 108/7/108 115/19/115 116/20/116 
f 117/21/117 110/11/110 109/9/109 
f 109/9/109 116/20/116 117/21/117 
f 118/22/118 111/13/111 110/11/110 
f 110/11/110 117/21/117 118/22/118 
f 113/23/113 105/15/105 111/13/111 
f 111/13/111 118/22/118 113/23/113 
f 119/24/119 112/16/112 113/17/113 
f 119/25/119 114/18/114 112/16/112 
f 119/26/119 115/19/115 114/18/114 
f 119/27/119 116/20/116 115/19/115 
f 119/28/119 117/21/117 116/20/116 
f 119/29/119 118/22/118 117/21/117 
f 119/30/119 113/23/113 118/22/118 
f 120/1/120 121/2/121 122/3/122 
f 120/4/120 122/3/122 123/5/123 
f 120/6/120 123/5/123 124/7/124 
f 120/8/120 124/7/124 125/9/125 
f 120/10/120 125/9/125 126/11/126 
f 120/12/120 126/11/126 127/13/127 
f 120/14/120 127/13/127 121/15/121 
f 128/16/128 122/3/122 121/2/121 
f 121/2/121 129/17/129 128/16/128 
f 130/18/130 123/5/123 122/3/122 
f 122/3/122 128/16/128 130/18/130 
f 131/19/131 124/7/124 123/5/123 
f 123/5/123 130/18/130 131/19/131 
f 132/20/132 125/9/125 124/7/124 
f 124/7/124 131/19/131 132/20/132 
f 133/21/133 126/11/126 125/9/125 
f 125/9/125 132/20/132 133/21/133 
f 134/22/134 127/13/127 126/11/126 
f 126/11/126 133/21/133 134/22/134 
f 129/23/129 121/15/121 127/13/127 
f 127/13/127 134/22/134 129/23/129 
f 135/24/135 128/16/128 129/17/129 
f 135/25/135 130/18/130 128/16/128 
f 135/26/135 131/19/131 130/18/130 
f 135/27/135 132/20/132 131/19/131 
f 135/28/135 133/21/133 132/20/132 
f 135/29/135 134/22/134 133/21/133 
f 135/30/135 129/23/129 134/22/134 
f 136/1/136 137/31/137 138/32/138 
f 136/33/136 138/32/138 139/34/139 
f 136/35/136 139/34/139 140/36/140 
f 136/37/136 140/36/140 141/38/141 
f 136/39/136 141/38/141 137/40/137 
f 142/41/142 138/32/138 137/31/137 
f 142/42/142 139/34/139 138/32/138 
f 142/43/142 140/36/140 139/34/139 
f 142/44/142 141/38/141 140/36/140 
f 142/45/142 137/40/137 141/38/141 
f 143/1/143 144/46/144 145/47/145 
f 143/48/143 145/47/145 146/49/146 
f 143/50/143 146/49/146 147/51/147 
f 143/52/143 147/51/147 144/53/144 
f 148/54/148 145/47/145 144/46/144 
f 148/55/148 146/49/146 145/47/145 
f 148/56/148 147/51/147 146/49/146 
f 148/57/148 144/53/144 147/51/147 
# 252 faces

