# 3ds Max Wavefront OBJ Exporter v0.97b - (c)2007 guruware
# File Created: 18.03.2019 10:07:58

mtllib stone_effect2.mtl

#
# object Sphere011
#

v  0.0000 53.4580 41.8459
v  -0.0000 72.4908 37.3151
v  -15.5744 66.8231 35.6678
v  -19.4210 54.0878 31.9663
v  -8.6431 43.3529 29.2077
v  8.6432 43.3529 29.2077
v  19.4210 54.0878 31.9663
v  15.5744 66.8231 35.6678
v  -19.4210 78.0830 16.3299
v  -0.0000 85.1506 18.3841
v  -24.2176 61.9209 11.8273
v  -10.7778 46.8830 9.0508
v  10.7778 46.8830 9.0508
v  24.2176 61.9209 11.8273
v  19.4210 78.0830 16.3299
v  0.0000 73.7231 -5.1113
v  3.7119 46.9348 32.2055
v  3.0146 39.3175 40.7639
v  4.8161 46.8847 43.6218
v  9.0893 53.3051 39.2794
v  12.6164 53.7440 31.0065
v  12.7415 47.8709 25.0329
v  9.3703 40.1084 25.8568
v  5.0415 36.3018 32.8577
v  13.8620 43.7263 50.1502
v  11.6156 34.2901 46.5864
v  19.1906 51.7324 44.7352
v  23.5889 52.2797 34.4192
v  23.7448 44.9561 26.9702
v  19.5410 35.2764 27.9975
v  14.1430 30.5296 36.7276
v  27.0133 38.5790 42.0558
v  30.3703 6.5802 -13.4200
v  29.8241 5.3829 8.6499
v  17.3196 15.0580 2.1006
v  17.2300 24.0210 -12.6154
v  29.6227 25.5225 -24.4167
v  45.1658 18.4318 -24.4167
v  52.1550 8.0885 -12.6154
v  45.3273 2.2812 2.1006
v  20.9685 32.2159 15.2845
v  36.5613 20.1513 23.4513
v  20.8567 43.3926 -3.0660
v  36.3102 45.2649 -17.7820
v  55.6921 37.0846 -17.7820
v  64.4075 23.7827 -3.0660
v  55.8935 16.2835 15.2845
v  48.6224 47.3582 11.4150
v  18.9823 13.5148 18.0237
v  20.7274 3.5647 46.0338
v  1.9576 21.7916 39.1131
v  12.7446 35.0001 18.6129
v  38.1812 24.9366 12.8639
v  43.1148 6.3459 29.4745
v  31.6101 26.7601 50.7049
v  -29.8277 32.4393 24.9846
v  -37.2012 43.7797 9.2605
v  -46.2991 29.8961 11.6390
v  -41.9695 16.9219 16.9833
v  -27.4726 14.4244 21.2692
v  -13.7250 24.0260 21.2692
v  -11.0788 38.4964 16.9833
v  -21.5267 46.9392 11.6390
v  -47.6468 25.0508 -10.4710
v  -36.3019 42.2591 -13.4369
v  -42.2479 9.1944 -3.8067
v  -24.1706 6.0801 1.5376
v  -7.0276 18.0531 1.5376
v  -3.7278 36.0974 -3.8067
v  -16.7562 46.6254 -10.4710
v  -22.6026 22.0942 -24.9846
v  -34.1365 16.3649 -48.4419
v  -35.4679 25.3018 -28.4700
v  -32.0282 37.4725 -41.4293
v  -23.8687 33.6791 -55.8888
v  -17.1338 18.6499 -61.7121
v  -16.8949 3.7021 -54.5142
v  -23.3320 -1.0544 -39.2548
v  -31.5978 8.5964 -27.6793
v  -14.7555 46.1267 -31.1133
v  -19.0448 31.8504 -15.3150
v  -4.5808 42.7417 -49.6845
v  3.8175 24.0006 -56.9461
v  4.1153 4.8095 -47.7489
v  -3.9116 -1.0553 -28.9173
v  -14.2188 10.8405 -15.0150
v  10.3562 27.0541 -26.2657
v  -17.3542 31.4258 -34.1314
v  -17.8183 31.9170 -24.9549
v  -10.7995 35.9963 -27.6780
v  -6.5182 34.3071 -33.7968
v  -8.1984 28.1214 -38.7037
v  -14.5748 22.0972 -38.7037
v  -20.8459 20.7708 -33.7968
v  -22.2893 25.1410 -27.6780
v  -3.3420 30.9452 -22.1962
v  -12.0943 25.8584 -18.8006
v  1.9966 28.8389 -29.8263
v  -0.0986 21.1255 -35.9451
v  -8.0498 13.6134 -35.9451
v  -15.8697 11.9593 -29.8263
v  -17.6696 17.4089 -22.1962
v  -1.8471 15.0122 -23.8052
v  -6.4452 60.8801 -21.8270
v  -7.1425 60.5193 -10.1661
v  -5.3410 68.8785 -13.3780
v  -1.0678 71.2048 -21.0906
v  2.4593 65.7464 -27.4961
v  2.5844 56.6136 -27.7710
v  -0.7868 50.6836 -21.7084
v  -5.1157 52.4218 -13.8734
v  3.7048 70.8275 -6.3470
v  1.4585 60.4038 -2.3418
v  9.0335 73.7283 -15.9644
v  13.4317 66.9218 -23.9519
v  13.5877 55.5334 -24.2947
v  9.3839 48.1389 -16.7348
v  3.9859 50.3064 -6.9648
v  16.8561 60.8099 -8.6950
v  -9.2160 36.5135 -46.6199
v  -9.9133 36.5039 -35.0617
v  -8.1119 44.6861 -38.4916
v  -3.8387 46.7598 -46.1985
v  -0.3115 41.1635 -52.3790
v  -0.1864 32.1114 -52.3790
v  -3.5576 26.4198 -46.1985
v  -7.8865 28.3746 -38.4916
v  0.9340 46.8257 -31.5870
v  -1.3124 36.6227 -27.3100
v  6.2626 49.4116 -41.1974
v  10.6609 42.4332 -48.9043
v  10.8169 31.1453 -48.9043
v  6.6131 24.0480 -41.1974
v  1.2151 26.4857 -31.5870
v  14.0853 36.8355 -33.6136
v  23.3850 16.8929 -46.6211
v  24.9749 32.1389 -22.5257
v  3.8842 35.6990 -38.8187
v  13.9978 30.8164 -62.2781
v  41.9025 22.7843 -58.6410
v  48.1233 25.6275 -34.3298
v  32.2965 53.9746 -36.9771
v  55.3148 29.2652 -24.7384
v  54.0612 37.5670 -36.3098
v  44.1481 36.0583 -28.0993
v  46.3701 23.9733 -30.1898
v  56.2832 24.9689 -38.1942
v  45.1165 31.8074 -41.5733
# 148 vertices

vn -0.0000 -0.3097 1.0108
vn -0.0000 0.4984 0.8272
vn -0.6124 0.2601 0.7376
vn -0.8130 -0.3405 0.5145
vn -0.3676 -0.8612 0.3534
vn 0.3766 -0.8588 0.3482
vn 0.8155 -0.3492 0.5034
vn 0.6122 0.2602 0.7377
vn -0.7475 0.6386 -0.0854
vn -0.0000 0.9519 0.0406
vn -0.9289 -0.0709 -0.3665
vn -0.4105 -0.6601 -0.5462
vn 0.4191 -0.6607 -0.5391
vn 0.9291 -0.0770 -0.3641
vn 0.7474 0.6386 -0.0854
vn 0.0000 0.3614 -0.9959
vn -0.8802 0.3077 -0.3956
vn -0.9034 -0.2900 0.3466
vn -0.7538 0.2920 0.5689
vn -0.4384 0.8136 0.2228
vn -0.1471 0.8713 -0.5052
vn -0.1363 0.3699 -0.9826
vn -0.3892 -0.2172 -0.8973
vn -0.7418 -0.5333 -0.3300
vn -0.0433 0.0399 1.0254
vn -0.2155 -0.6611 0.7883
vn 0.3408 0.6313 0.6245
vn 0.6797 0.6963 -0.1975
vn 0.6776 0.1354 -0.7596
vn 0.3771 -0.5634 -0.6777
vn -0.0237 -0.9564 0.0022
vn 0.8758 -0.3238 0.3926
vn -0.3855 -0.7060 -0.4985
vn -0.3971 -0.7800 0.5290
vn -0.9072 -0.3747 0.2050
vn -0.9005 -0.0097 -0.4475
vn -0.3746 0.0685 -0.9612
vn 0.2735 -0.1954 -0.9483
vn 0.5851 -0.6196 -0.4395
vn 0.2949 -0.9091 0.2432
vn -0.7002 0.2121 0.6771
vn -0.0959 -0.2195 1.0237
vn -0.7276 0.6595 -0.0849
vn -0.1093 0.7603 -0.7054
vn 0.6618 0.4356 -0.6643
vn 0.9972 -0.0506 -0.0498
vn 0.6688 -0.3481 0.7083
vn 0.3585 0.7400 0.4633
vn -0.3963 -0.4898 -0.7339
vn -0.2065 -0.8104 0.6022
vn -0.9505 0.0596 0.3074
vn -0.4303 0.7568 -0.5396
vn 0.6134 0.3347 -0.7683
vn 0.7690 -0.6012 -0.0705
vn 0.3733 0.4325 0.7893
vn -0.1945 0.1943 0.9688
vn -0.5797 0.7212 0.2489
vn -0.9083 0.1760 0.3685
vn -0.6747 -0.4439 0.6431
vn 0.0556 -0.6394 0.8390
vn 0.6132 -0.2618 0.7938
vn 0.6701 0.3794 0.6067
vn 0.1309 0.8570 0.3532
vn -0.8887 0.0070 -0.4737
vn -0.4982 0.6570 -0.6232
vn -0.6046 -0.7263 -0.1805
vn 0.2330 -0.9336 0.0476
vn 0.8674 -0.4771 0.0137
vn 0.9444 0.2572 -0.2254
vn 0.3322 0.8089 -0.5294
vn 0.1830 -0.1985 -0.9697
vn -0.8726 -0.1623 -0.4548
vn -0.9003 0.1193 0.4173
vn -0.7760 0.5998 -0.1621
vn -0.4096 0.4702 -0.8464
vn -0.1452 -0.0371 -1.0158
vn -0.1409 -0.6160 -0.7106
vn -0.4296 -0.8640 0.0031
vn -0.7579 -0.4751 0.4919
vn -0.0438 0.8982 0.2662
vn -0.2054 0.3183 0.9149
vn 0.3729 0.7855 -0.5407
vn 0.6684 0.1346 -0.7685
vn 0.6980 -0.5537 -0.3780
vn 0.3761 -0.8283 0.4434
vn -0.0244 -0.3892 0.9860
vn 0.8730 0.1777 0.4459
vn -0.6072 0.5737 -0.6046
vn -0.6350 0.5581 0.4642
vn -0.0625 0.9293 0.1541
vn 0.3258 0.7935 -0.5635
vn 0.1497 0.3078 -0.9990
vn -0.3035 -0.0656 -0.9732
vn -0.8507 -0.2074 -0.4715
vn -0.9746 0.0930 0.1979
vn 0.4986 0.4511 0.7020
vn -0.1396 0.0728 1.0105
vn 0.9337 0.3412 -0.0867
vn 0.7484 -0.1581 -0.6453
vn 0.1858 -0.6753 -0.6342
vn -0.4484 -0.8553 0.0040
vn -0.5633 -0.4444 0.7556
vn 0.6090 -0.6160 0.5505
vn -0.8706 0.0248 -0.5096
vn -0.9009 -0.0411 0.4502
vn -0.7902 0.5465 0.1763
vn -0.4410 0.7693 -0.5046
vn -0.1480 0.3653 -0.9823
vn -0.1385 -0.2336 -0.9646
vn -0.4161 -0.7092 -0.4703
vn -0.7743 -0.5947 0.2039
vn -0.0528 0.6331 0.7046
vn -0.2049 -0.0726 1.0147
vn 0.3615 0.8963 -0.0772
vn 0.6817 0.4180 -0.6533
vn 0.6908 -0.3105 -0.6330
vn 0.3894 -0.8772 -0.0342
vn -0.0324 -0.7395 0.7401
vn 0.8725 -0.0248 0.5061
vn -0.8695 0.0124 -0.5108
vn -0.9000 -0.0307 0.4519
vn -0.7890 0.5547 0.1566
vn -0.4383 0.7574 -0.5302
vn -0.1469 0.3413 -0.9902
vn -0.1375 -0.2590 -0.9547
vn -0.4157 -0.7258 -0.4432
vn -0.7726 -0.5921 0.2249
vn -0.0532 0.6552 0.6806
vn -0.2045 -0.0472 1.0138
vn 0.3615 0.8964 -0.1083
vn 0.6799 0.4026 -0.6655
vn 0.6906 -0.3284 -0.6214
vn 0.3883 -0.8811 -0.0033
vn -0.0324 -0.7203 0.7621
vn 0.8722 -0.0114 0.5057
vn -0.2675 -0.9255 0.0572
vn -0.1327 -0.1777 1.0242
vn -0.9701 0.1144 0.2058
vn -0.5027 0.0495 -0.8957
vn 0.6147 -0.3092 -0.7088
vn 0.8558 -0.3247 0.4402
vn 0.2240 0.9236 0.0679
vn 0.5534 -0.1390 0.8615
vn 0.4874 0.8039 -0.3485
vn -0.6256 0.5459 0.4916
vn -0.5073 -0.7932 0.3448
vn 0.6159 -0.5651 -0.4788
vn -0.5612 0.1208 -0.8573
# 148 vertex normals

vt 0.0000 1.0000 0.0000
vt 0.0000 0.7143 0.0000
vt 0.1429 0.7143 0.0000
vt 0.1429 1.0000 0.0000
vt 0.2857 0.7143 0.0000
vt 0.2857 1.0000 0.0000
vt 0.4286 0.7143 0.0000
vt 0.4286 1.0000 0.0000
vt 0.5714 0.7143 0.0000
vt 0.5714 1.0000 0.0000
vt 0.7143 0.7143 0.0000
vt 0.7143 1.0000 0.0000
vt 0.8571 0.7143 0.0000
vt 0.8571 1.0000 0.0000
vt 1.0000 0.7143 0.0000
vt 0.1429 0.4286 0.0000
vt 0.0000 0.4286 0.0000
vt 0.2857 0.4286 0.0000
vt 0.4286 0.4286 0.0000
vt 0.5714 0.4286 0.0000
vt 0.7143 0.4286 0.0000
vt 0.8571 0.4286 0.0000
vt 1.0000 0.4286 0.0000
vt 0.0000 0.1429 0.0000
vt 0.1429 0.1429 0.0000
vt 0.2857 0.1429 0.0000
vt 0.4286 0.1429 0.0000
vt 0.5714 0.1429 0.0000
vt 0.7143 0.1429 0.0000
vt 0.8571 0.1429 0.0000
vt 0.0000 0.6000 0.0000
vt 0.2000 0.6000 0.0000
vt 0.2000 1.0000 0.0000
vt 0.4000 0.6000 0.0000
vt 0.4000 1.0000 0.0000
vt 0.6000 0.6000 0.0000
vt 0.6000 1.0000 0.0000
vt 0.8000 0.6000 0.0000
vt 0.8000 1.0000 0.0000
vt 1.0000 0.6000 0.0000
vt 0.0000 0.2000 0.0000
vt 0.2000 0.2000 0.0000
vt 0.4000 0.2000 0.0000
vt 0.6000 0.2000 0.0000
vt 0.8000 0.2000 0.0000
vt 0.0000 0.5000 0.0000
vt 0.2500 0.5000 0.0000
vt 0.2500 1.0000 0.0000
vt 0.5000 0.5000 0.0000
vt 0.5000 1.0000 0.0000
vt 0.7500 0.5000 0.0000
vt 0.7500 1.0000 0.0000
vt 1.0000 0.5000 0.0000
vt 0.0000 0.0000 0.0000
vt 0.2500 0.0000 0.0000
vt 0.5000 0.0000 0.0000
vt 0.7500 0.0000 0.0000
# 57 texture coords

o Sphere011
g Sphere011
usemtl Material__25
s 1
f 1/1/1 2/2/2 3/3/3 
f 1/4/1 3/3/3 4/5/4 
f 1/6/1 4/5/4 5/7/5 
f 1/8/1 5/7/5 6/9/6 
f 1/10/1 6/9/6 7/11/7 
f 1/12/1 7/11/7 8/13/8 
f 1/14/1 8/13/8 2/15/2 
f 9/16/9 3/3/3 2/2/2 
f 2/2/2 10/17/10 9/16/9 
f 11/18/11 4/5/4 3/3/3 
f 3/3/3 9/16/9 11/18/11 
f 12/19/12 5/7/5 4/5/4 
f 4/5/4 11/18/11 12/19/12 
f 13/20/13 6/9/6 5/7/5 
f 5/7/5 12/19/12 13/20/13 
f 14/21/14 7/11/7 6/9/6 
f 6/9/6 13/20/13 14/21/14 
f 15/22/15 8/13/8 7/11/7 
f 7/11/7 14/21/14 15/22/15 
f 10/23/10 2/15/2 8/13/8 
f 8/13/8 15/22/15 10/23/10 
f 16/24/16 9/16/9 10/17/10 
f 16/25/16 11/18/11 9/16/9 
f 16/26/16 12/19/12 11/18/11 
f 16/27/16 13/20/13 12/19/12 
f 16/28/16 14/21/14 13/20/13 
f 16/29/16 15/22/15 14/21/14 
f 16/30/16 10/23/10 15/22/15 
f 17/1/17 18/2/18 19/3/19 
f 17/4/17 19/3/19 20/5/20 
f 17/6/17 20/5/20 21/7/21 
f 17/8/17 21/7/21 22/9/22 
f 17/10/17 22/9/22 23/11/23 
f 17/12/17 23/11/23 24/13/24 
f 17/14/17 24/13/24 18/15/18 
f 25/16/25 19/3/19 18/2/18 
f 18/2/18 26/17/26 25/16/25 
f 27/18/27 20/5/20 19/3/19 
f 19/3/19 25/16/25 27/18/27 
f 28/19/28 21/7/21 20/5/20 
f 20/5/20 27/18/27 28/19/28 
f 29/20/29 22/9/22 21/7/21 
f 21/7/21 28/19/28 29/20/29 
f 30/21/30 23/11/23 22/9/22 
f 22/9/22 29/20/29 30/21/30 
f 31/22/31 24/13/24 23/11/23 
f 23/11/23 30/21/30 31/22/31 
f 26/23/26 18/15/18 24/13/24 
f 24/13/24 31/22/31 26/23/26 
f 32/24/32 25/16/25 26/17/26 
f 32/25/32 27/18/27 25/16/25 
f 32/26/32 28/19/28 27/18/27 
f 32/27/32 29/20/29 28/19/28 
f 32/28/32 30/21/30 29/20/29 
f 32/29/32 31/22/31 30/21/30 
f 32/30/32 26/23/26 31/22/31 
f 33/1/33 34/2/34 35/3/35 
f 33/4/33 35/3/35 36/5/36 
f 33/6/33 36/5/36 37/7/37 
f 33/8/33 37/7/37 38/9/38 
f 33/10/33 38/9/38 39/11/39 
f 33/12/33 39/11/39 40/13/40 
f 33/14/33 40/13/40 34/15/34 
f 41/16/41 35/3/35 34/2/34 
f 34/2/34 42/17/42 41/16/41 
f 43/18/43 36/5/36 35/3/35 
f 35/3/35 41/16/41 43/18/43 
f 44/19/44 37/7/37 36/5/36 
f 36/5/36 43/18/43 44/19/44 
f 45/20/45 38/9/38 37/7/37 
f 37/7/37 44/19/44 45/20/45 
f 46/21/46 39/11/39 38/9/38 
f 38/9/38 45/20/45 46/21/46 
f 47/22/47 40/13/40 39/11/39 
f 39/11/39 46/21/46 47/22/47 
f 42/23/42 34/15/34 40/13/40 
f 40/13/40 47/22/47 42/23/42 
f 48/24/48 41/16/41 42/17/42 
f 48/25/48 43/18/43 41/16/41 
f 48/26/48 44/19/44 43/18/43 
f 48/27/48 45/20/45 44/19/44 
f 48/28/48 46/21/46 45/20/45 
f 48/29/48 47/22/47 46/21/46 
f 48/30/48 42/23/42 47/22/47 
f 49/1/49 50/31/50 51/32/51 
f 49/33/49 51/32/51 52/34/52 
f 49/35/49 52/34/52 53/36/53 
f 49/37/49 53/36/53 54/38/54 
f 49/39/49 54/38/54 50/40/50 
f 55/41/55 51/32/51 50/31/50 
f 55/42/55 52/34/52 51/32/51 
f 55/43/55 53/36/53 52/34/52 
f 55/44/55 54/38/54 53/36/53 
f 55/45/55 50/40/50 54/38/54 
f 56/1/56 57/2/57 58/3/58 
f 56/4/56 58/3/58 59/5/59 
f 56/6/56 59/5/59 60/7/60 
f 56/8/56 60/7/60 61/9/61 
f 56/10/56 61/9/61 62/11/62 
f 56/12/56 62/11/62 63/13/63 
f 56/14/56 63/13/63 57/15/57 
f 64/16/64 58/3/58 57/2/57 
f 57/2/57 65/17/65 64/16/64 
f 66/18/66 59/5/59 58/3/58 
f 58/3/58 64/16/64 66/18/66 
f 67/19/67 60/7/60 59/5/59 
f 59/5/59 66/18/66 67/19/67 
f 68/20/68 61/9/61 60/7/60 
f 60/7/60 67/19/67 68/20/68 
f 69/21/69 62/11/62 61/9/61 
f 61/9/61 68/20/68 69/21/69 
f 70/22/70 63/13/63 62/11/62 
f 62/11/62 69/21/69 70/22/70 
f 65/23/65 57/15/57 63/13/63 
f 63/13/63 70/22/70 65/23/65 
f 71/24/71 64/16/64 65/17/65 
f 71/25/71 66/18/66 64/16/64 
f 71/26/71 67/19/67 66/18/66 
f 71/27/71 68/20/68 67/19/67 
f 71/28/71 69/21/69 68/20/68 
f 71/29/71 70/22/70 69/21/69 
f 71/30/71 65/23/65 70/22/70 
f 72/1/72 73/2/73 74/3/74 
f 72/4/72 74/3/74 75/5/75 
f 72/6/72 75/5/75 76/7/76 
f 72/8/72 76/7/76 77/9/77 
f 72/10/72 77/9/77 78/11/78 
f 72/12/72 78/11/78 79/13/79 
f 72/14/72 79/13/79 73/15/73 
f 80/16/80 74/3/74 73/2/73 
f 73/2/73 81/17/81 80/16/80 
f 82/18/82 75/5/75 74/3/74 
f 74/3/74 80/16/80 82/18/82 
f 83/19/83 76/7/76 75/5/75 
f 75/5/75 82/18/82 83/19/83 
f 84/20/84 77/9/77 76/7/76 
f 76/7/76 83/19/83 84/20/84 
f 85/21/85 78/11/78 77/9/77 
f 77/9/77 84/20/84 85/21/85 
f 86/22/86 79/13/79 78/11/78 
f 78/11/78 85/21/85 86/22/86 
f 81/23/81 73/15/73 79/13/79 
f 79/13/79 86/22/86 81/23/81 
f 87/24/87 80/16/80 81/17/81 
f 87/25/87 82/18/82 80/16/80 
f 87/26/87 83/19/83 82/18/82 
f 87/27/87 84/20/84 83/19/83 
f 87/28/87 85/21/85 84/20/84 
f 87/29/87 86/22/86 85/21/85 
f 87/30/87 81/23/81 86/22/86 
f 88/1/88 89/2/89 90/3/90 
f 88/4/88 90/3/90 91/5/91 
f 88/6/88 91/5/91 92/7/92 
f 88/8/88 92/7/92 93/9/93 
f 88/10/88 93/9/93 94/11/94 
f 88/12/88 94/11/94 95/13/95 
f 88/14/88 95/13/95 89/15/89 
f 96/16/96 90/3/90 89/2/89 
f 89/2/89 97/17/97 96/16/96 
f 98/18/98 91/5/91 90/3/90 
f 90/3/90 96/16/96 98/18/98 
f 99/19/99 92/7/92 91/5/91 
f 91/5/91 98/18/98 99/19/99 
f 100/20/100 93/9/93 92/7/92 
f 92/7/92 99/19/99 100/20/100 
f 101/21/101 94/11/94 93/9/93 
f 93/9/93 100/20/100 101/21/101 
f 102/22/102 95/13/95 94/11/94 
f 94/11/94 101/21/101 102/22/102 
f 97/23/97 89/15/89 95/13/95 
f 95/13/95 102/22/102 97/23/97 
f 103/24/103 96/16/96 97/17/97 
f 103/25/103 98/18/98 96/16/96 
f 103/26/103 99/19/99 98/18/98 
f 103/27/103 100/20/100 99/19/99 
f 103/28/103 101/21/101 100/20/100 
f 103/29/103 102/22/102 101/21/101 
f 103/30/103 97/23/97 102/22/102 
f 104/1/104 105/2/105 106/3/106 
f 104/4/104 106/3/106 107/5/107 
f 104/6/104 107/5/107 108/7/108 
f 104/8/104 108/7/108 109/9/109 
f 104/10/104 109/9/109 110/11/110 
f 104/12/104 110/11/110 111/13/111 
f 104/14/104 111/13/111 105/15/105 
f 112/16/112 106/3/106 105/2/105 
f 105/2/105 113/17/113 112/16/112 
f 114/18/114 107/5/107 106/3/106 
f 106/3/106 112/16/112 114/18/114 
f 115/19/115 108/7/108 107/5/107 
f 107/5/107 114/18/114 115/19/115 
f 116/20/116 109/9/109 108/7/108 
f 108/7/108 115/19/115 116/20/116 
f 117/21/117 110/11/110 109/9/109 
f 109/9/109 116/20/116 117/21/117 
f 118/22/118 111/13/111 110/11/110 
f 110/11/110 117/21/117 118/22/118 
f 113/23/113 105/15/105 111/13/111 
f 111/13/111 118/22/118 113/23/113 
f 119/24/119 112/16/112 113/17/113 
f 119/25/119 114/18/114 112/16/112 
f 119/26/119 115/19/115 114/18/114 
f 119/27/119 116/20/116 115/19/115 
f 119/28/119 117/21/117 116/20/116 
f 119/29/119 118/22/118 117/21/117 
f 119/30/119 113/23/113 118/22/118 
f 120/1/120 121/2/121 122/3/122 
f 120/4/120 122/3/122 123/5/123 
f 120/6/120 123/5/123 124/7/124 
f 120/8/120 124/7/124 125/9/125 
f 120/10/120 125/9/125 126/11/126 
f 120/12/120 126/11/126 127/13/127 
f 120/14/120 127/13/127 121/15/121 
f 128/16/128 122/3/122 121/2/121 
f 121/2/121 129/17/129 128/16/128 
f 130/18/130 123/5/123 122/3/122 
f 122/3/122 128/16/128 130/18/130 
f 131/19/131 124/7/124 123/5/123 
f 123/5/123 130/18/130 131/19/131 
f 132/20/132 125/9/125 124/7/124 
f 124/7/124 131/19/131 132/20/132 
f 133/21/133 126/11/126 125/9/125 
f 125/9/125 132/20/132 133/21/133 
f 134/22/134 127/13/127 126/11/126 
f 126/11/126 133/21/133 134/22/134 
f 129/23/129 121/15/121 127/13/127 
f 127/13/127 134/22/134 129/23/129 
f 135/24/135 128/16/128 129/17/129 
f 135/25/135 130/18/130 128/16/128 
f 135/26/135 131/19/131 130/18/130 
f 135/27/135 132/20/132 131/19/131 
f 135/28/135 133/21/133 132/20/132 
f 135/29/135 134/22/134 133/21/133 
f 135/30/135 129/23/129 134/22/134 
f 136/1/136 137/31/137 138/32/138 
f 136/33/136 138/32/138 139/34/139 
f 136/35/136 139/34/139 140/36/140 
f 136/37/136 140/36/140 141/38/141 
f 136/39/136 141/38/141 137/40/137 
f 142/41/142 138/32/138 137/31/137 
f 142/42/142 139/34/139 138/32/138 
f 142/43/142 140/36/140 139/34/139 
f 142/44/142 141/38/141 140/36/140 
f 142/45/142 137/40/137 141/38/141 
f 143/1/143 144/46/144 145/47/145 
f 143/48/143 145/47/145 146/49/146 
f 143/50/143 146/49/146 147/51/147 
f 143/52/143 147/51/147 144/53/144 
f 148/54/148 145/47/145 144/46/144 
f 148/55/148 146/49/146 145/47/145 
f 148/56/148 147/51/147 146/49/146 
f 148/57/148 144/53/144 147/51/147 
# 252 faces

