# 3ds Max Wavefront OBJ Exporter v0.97b - (c)2007 guruware
# File Created: 18.03.2019 10:07:57

mtllib stone_effect0.mtl

#
# object Sphere011
#

v  0.0000 41.7515 27.6625
v  -0.0000 56.0341 13.7862
v  -15.5744 50.1742 15.4710
v  -19.4210 37.0071 19.2567
v  -8.6431 26.2739 22.3626
v  8.6432 26.2739 22.3626
v  19.4210 37.0071 19.2567
v  15.5744 50.1742 15.4710
v  -19.4210 49.6922 -6.3431
v  -0.0000 56.9994 -8.4440
v  -24.2176 33.1793 -1.5847
v  -10.7778 19.2447 2.5094
v  10.7778 19.2447 2.5094
v  24.2176 33.1793 -1.5847
v  19.4210 49.6922 -6.3431
v  0.0000 34.6550 -22.1608
v  3.7119 28.6105 12.4056
v  3.0146 27.2307 23.5568
v  4.8161 35.2809 21.2216
v  9.0893 38.1321 14.0322
v  12.6164 33.6373 7.4024
v  12.7415 25.1813 6.3246
v  9.3703 19.1315 11.6103
v  5.0415 20.0436 19.2794
v  13.8620 36.4608 28.1385
v  11.6156 26.4224 31.0504
v  19.1906 40.0162 19.1735
v  23.5889 34.4113 10.9062
v  23.7448 23.8668 9.5622
v  19.5410 16.3228 16.1534
v  14.1430 17.4602 25.7165
v  27.0133 27.3687 24.9935
v  24.4422 -8.2491 -13.4200
v  24.3515 -9.5633 8.6499
v  9.2298 -4.8953 2.1006
v  5.9928 3.4725 -12.6154
v  17.0781 9.2391 -24.4167
v  34.1382 8.0621 -24.4167
v  44.3266 0.8277 -12.6154
v  39.9711 -7.0163 2.1006
v  6.6134 12.4673 15.2845
v  25.4699 6.6465 23.4513
v  2.5770 22.9019 -3.0660
v  16.4001 30.0927 -17.7820
v  37.6737 28.8455 -17.7820
v  50.3784 19.6898 -3.0660
v  44.9472 9.8225 15.2845
v  27.4721 35.9217 11.4150
v  11.2808 -0.3968 7.3579
v  11.7356 -0.4981 36.9805
v  -10.7000 7.1244 23.7149
v  -1.6522 16.6969 0.7212
v  26.3753 14.9907 -0.2241
v  34.6494 4.6427 22.0732
v  13.5987 25.3901 34.3541
v  -14.3500 20.1182 24.9846
v  -15.6049 33.2647 9.2605
v  -30.1627 25.8711 11.6390
v  -32.6390 12.5092 16.9833
v  -21.1689 3.1732 21.2692
v  -4.3898 4.8073 21.2692
v  5.0635 16.1809 16.9833
v  0.0723 28.7295 11.6390
v  -33.6052 22.4306 -10.4710
v  -15.4518 31.6155 -13.4369
v  -36.6930 5.8760 -3.8067
v  -22.3901 -5.7657 1.5376
v  -1.4668 -3.7281 1.5376
v  10.3212 10.4546 -3.8067
v  4.0972 26.1024 -10.4710
v  -13.1204 7.4920 -24.9846
v  -34.1365 11.8956 -37.8964
v  -35.4679 13.2782 -16.0273
v  -32.0282 28.5745 -23.7405
v  -23.8687 31.0956 -38.4201
v  -17.1338 19.5668 -49.2629
v  -16.8949 2.6696 -48.1039
v  -23.3320 -7.2541 -35.6625
v  -31.5978 -2.5202 -21.3921
v  -14.7555 33.3295 -10.9208
v  -19.0448 14.5553 -1.4232
v  -4.5808 36.9216 -29.4062
v  3.8175 22.5454 -42.9268
v  4.1153 1.2911 -41.4078
v  -3.9116 -11.0614 -25.9591
v  -14.2188 -5.2044 -8.3416
v  10.3562 14.1003 -13.3411
v  -13.6879 32.2491 -32.5984
v  -14.1520 32.7403 -23.4219
v  -7.1332 36.8196 -26.1450
v  -2.8520 35.1305 -32.2638
v  -4.5322 28.9448 -37.1707
v  -10.9086 22.9206 -37.1707
v  -17.1796 21.5941 -32.2638
v  -18.6231 25.9643 -26.1450
v  0.3243 31.7686 -20.6632
v  -8.4280 26.6818 -17.2676
v  5.6629 29.6622 -28.2933
v  3.5677 21.9488 -34.4121
v  -4.3835 14.4367 -34.4121
v  -12.2034 12.7827 -28.2933
v  -14.0034 18.2322 -20.6632
v  1.8191 15.8355 -22.2722
v  -6.4452 30.5329 -21.7918
v  -7.1425 30.4062 -10.1994
v  -5.3410 38.6474 -13.5566
v  -1.0678 40.8053 -21.2654
v  2.4593 35.2550 -27.5209
v  2.5844 26.1759 -27.6125
v  -0.7868 20.4049 -21.4713
v  -5.1157 22.2875 -13.7217
v  3.7048 40.7235 -6.6099
v  1.4585 30.4469 -2.4235
v  9.0335 43.4144 -16.2226
v  13.4317 36.4932 -24.0231
v  13.5877 25.1719 -24.1373
v  9.3839 17.9755 -16.4794
v  3.9859 20.3231 -6.8158
v  16.8561 30.7241 -8.7436
v  -9.2160 15.5812 -46.6199
v  -9.9133 15.5716 -35.0617
v  -8.1119 23.7538 -38.4916
v  -3.8387 25.8275 -46.1985
v  -0.3115 20.2312 -52.3790
v  -0.1864 11.1791 -52.3790
v  -3.5576 5.4875 -46.1985
v  -7.8865 7.4423 -38.4916
v  0.9340 25.8934 -31.5870
v  -1.3124 15.6904 -27.3100
v  6.2626 28.4793 -41.1974
v  10.6609 21.5009 -48.9043
v  10.8169 10.2130 -48.9043
v  6.6131 3.1157 -41.1974
v  1.2151 5.5534 -31.5870
v  14.0853 15.9032 -33.6136
v  19.3606 0.4952 -41.2054
v  19.4808 4.6194 -12.3603
v  -3.1997 9.7587 -26.9559
v  5.9810 16.4444 -50.5059
v  34.5232 14.9521 -49.8507
v  42.6787 8.3192 -26.3611
v  20.7923 30.6568 -18.0254
v  43.1978 12.7340 -11.5209
v  37.9034 18.6076 -23.0167
v  30.0280 12.0628 -15.0765
v  38.7335 3.1398 -16.9963
v  46.6088 9.5135 -24.8679
v  33.4391 8.8575 -28.4295
# 148 vertices

vn -0.0000 0.1625 0.9988
vn -0.0000 0.8601 0.3661
vn -0.6296 0.5775 0.4446
vn -0.7972 -0.0786 0.6258
vn -0.3539 -0.6077 0.7783
vn 0.3578 -0.6079 0.7761
vn 0.7978 -0.0829 0.6248
vn 0.6294 0.5776 0.4447
vn -0.7441 0.5289 -0.4495
vn -0.0000 0.8679 -0.5398
vn -0.9324 -0.2396 -0.2435
vn -0.4146 -0.8622 -0.0646
vn 0.4172 -0.8614 -0.0626
vn 0.9324 -0.2418 -0.2410
vn 0.7440 0.5290 -0.4496
vn -0.0000 -0.1478 -1.0030
vn -0.8663 0.0652 -0.5177
vn -0.8972 -0.0763 0.4566
vn -0.7775 0.5372 0.2384
vn -0.4345 0.8108 -0.4160
vn -0.1428 0.4486 -0.9500
vn -0.1331 -0.1610 -0.9900
vn -0.4034 -0.6637 -0.5464
vn -0.7628 -0.6184 0.1379
vn -0.0512 0.5675 0.7684
vn -0.2046 -0.1533 1.0132
vn 0.3550 0.8918 0.0222
vn 0.6774 0.4753 -0.6145
vn 0.6828 -0.2622 -0.6703
vn 0.3857 -0.8623 -0.1283
vn -0.0321 -0.8002 0.6593
vn 0.8715 -0.0675 0.5081
vn -0.0647 -0.7881 -0.5000
vn -0.0667 -0.8656 0.5395
vn -0.7233 -0.6487 0.2234
vn -0.8384 -0.2869 -0.4388
vn -0.3660 -0.0469 -0.9535
vn 0.3496 -0.0915 -0.9514
vn 0.7874 -0.3879 -0.4380
vn 0.6228 -0.7395 0.2299
vn -0.7497 -0.0196 0.6846
vn -0.0163 -0.2396 1.0254
vn -0.9174 0.3819 -0.0677
vn -0.3828 0.6786 -0.6899
vn 0.4720 0.6263 -0.6821
vn 0.9611 0.2639 -0.0614
vn 0.7452 -0.1128 0.6897
vn 0.0592 0.8105 0.4620
vn -0.0703 -0.7818 -0.5097
vn -0.0203 -0.6548 0.8274
vn -0.9575 -0.1976 0.2306
vn -0.5752 0.3895 -0.7762
vn 0.5827 0.3114 -0.8033
vn 0.9339 -0.3133 0.1861
vn 0.0654 0.7454 0.5657
vn -0.0332 0.2514 0.9674
vn -0.1009 0.9018 0.2427
vn -0.7086 0.5542 0.3587
vn -0.8019 -0.0950 0.6183
vn -0.2997 -0.5782 0.8280
vn 0.4139 -0.5103 0.8194
vn 0.8003 0.0418 0.6123
vn 0.5795 0.6729 0.3565
vn -0.7933 0.4061 -0.4973
vn -0.0869 0.8111 -0.6363
vn -0.9017 -0.3524 -0.1979
vn -0.3181 -0.9100 0.0424
vn 0.5069 -0.8272 0.0362
vn 0.9560 -0.1882 -0.2047
vn 0.7014 0.5447 -0.5065
vn 0.0312 -0.2521 -0.9672
vn -0.8673 -0.0150 -0.5116
vn -0.8989 -0.0071 0.4528
vn -0.7856 0.5742 0.1035
vn -0.4297 0.7195 -0.6008
vn -0.1442 0.2799 -1.0066
vn -0.1364 -0.3175 -0.9285
vn -0.4177 -0.7608 -0.3766
vn -0.7703 -0.5813 0.2736
vn -0.0512 0.7034 0.6236
vn -0.2031 0.0109 1.0088
vn 0.3643 0.8916 -0.1868
vn 0.6765 0.3618 -0.6930
vn 0.6913 -0.3688 -0.5910
vn 0.3863 -0.8865 0.0701
vn -0.0315 -0.6748 0.8087
vn 0.8717 0.0192 0.5031
vn -0.6072 0.5737 -0.6046
vn -0.6350 0.5581 0.4642
vn -0.0625 0.9293 0.1541
vn 0.3258 0.7935 -0.5635
vn 0.1497 0.3078 -0.9990
vn -0.3035 -0.0656 -0.9732
vn -0.8507 -0.2074 -0.4715
vn -0.9746 0.0930 0.1979
vn 0.4986 0.4511 0.7020
vn -0.1396 0.0728 1.0105
vn 0.9337 0.3412 -0.0867
vn 0.7484 -0.1581 -0.6453
vn 0.1858 -0.6753 -0.6342
vn -0.4484 -0.8553 0.0040
vn -0.5633 -0.4444 0.7556
vn 0.6090 -0.6160 0.5505
vn -0.8698 0.0166 -0.5104
vn -0.9003 -0.0342 0.4514
vn -0.7894 0.5520 0.1632
vn -0.4392 0.7615 -0.5217
vn -0.1473 0.3493 -0.9876
vn -0.1379 -0.2505 -0.9581
vn -0.4158 -0.7203 -0.4524
vn -0.7731 -0.5931 0.2179
vn -0.0531 0.6479 0.6887
vn -0.2046 -0.0557 1.0142
vn 0.3615 0.8965 -0.0979
vn 0.6805 0.4078 -0.6615
vn 0.6906 -0.3224 -0.6254
vn 0.3886 -0.8799 -0.0137
vn -0.0324 -0.7268 0.7548
vn 0.8723 -0.0159 0.5059
vn -0.8695 0.0124 -0.5108
vn -0.9000 -0.0307 0.4519
vn -0.7890 0.5547 0.1566
vn -0.4383 0.7574 -0.5302
vn -0.1469 0.3413 -0.9902
vn -0.1375 -0.2590 -0.9547
vn -0.4157 -0.7258 -0.4432
vn -0.7726 -0.5921 0.2249
vn -0.0532 0.6552 0.6806
vn -0.2045 -0.0472 1.0138
vn 0.3615 0.8964 -0.1083
vn 0.6799 0.4026 -0.6655
vn 0.6906 -0.3284 -0.6214
vn 0.3883 -0.8811 -0.0033
vn -0.0324 -0.7203 0.7621
vn 0.8722 -0.0114 0.5057
vn -0.0353 -0.8552 -0.3757
vn -0.0284 -0.5538 0.9040
vn -0.9562 -0.1966 0.2381
vn -0.5588 0.2698 -0.8348
vn 0.6030 0.2008 -0.8164
vn 0.9353 -0.2640 0.2595
vn 0.0346 0.8256 0.4364
vn 0.5037 0.2015 0.8423
vn -0.0202 0.9316 -0.3574
vn -0.8610 0.1089 0.4995
vn 0.0201 -0.9316 0.3571
vn 0.8611 -0.1174 -0.4962
vn -0.5037 -0.2085 -0.8396
# 148 vertex normals

vt 0.0000 1.0000 0.0000
vt 0.0000 0.7143 0.0000
vt 0.1429 0.7143 0.0000
vt 0.1429 1.0000 0.0000
vt 0.2857 0.7143 0.0000
vt 0.2857 1.0000 0.0000
vt 0.4286 0.7143 0.0000
vt 0.4286 1.0000 0.0000
vt 0.5714 0.7143 0.0000
vt 0.5714 1.0000 0.0000
vt 0.7143 0.7143 0.0000
vt 0.7143 1.0000 0.0000
vt 0.8571 0.7143 0.0000
vt 0.8571 1.0000 0.0000
vt 1.0000 0.7143 0.0000
vt 0.1429 0.4286 0.0000
vt 0.0000 0.4286 0.0000
vt 0.2857 0.4286 0.0000
vt 0.4286 0.4286 0.0000
vt 0.5714 0.4286 0.0000
vt 0.7143 0.4286 0.0000
vt 0.8571 0.4286 0.0000
vt 1.0000 0.4286 0.0000
vt 0.0000 0.1429 0.0000
vt 0.1429 0.1429 0.0000
vt 0.2857 0.1429 0.0000
vt 0.4286 0.1429 0.0000
vt 0.5714 0.1429 0.0000
vt 0.7143 0.1429 0.0000
vt 0.8571 0.1429 0.0000
vt 0.0000 0.6000 0.0000
vt 0.2000 0.6000 0.0000
vt 0.2000 1.0000 0.0000
vt 0.4000 0.6000 0.0000
vt 0.4000 1.0000 0.0000
vt 0.6000 0.6000 0.0000
vt 0.6000 1.0000 0.0000
vt 0.8000 0.6000 0.0000
vt 0.8000 1.0000 0.0000
vt 1.0000 0.6000 0.0000
vt 0.0000 0.2000 0.0000
vt 0.2000 0.2000 0.0000
vt 0.4000 0.2000 0.0000
vt 0.6000 0.2000 0.0000
vt 0.8000 0.2000 0.0000
vt 0.0000 0.5000 0.0000
vt 0.2500 0.5000 0.0000
vt 0.2500 1.0000 0.0000
vt 0.5000 0.5000 0.0000
vt 0.5000 1.0000 0.0000
vt 0.7500 0.5000 0.0000
vt 0.7500 1.0000 0.0000
vt 1.0000 0.5000 0.0000
vt 0.0000 0.0000 0.0000
vt 0.2500 0.0000 0.0000
vt 0.5000 0.0000 0.0000
vt 0.7500 0.0000 0.0000
# 57 texture coords

o Sphere011
g Sphere011
usemtl Material__25
s 1
f 1/1/1 2/2/2 3/3/3 
f 1/4/1 3/3/3 4/5/4 
f 1/6/1 4/5/4 5/7/5 
f 1/8/1 5/7/5 6/9/6 
f 1/10/1 6/9/6 7/11/7 
f 1/12/1 7/11/7 8/13/8 
f 1/14/1 8/13/8 2/15/2 
f 9/16/9 3/3/3 2/2/2 
f 2/2/2 10/17/10 9/16/9 
f 11/18/11 4/5/4 3/3/3 
f 3/3/3 9/16/9 11/18/11 
f 12/19/12 5/7/5 4/5/4 
f 4/5/4 11/18/11 12/19/12 
f 13/20/13 6/9/6 5/7/5 
f 5/7/5 12/19/12 13/20/13 
f 14/21/14 7/11/7 6/9/6 
f 6/9/6 13/20/13 14/21/14 
f 15/22/15 8/13/8 7/11/7 
f 7/11/7 14/21/14 15/22/15 
f 10/23/10 2/15/2 8/13/8 
f 8/13/8 15/22/15 10/23/10 
f 16/24/16 9/16/9 10/17/10 
f 16/25/16 11/18/11 9/16/9 
f 16/26/16 12/19/12 11/18/11 
f 16/27/16 13/20/13 12/19/12 
f 16/28/16 14/21/14 13/20/13 
f 16/29/16 15/22/15 14/21/14 
f 16/30/16 10/23/10 15/22/15 
f 17/1/17 18/2/18 19/3/19 
f 17/4/17 19/3/19 20/5/20 
f 17/6/17 20/5/20 21/7/21 
f 17/8/17 21/7/21 22/9/22 
f 17/10/17 22/9/22 23/11/23 
f 17/12/17 23/11/23 24/13/24 
f 17/14/17 24/13/24 18/15/18 
f 25/16/25 19/3/19 18/2/18 
f 18/2/18 26/17/26 25/16/25 
f 27/18/27 20/5/20 19/3/19 
f 19/3/19 25/16/25 27/18/27 
f 28/19/28 21/7/21 20/5/20 
f 20/5/20 27/18/27 28/19/28 
f 29/20/29 22/9/22 21/7/21 
f 21/7/21 28/19/28 29/20/29 
f 30/21/30 23/11/23 22/9/22 
f 22/9/22 29/20/29 30/21/30 
f 31/22/31 24/13/24 23/11/23 
f 23/11/23 30/21/30 31/22/31 
f 26/23/26 18/15/18 24/13/24 
f 24/13/24 31/22/31 26/23/26 
f 32/24/32 25/16/25 26/17/26 
f 32/25/32 27/18/27 25/16/25 
f 32/26/32 28/19/28 27/18/27 
f 32/27/32 29/20/29 28/19/28 
f 32/28/32 30/21/30 29/20/29 
f 32/29/32 31/22/31 30/21/30 
f 32/30/32 26/23/26 31/22/31 
f 33/1/33 34/2/34 35/3/35 
f 33/4/33 35/3/35 36/5/36 
f 33/6/33 36/5/36 37/7/37 
f 33/8/33 37/7/37 38/9/38 
f 33/10/33 38/9/38 39/11/39 
f 33/12/33 39/11/39 40/13/40 
f 33/14/33 40/13/40 34/15/34 
f 41/16/41 35/3/35 34/2/34 
f 34/2/34 42/17/42 41/16/41 
f 43/18/43 36/5/36 35/3/35 
f 35/3/35 41/16/41 43/18/43 
f 44/19/44 37/7/37 36/5/36 
f 36/5/36 43/18/43 44/19/44 
f 45/20/45 38/9/38 37/7/37 
f 37/7/37 44/19/44 45/20/45 
f 46/21/46 39/11/39 38/9/38 
f 38/9/38 45/20/45 46/21/46 
f 47/22/47 40/13/40 39/11/39 
f 39/11/39 46/21/46 47/22/47 
f 42/23/42 34/15/34 40/13/40 
f 40/13/40 47/22/47 42/23/42 
f 48/24/48 41/16/41 42/17/42 
f 48/25/48 43/18/43 41/16/41 
f 48/26/48 44/19/44 43/18/43 
f 48/27/48 45/20/45 44/19/44 
f 48/28/48 46/21/46 45/20/45 
f 48/29/48 47/22/47 46/21/46 
f 48/30/48 42/23/42 47/22/47 
f 49/1/49 50/31/50 51/32/51 
f 49/33/49 51/32/51 52/34/52 
f 49/35/49 52/34/52 53/36/53 
f 49/37/49 53/36/53 54/38/54 
f 49/39/49 54/38/54 50/40/50 
f 55/41/55 51/32/51 50/31/50 
f 55/42/55 52/34/52 51/32/51 
f 55/43/55 53/36/53 52/34/52 
f 55/44/55 54/38/54 53/36/53 
f 55/45/55 50/40/50 54/38/54 
f 56/1/56 57/2/57 58/3/58 
f 56/4/56 58/3/58 59/5/59 
f 56/6/56 59/5/59 60/7/60 
f 56/8/56 60/7/60 61/9/61 
f 56/10/56 61/9/61 62/11/62 
f 56/12/56 62/11/62 63/13/63 
f 56/14/56 63/13/63 57/15/57 
f 64/16/64 58/3/58 57/2/57 
f 57/2/57 65/17/65 64/16/64 
f 66/18/66 59/5/59 58/3/58 
f 58/3/58 64/16/64 66/18/66 
f 67/19/67 60/7/60 59/5/59 
f 59/5/59 66/18/66 67/19/67 
f 68/20/68 61/9/61 60/7/60 
f 60/7/60 67/19/67 68/20/68 
f 69/21/69 62/11/62 61/9/61 
f 61/9/61 68/20/68 69/21/69 
f 70/22/70 63/13/63 62/11/62 
f 62/11/62 69/21/69 70/22/70 
f 65/23/65 57/15/57 63/13/63 
f 63/13/63 70/22/70 65/23/65 
f 71/24/71 64/16/64 65/17/65 
f 71/25/71 66/18/66 64/16/64 
f 71/26/71 67/19/67 66/18/66 
f 71/27/71 68/20/68 67/19/67 
f 71/28/71 69/21/69 68/20/68 
f 71/29/71 70/22/70 69/21/69 
f 71/30/71 65/23/65 70/22/70 
f 72/1/72 73/2/73 74/3/74 
f 72/4/72 74/3/74 75/5/75 
f 72/6/72 75/5/75 76/7/76 
f 72/8/72 76/7/76 77/9/77 
f 72/10/72 77/9/77 78/11/78 
f 72/12/72 78/11/78 79/13/79 
f 72/14/72 79/13/79 73/15/73 
f 80/16/80 74/3/74 73/2/73 
f 73/2/73 81/17/81 80/16/80 
f 82/18/82 75/5/75 74/3/74 
f 74/3/74 80/16/80 82/18/82 
f 83/19/83 76/7/76 75/5/75 
f 75/5/75 82/18/82 83/19/83 
f 84/20/84 77/9/77 76/7/76 
f 76/7/76 83/19/83 84/20/84 
f 85/21/85 78/11/78 77/9/77 
f 77/9/77 84/20/84 85/21/85 
f 86/22/86 79/13/79 78/11/78 
f 78/11/78 85/21/85 86/22/86 
f 81/23/81 73/15/73 79/13/79 
f 79/13/79 86/22/86 81/23/81 
f 87/24/87 80/16/80 81/17/81 
f 87/25/87 82/18/82 80/16/80 
f 87/26/87 83/19/83 82/18/82 
f 87/27/87 84/20/84 83/19/83 
f 87/28/87 85/21/85 84/20/84 
f 87/29/87 86/22/86 85/21/85 
f 87/30/87 81/23/81 86/22/86 
f 88/1/88 89/2/89 90/3/90 
f 88/4/88 90/3/90 91/5/91 
f 88/6/88 91/5/91 92/7/92 
f 88/8/88 92/7/92 93/9/93 
f 88/10/88 93/9/93 94/11/94 
f 88/12/88 94/11/94 95/13/95 
f 88/14/88 95/13/95 89/15/89 
f 96/16/96 90/3/90 89/2/89 
f 89/2/89 97/17/97 96/16/96 
f 98/18/98 91/5/91 90/3/90 
f 90/3/90 96/16/96 98/18/98 
f 99/19/99 92/7/92 91/5/91 
f 91/5/91 98/18/98 99/19/99 
f 100/20/100 93/9/93 92/7/92 
f 92/7/92 99/19/99 100/20/100 
f 101/21/101 94/11/94 93/9/93 
f 93/9/93 100/20/100 101/21/101 
f 102/22/102 95/13/95 94/11/94 
f 94/11/94 101/21/101 102/22/102 
f 97/23/97 89/15/89 95/13/95 
f 95/13/95 102/22/102 97/23/97 
f 103/24/103 96/16/96 97/17/97 
f 103/25/103 98/18/98 96/16/96 
f 103/26/103 99/19/99 98/18/98 
f 103/27/103 100/20/100 99/19/99 
f 103/28/103 101/21/101 100/20/100 
f 103/29/103 102/22/102 101/21/101 
f 103/30/103 97/23/97 102/22/102 
f 104/1/104 105/2/105 106/3/106 
f 104/4/104 106/3/106 107/5/107 
f 104/6/104 107/5/107 108/7/108 
f 104/8/104 108/7/108 109/9/109 
f 104/10/104 109/9/109 110/11/110 
f 104/12/104 110/11/110 111/13/111 
f 104/14/104 111/13/111 105/15/105 
f 112/16/112 106/3/106 105/2/105 
f 105/2/105 113/17/113 112/16/112 
f 114/18/114 107/5/107 106/3/106 
f 106/3/106 112/16/112 114/18/114 
f 115/19/115 108/7/108 107/5/107 
f 107/5/107 114/18/114 115/19/115 
f 116/20/116 109/9/109 108/7/108 
f 108/7/108 115/19/115 116/20/116 
f 117/21/117 110/11/110 109/9/109 
f 109/9/109 116/20/116 117/21/117 
f 118/22/118 111/13/111 110/11/110 
f 110/11/110 117/21/117 118/22/118 
f 113/23/113 105/15/105 111/13/111 
f 111/13/111 118/22/118 113/23/113 
f 119/24/119 112/16/112 113/17/113 
f 119/25/119 114/18/114 112/16/112 
f 119/26/119 115/19/115 114/18/114 
f 119/27/119 116/20/116 115/19/115 
f 119/28/119 117/21/117 116/20/116 
f 119/29/119 118/22/118 117/21/117 
f 119/30/119 113/23/113 118/22/118 
f 120/1/120 121/2/121 122/3/122 
f 120/4/120 122/3/122 123/5/123 
f 120/6/120 123/5/123 124/7/124 
f 120/8/120 124/7/124 125/9/125 
f 120/10/120 125/9/125 126/11/126 
f 120/12/120 126/11/126 127/13/127 
f 120/14/120 127/13/127 121/15/121 
f 128/16/128 122/3/122 121/2/121 
f 121/2/121 129/17/129 128/16/128 
f 130/18/130 123/5/123 122/3/122 
f 122/3/122 128/16/128 130/18/130 
f 131/19/131 124/7/124 123/5/123 
f 123/5/123 130/18/130 131/19/131 
f 132/20/132 125/9/125 124/7/124 
f 124/7/124 131/19/131 132/20/132 
f 133/21/133 126/11/126 125/9/125 
f 125/9/125 132/20/132 133/21/133 
f 134/22/134 127/13/127 126/11/126 
f 126/11/126 133/21/133 134/22/134 
f 129/23/129 121/15/121 127/13/127 
f 127/13/127 134/22/134 129/23/129 
f 135/24/135 128/16/128 129/17/129 
f 135/25/135 130/18/130 128/16/128 
f 135/26/135 131/19/131 130/18/130 
f 135/27/135 132/20/132 131/19/131 
f 135/28/135 133/21/133 132/20/132 
f 135/29/135 134/22/134 133/21/133 
f 135/30/135 129/23/129 134/22/134 
f 136/1/136 137/31/137 138/32/138 
f 136/33/136 138/32/138 139/34/139 
f 136/35/136 139/34/139 140/36/140 
f 136/37/136 140/36/140 141/38/141 
f 136/39/136 141/38/141 137/40/137 
f 142/41/142 138/32/138 137/31/137 
f 142/42/142 139/34/139 138/32/138 
f 142/43/142 140/36/140 139/34/139 
f 142/44/142 141/38/141 140/36/140 
f 142/45/142 137/40/137 141/38/141 
f 143/1/143 144/46/144 145/47/145 
f 143/48/143 145/47/145 146/49/146 
f 143/50/143 146/49/146 147/51/147 
f 143/52/143 147/51/147 144/53/144 
f 148/54/148 145/47/145 144/46/144 
f 148/55/148 146/49/146 145/47/145 
f 148/56/148 147/51/147 146/49/146 
f 148/57/148 144/53/144 147/51/147 
# 252 faces

