# 3ds Max Wavefront OBJ Exporter v0.97b - (c)2007 guruware
# File Created: 18.03.2019 10:07:59

mtllib stone_effect5.mtl

#
# object Sphere011
#

v  0.0000 58.4391 58.6219
v  -0.0000 79.2999 63.0646
v  -15.5744 74.1258 59.0122
v  -19.4210 61.7292 50.0482
v  -8.6431 52.4061 42.5364
v  8.6432 52.3841 42.4520
v  19.4210 61.5601 49.9066
v  15.5744 73.7076 59.0122
v  -19.4210 90.7025 46.6385
v  -0.0000 97.5786 51.5213
v  -24.2176 74.9758 35.5683
v  -10.7778 67.2856 24.6202
v  10.7778 67.2582 24.5149
v  24.2176 74.9142 35.3318
v  19.4210 90.6052 46.4680
v  0.0000 93.0025 25.1695
v  3.7119 52.3128 52.9460
v  3.0146 42.0513 56.0920
v  4.8161 48.5206 62.3990
v  9.0893 56.2283 62.1312
v  12.6164 59.3704 55.4905
v  12.7415 55.5808 47.4772
v  9.3703 47.7131 44.1257
v  5.0415 41.6919 47.9597
v  13.8620 43.2888 66.1775
v  11.6156 35.2217 58.3129
v  19.1906 52.9002 65.8437
v  23.5889 56.8183 57.5627
v  23.7448 52.0928 47.5704
v  19.5410 42.2819 43.3911
v  14.1430 34.7736 48.1720
v  27.0133 40.9049 56.7808
v  39.4970 23.3020 -13.4200
v  38.5389 22.4434 8.6499
v  30.8082 36.2552 2.1006
v  34.1591 44.3800 -12.6154
v  46.0682 40.6999 -24.4167
v  57.5677 27.9859 -24.4166
v  59.9983 15.8120 -12.6154
v  51.5297 13.3454 2.1006
v  40.7169 50.2565 15.2845
v  50.3569 33.0336 23.4513
v  44.8954 60.3880 -3.0660
v  59.7458 55.7989 -17.7820
v  74.0855 38.9489 -17.7820
v  77.1164 24.6621 -3.0660
v  66.5561 21.6884 15.2845
v  71.5137 50.7783 11.4150
v  35.3512 33.7938 30.3332
v  31.6951 15.8509 52.2071
v  19.8129 40.3175 53.6577
v  35.6696 53.7291 39.6438
v  57.3519 37.5514 29.5321
v  55.6516 12.8179 37.8284
v  48.4739 29.8533 65.3220
v  -47.9256 42.3248 24.9846
v  -59.7608 46.5485 9.2605
v  -61.8433 31.1588 11.6390
v  -51.8014 22.6420 16.7972
v  -37.1970 27.2671 21.4994
v  -29.0274 43.1387 21.2692
v  -33.4446 57.0656 16.9833
v  -47.1222 59.1338 11.6390
v  -60.9142 26.8953 -10.4710
v  -58.3174 46.2507 -13.4369
v  -48.3923 15.7607 -4.0591
v  -30.1809 21.1714 1.9702
v  -19.9936 41.3250 1.5376
v  -25.5016 58.6915 -3.8067
v  -42.5573 61.2705 -10.4710
v  -36.3285 36.9736 -24.9846
v  -34.1365 15.8400 -56.6830
v  -35.4679 33.7833 -43.4068
v  -32.0282 36.1123 -58.4149
v  -23.8687 29.6776 -71.5691
v  -17.1338 14.5528 -71.0468
v  -16.8949 2.9880 -57.8612
v  -23.3320 5.7338 -43.0549
v  -31.5978 19.7321 -35.9529
v  -14.7555 49.7263 -53.9027
v  -19.0448 45.4491 -34.6363
v  -4.5808 38.9675 -69.2069
v  3.8175 20.0213 -68.5211
v  4.1153 6.6381 -52.1542
v  -3.9116 9.6091 -33.1295
v  -14.2188 27.5840 -24.0061
v  10.3562 35.5032 -42.2781
v  -26.8566 28.9783 -37.9437
v  -27.3207 29.4695 -28.7672
v  -20.3019 33.5488 -31.4903
v  -16.0206 31.8596 -37.6091
v  -17.7008 25.6740 -42.5160
v  -24.0772 19.6497 -42.5160
v  -30.3483 18.3233 -37.6091
v  -31.7918 22.6935 -31.4903
v  -12.8444 28.4977 -26.0085
v  -21.5967 23.4109 -22.6129
v  -7.5058 26.3914 -33.6386
v  -9.6010 18.6780 -39.7574
v  -17.5522 11.1659 -39.7574
v  -25.3721 9.5118 -33.6386
v  -27.1721 14.9614 -26.0085
v  -11.3495 12.5647 -27.6175
v  -6.4452 94.7103 -21.4479
v  -7.1425 96.8740 -10.5248
v  -5.3410 103.9604 -15.3038
v  -1.0678 104.4711 -22.9758
v  2.4593 98.0215 -27.7637
v  2.5844 89.4682 -26.0621
v  -0.7868 85.2521 -19.1523
v  -5.1157 88.5480 -12.2376
v  3.7048 107.2801 -9.1820
v  1.4585 98.4434 -3.2227
v  9.0335 107.9169 -18.7488
v  13.4317 99.8743 -24.7192
v  13.5877 89.2086 -22.5973
v  9.3839 83.9512 -13.9810
v  3.9859 88.0611 -5.3585
v  16.8561 97.4595 -9.2189
v  -8.2198 39.6010 -51.6851
v  -8.9171 39.1935 -39.9051
v  -7.1156 47.6509 -43.1194
v  -2.8424 50.0296 -50.9031
v  0.6847 44.3856 -57.3335
v  0.8098 35.2436 -57.6787
v  -2.5614 29.2987 -51.6029
v  -6.8902 31.0260 -43.6806
v  1.9303 49.5942 -36.0085
v  -0.3161 39.0479 -32.0003
v  7.2589 52.5604 -45.7146
v  11.6572 45.6723 -53.7934
v  11.8131 34.2082 -54.1981
v  7.6093 26.7094 -46.5872
v  2.2113 28.8632 -36.7083
v  15.0816 39.4817 -38.4177
v  28.8954 25.2217 -51.2614
v  38.6022 47.8638 -34.3305
v  17.1022 50.7345 -53.9009
v  20.6138 31.6978 -71.5088
v  43.3937 19.7529 -65.8905
v  55.4015 26.7414 -42.5865
v  47.1458 53.1156 -58.2454
v  71.8917 41.1291 -34.9592
v  74.2300 46.2387 -46.4360
v  63.8153 51.9791 -40.2111
v  60.5417 39.4078 -40.8380
v  70.9564 34.4783 -47.3886
v  62.8800 45.2565 -52.6117
# 148 vertices

vn -0.0013 -0.6038 0.8696
vn 0.0030 0.1590 0.9998
vn -0.6098 -0.0132 0.8189
vn -0.8153 -0.4869 0.3436
vn -0.3775 -0.8732 -0.0901
vn 0.3610 -0.8798 -0.0886
vn 0.8102 -0.4858 0.3604
vn 0.6118 -0.0208 0.8180
vn -0.7662 0.5823 0.1571
vn 0.0032 0.8426 0.4039
vn -0.9384 0.0087 -0.3572
vn -0.3974 -0.2845 -0.8647
vn 0.3800 -0.2786 -0.8754
vn 0.9377 0.0226 -0.3601
vn 0.7685 0.5804 0.1548
vn -0.0011 0.6676 -0.8161
vn -0.8814 0.4100 -0.2552
vn -0.9042 -0.3750 0.2208
vn -0.7454 0.0197 0.6852
vn -0.4496 0.5953 0.5985
vn -0.1461 0.9512 -0.1042
vn -0.1348 0.6750 -0.7959
vn -0.3737 0.1737 -0.9577
vn -0.7386 -0.3164 -0.5721
vn -0.0410 -0.3573 0.9963
vn -0.2200 -0.8673 0.4790
vn 0.3331 0.2774 0.8954
vn 0.6852 0.6769 0.1180
vn 0.6710 0.3987 -0.6781
vn 0.3786 -0.2001 -0.9083
vn -0.0215 -0.8248 -0.4386
vn 0.8777 -0.4277 0.2312
vn -0.6729 -0.4970 -0.4911
vn -0.6927 -0.5624 0.4974
vn -0.9838 -0.0406 0.1841
vn -0.8474 0.3049 -0.4730
vn -0.3279 0.1873 -0.9743
vn 0.1290 -0.2702 -0.9512
vn 0.2394 -0.7923 -0.4422
vn -0.1464 -0.9417 0.2473
vn -0.5206 0.4571 0.6812
vn -0.1601 -0.1618 1.0213
vn -0.3544 0.8990 -0.0877
vn 0.2604 0.7376 -0.6863
vn 0.7821 0.1450 -0.6398
vn 0.9022 -0.4087 -0.0309
vn 0.4712 -0.5673 0.7390
vn 0.6707 0.5057 0.4837
vn -0.4814 -0.0501 -0.8971
vn -0.5512 -0.7801 0.2871
vn -0.8908 0.2674 0.3412
vn -0.1170 0.9462 -0.2428
vn 0.7415 0.3304 -0.6309
vn 0.5195 -0.7552 -0.2638
vn 0.4179 -0.0189 0.9391
vn -0.3111 0.0972 0.9641
vn -0.8862 0.3500 0.2571
vn -0.9047 -0.2157 0.3975
vn -0.3677 -0.6954 0.6799
vn 0.3551 -0.5267 0.8397
vn 0.6474 0.0121 0.7848
vn 0.3688 0.6297 0.6109
vn -0.4087 0.7808 0.3434
vn -0.7858 -0.3567 -0.4710
vn -0.7614 0.3478 -0.5935
vn -0.1531 -0.9124 -0.1836
vn 0.6745 -0.7090 0.0400
vn 0.9977 -0.0626 -0.0125
vn 0.7042 0.6620 -0.2520
vn -0.1614 0.8501 -0.5462
vn 0.2785 -0.0797 -0.9783
vn -0.8831 -0.3402 -0.2802
vn -0.9037 0.2952 0.2752
vn -0.7775 0.4720 -0.4576
vn -0.4234 0.2358 -0.9258
vn -0.1496 -0.3628 -0.9027
vn -0.1390 -0.8764 -0.3024
vn -0.4385 -0.7976 0.4447
vn -0.7383 -0.2740 0.6609
vn -0.0528 0.9462 -0.2794
vn -0.2122 0.7035 0.5906
vn 0.3432 0.5525 -0.8275
vn 0.6624 -0.1429 -0.7417
vn 0.6896 -0.6870 -0.0458
vn 0.3512 -0.6109 0.7770
vn -0.0261 0.0007 1.0312
vn 0.8827 0.3441 0.2761
vn -0.6072 0.5737 -0.6046
vn -0.6350 0.5581 0.4642
vn -0.0625 0.9293 0.1541
vn 0.3258 0.7935 -0.5635
vn 0.1497 0.3078 -0.9990
vn -0.3035 -0.0656 -0.9732
vn -0.8507 -0.2074 -0.4715
vn -0.9746 0.0930 0.1979
vn 0.4986 0.4511 0.7020
vn -0.1396 0.0728 1.0105
vn 0.9337 0.3412 -0.0867
vn 0.7484 -0.1581 -0.6453
vn 0.1858 -0.6753 -0.6342
vn -0.4484 -0.8553 0.0040
vn -0.5633 -0.4444 0.7556
vn 0.6090 -0.6160 0.5505
vn -0.8662 -0.0702 -0.5021
vn -0.8968 0.0393 0.4501
vn -0.7835 0.5920 0.0213
vn -0.4242 0.6606 -0.6816
vn -0.1425 0.1817 -1.0224
vn -0.1338 -0.4224 -0.8697
vn -0.4163 -0.8136 -0.2534
vn -0.7631 -0.5582 0.3545
vn -0.0543 0.7849 0.5065
vn -0.2039 0.1190 0.9887
vn 0.3625 0.8747 -0.3057
vn 0.6709 0.2942 -0.7294
vn 0.6910 -0.4387 -0.5299
vn 0.3816 -0.8838 0.1979
vn -0.0309 -0.5814 0.8853
vn 0.8716 0.0769 0.4904
vn -0.8709 0.0272 -0.5091
vn -0.9018 -0.0421 0.4482
vn -0.7917 0.5438 0.1781
vn -0.4410 0.7684 -0.5061
vn -0.1490 0.3603 -0.9838
vn -0.1393 -0.2310 -0.9655
vn -0.4185 -0.7065 -0.4726
vn -0.7760 -0.5932 0.2008
vn -0.0527 0.6302 0.7076
vn -0.2053 -0.0757 1.0147
vn 0.3625 0.8958 -0.0748
vn 0.6817 0.4179 -0.6534
vn 0.6921 -0.3062 -0.6344
vn 0.3901 -0.8765 -0.0373
vn -0.0323 -0.7417 0.7376
vn 0.8729 -0.0262 0.5055
vn -0.5564 -0.6872 0.5130
vn 0.0303 0.3556 0.9187
vn -0.8148 0.5550 -0.0057
vn -0.6343 -0.1762 -0.7554
vn 0.3294 -0.7140 -0.5227
vn 0.7439 -0.4647 0.5274
vn 0.5488 0.7417 -0.4143
vn 0.4519 -0.2242 0.9131
vn 0.8479 0.4183 -0.3589
vn -0.3047 0.8436 0.2892
vn -0.8242 -0.4562 0.3693
vn 0.3202 -0.8310 -0.3084
vn -0.4390 0.2429 -0.9164
# 148 vertex normals

vt 0.0000 1.0000 0.0000
vt 0.0000 0.7143 0.0000
vt 0.1429 0.7143 0.0000
vt 0.1429 1.0000 0.0000
vt 0.2857 0.7143 0.0000
vt 0.2857 1.0000 0.0000
vt 0.4286 0.7143 0.0000
vt 0.4286 1.0000 0.0000
vt 0.5714 0.7143 0.0000
vt 0.5714 1.0000 0.0000
vt 0.7143 0.7143 0.0000
vt 0.7143 1.0000 0.0000
vt 0.8571 0.7143 0.0000
vt 0.8571 1.0000 0.0000
vt 1.0000 0.7143 0.0000
vt 0.1429 0.4286 0.0000
vt 0.0000 0.4286 0.0000
vt 0.2857 0.4286 0.0000
vt 0.4286 0.4286 0.0000
vt 0.5714 0.4286 0.0000
vt 0.7143 0.4286 0.0000
vt 0.8571 0.4286 0.0000
vt 1.0000 0.4286 0.0000
vt 0.0000 0.1429 0.0000
vt 0.1429 0.1429 0.0000
vt 0.2857 0.1429 0.0000
vt 0.4286 0.1429 0.0000
vt 0.5714 0.1429 0.0000
vt 0.7143 0.1429 0.0000
vt 0.8571 0.1429 0.0000
vt 0.0000 0.6000 0.0000
vt 0.2000 0.6000 0.0000
vt 0.2000 1.0000 0.0000
vt 0.4000 0.6000 0.0000
vt 0.4000 1.0000 0.0000
vt 0.6000 0.6000 0.0000
vt 0.6000 1.0000 0.0000
vt 0.8000 0.6000 0.0000
vt 0.8000 1.0000 0.0000
vt 1.0000 0.6000 0.0000
vt 0.0000 0.2000 0.0000
vt 0.2000 0.2000 0.0000
vt 0.4000 0.2000 0.0000
vt 0.6000 0.2000 0.0000
vt 0.8000 0.2000 0.0000
vt 0.0000 0.5000 0.0000
vt 0.2500 0.5000 0.0000
vt 0.2500 1.0000 0.0000
vt 0.5000 0.5000 0.0000
vt 0.5000 1.0000 0.0000
vt 0.7500 0.5000 0.0000
vt 0.7500 1.0000 0.0000
vt 1.0000 0.5000 0.0000
vt 0.0000 0.0000 0.0000
vt 0.2500 0.0000 0.0000
vt 0.5000 0.0000 0.0000
vt 0.7500 0.0000 0.0000
# 57 texture coords

o Sphere011
g Sphere011
usemtl Material__25
s 1
f 1/1/1 2/2/2 3/3/3 
f 1/4/1 3/3/3 4/5/4 
f 1/6/1 4/5/4 5/7/5 
f 1/8/1 5/7/5 6/9/6 
f 1/10/1 6/9/6 7/11/7 
f 1/12/1 7/11/7 8/13/8 
f 1/14/1 8/13/8 2/15/2 
f 9/16/9 3/3/3 2/2/2 
f 2/2/2 10/17/10 9/16/9 
f 11/18/11 4/5/4 3/3/3 
f 3/3/3 9/16/9 11/18/11 
f 12/19/12 5/7/5 4/5/4 
f 4/5/4 11/18/11 12/19/12 
f 13/20/13 6/9/6 5/7/5 
f 5/7/5 12/19/12 13/20/13 
f 14/21/14 7/11/7 6/9/6 
f 6/9/6 13/20/13 14/21/14 
f 15/22/15 8/13/8 7/11/7 
f 7/11/7 14/21/14 15/22/15 
f 10/23/10 2/15/2 8/13/8 
f 8/13/8 15/22/15 10/23/10 
f 16/24/16 9/16/9 10/17/10 
f 16/25/16 11/18/11 9/16/9 
f 16/26/16 12/19/12 11/18/11 
f 16/27/16 13/20/13 12/19/12 
f 16/28/16 14/21/14 13/20/13 
f 16/29/16 15/22/15 14/21/14 
f 16/30/16 10/23/10 15/22/15 
f 17/1/17 18/2/18 19/3/19 
f 17/4/17 19/3/19 20/5/20 
f 17/6/17 20/5/20 21/7/21 
f 17/8/17 21/7/21 22/9/22 
f 17/10/17 22/9/22 23/11/23 
f 17/12/17 23/11/23 24/13/24 
f 17/14/17 24/13/24 18/15/18 
f 25/16/25 19/3/19 18/2/18 
f 18/2/18 26/17/26 25/16/25 
f 27/18/27 20/5/20 19/3/19 
f 19/3/19 25/16/25 27/18/27 
f 28/19/28 21/7/21 20/5/20 
f 20/5/20 27/18/27 28/19/28 
f 29/20/29 22/9/22 21/7/21 
f 21/7/21 28/19/28 29/20/29 
f 30/21/30 23/11/23 22/9/22 
f 22/9/22 29/20/29 30/21/30 
f 31/22/31 24/13/24 23/11/23 
f 23/11/23 30/21/30 31/22/31 
f 26/23/26 18/15/18 24/13/24 
f 24/13/24 31/22/31 26/23/26 
f 32/24/32 25/16/25 26/17/26 
f 32/25/32 27/18/27 25/16/25 
f 32/26/32 28/19/28 27/18/27 
f 32/27/32 29/20/29 28/19/28 
f 32/28/32 30/21/30 29/20/29 
f 32/29/32 31/22/31 30/21/30 
f 32/30/32 26/23/26 31/22/31 
f 33/1/33 34/2/34 35/3/35 
f 33/4/33 35/3/35 36/5/36 
f 33/6/33 36/5/36 37/7/37 
f 33/8/33 37/7/37 38/9/38 
f 33/10/33 38/9/38 39/11/39 
f 33/12/33 39/11/39 40/13/40 
f 33/14/33 40/13/40 34/15/34 
f 41/16/41 35/3/35 34/2/34 
f 34/2/34 42/17/42 41/16/41 
f 43/18/43 36/5/36 35/3/35 
f 35/3/35 41/16/41 43/18/43 
f 44/19/44 37/7/37 36/5/36 
f 36/5/36 43/18/43 44/19/44 
f 45/20/45 38/9/38 37/7/37 
f 37/7/37 44/19/44 45/20/45 
f 46/21/46 39/11/39 38/9/38 
f 38/9/38 45/20/45 46/21/46 
f 47/22/47 40/13/40 39/11/39 
f 39/11/39 46/21/46 47/22/47 
f 42/23/42 34/15/34 40/13/40 
f 40/13/40 47/22/47 42/23/42 
f 48/24/48 41/16/41 42/17/42 
f 48/25/48 43/18/43 41/16/41 
f 48/26/48 44/19/44 43/18/43 
f 48/27/48 45/20/45 44/19/44 
f 48/28/48 46/21/46 45/20/45 
f 48/29/48 47/22/47 46/21/46 
f 48/30/48 42/23/42 47/22/47 
f 49/1/49 50/31/50 51/32/51 
f 49/33/49 51/32/51 52/34/52 
f 49/35/49 52/34/52 53/36/53 
f 49/37/49 53/36/53 54/38/54 
f 49/39/49 54/38/54 50/40/50 
f 55/41/55 51/32/51 50/31/50 
f 55/42/55 52/34/52 51/32/51 
f 55/43/55 53/36/53 52/34/52 
f 55/44/55 54/38/54 53/36/53 
f 55/45/55 50/40/50 54/38/54 
f 56/1/56 57/2/57 58/3/58 
f 56/4/56 58/3/58 59/5/59 
f 56/6/56 59/5/59 60/7/60 
f 56/8/56 60/7/60 61/9/61 
f 56/10/56 61/9/61 62/11/62 
f 56/12/56 62/11/62 63/13/63 
f 56/14/56 63/13/63 57/15/57 
f 64/16/64 58/3/58 57/2/57 
f 57/2/57 65/17/65 64/16/64 
f 66/18/66 59/5/59 58/3/58 
f 58/3/58 64/16/64 66/18/66 
f 67/19/67 60/7/60 59/5/59 
f 59/5/59 66/18/66 67/19/67 
f 68/20/68 61/9/61 60/7/60 
f 60/7/60 67/19/67 68/20/68 
f 69/21/69 62/11/62 61/9/61 
f 61/9/61 68/20/68 69/21/69 
f 70/22/70 63/13/63 62/11/62 
f 62/11/62 69/21/69 70/22/70 
f 65/23/65 57/15/57 63/13/63 
f 63/13/63 70/22/70 65/23/65 
f 71/24/71 64/16/64 65/17/65 
f 71/25/71 66/18/66 64/16/64 
f 71/26/71 67/19/67 66/18/66 
f 71/27/71 68/20/68 67/19/67 
f 71/28/71 69/21/69 68/20/68 
f 71/29/71 70/22/70 69/21/69 
f 71/30/71 65/23/65 70/22/70 
f 72/1/72 73/2/73 74/3/74 
f 72/4/72 74/3/74 75/5/75 
f 72/6/72 75/5/75 76/7/76 
f 72/8/72 76/7/76 77/9/77 
f 72/10/72 77/9/77 78/11/78 
f 72/12/72 78/11/78 79/13/79 
f 72/14/72 79/13/79 73/15/73 
f 80/16/80 74/3/74 73/2/73 
f 73/2/73 81/17/81 80/16/80 
f 82/18/82 75/5/75 74/3/74 
f 74/3/74 80/16/80 82/18/82 
f 83/19/83 76/7/76 75/5/75 
f 75/5/75 82/18/82 83/19/83 
f 84/20/84 77/9/77 76/7/76 
f 76/7/76 83/19/83 84/20/84 
f 85/21/85 78/11/78 77/9/77 
f 77/9/77 84/20/84 85/21/85 
f 86/22/86 79/13/79 78/11/78 
f 78/11/78 85/21/85 86/22/86 
f 81/23/81 73/15/73 79/13/79 
f 79/13/79 86/22/86 81/23/81 
f 87/24/87 80/16/80 81/17/81 
f 87/25/87 82/18/82 80/16/80 
f 87/26/87 83/19/83 82/18/82 
f 87/27/87 84/20/84 83/19/83 
f 87/28/87 85/21/85 84/20/84 
f 87/29/87 86/22/86 85/21/85 
f 87/30/87 81/23/81 86/22/86 
f 88/1/88 89/2/89 90/3/90 
f 88/4/88 90/3/90 91/5/91 
f 88/6/88 91/5/91 92/7/92 
f 88/8/88 92/7/92 93/9/93 
f 88/10/88 93/9/93 94/11/94 
f 88/12/88 94/11/94 95/13/95 
f 88/14/88 95/13/95 89/15/89 
f 96/16/96 90/3/90 89/2/89 
f 89/2/89 97/17/97 96/16/96 
f 98/18/98 91/5/91 90/3/90 
f 90/3/90 96/16/96 98/18/98 
f 99/19/99 92/7/92 91/5/91 
f 91/5/91 98/18/98 99/19/99 
f 100/20/100 93/9/93 92/7/92 
f 92/7/92 99/19/99 100/20/100 
f 101/21/101 94/11/94 93/9/93 
f 93/9/93 100/20/100 101/21/101 
f 102/22/102 95/13/95 94/11/94 
f 94/11/94 101/21/101 102/22/102 
f 97/23/97 89/15/89 95/13/95 
f 95/13/95 102/22/102 97/23/97 
f 103/24/103 96/16/96 97/17/97 
f 103/25/103 98/18/98 96/16/96 
f 103/26/103 99/19/99 98/18/98 
f 103/27/103 100/20/100 99/19/99 
f 103/28/103 101/21/101 100/20/100 
f 103/29/103 102/22/102 101/21/101 
f 103/30/103 97/23/97 102/22/102 
f 104/1/104 105/2/105 106/3/106 
f 104/4/104 106/3/106 107/5/107 
f 104/6/104 107/5/107 108/7/108 
f 104/8/104 108/7/108 109/9/109 
f 104/10/104 109/9/109 110/11/110 
f 104/12/104 110/11/110 111/13/111 
f 104/14/104 111/13/111 105/15/105 
f 112/16/112 106/3/106 105/2/105 
f 105/2/105 113/17/113 112/16/112 
f 114/18/114 107/5/107 106/3/106 
f 106/3/106 112/16/112 114/18/114 
f 115/19/115 108/7/108 107/5/107 
f 107/5/107 114/18/114 115/19/115 
f 116/20/116 109/9/109 108/7/108 
f 108/7/108 115/19/115 116/20/116 
f 117/21/117 110/11/110 109/9/109 
f 109/9/109 116/20/116 117/21/117 
f 118/22/118 111/13/111 110/11/110 
f 110/11/110 117/21/117 118/22/118 
f 113/23/113 105/15/105 111/13/111 
f 111/13/111 118/22/118 113/23/113 
f 119/24/119 112/16/112 113/17/113 
f 119/25/119 114/18/114 112/16/112 
f 119/26/119 115/19/115 114/18/114 
f 119/27/119 116/20/116 115/19/115 
f 119/28/119 117/21/117 116/20/116 
f 119/29/119 118/22/118 117/21/117 
f 119/30/119 113/23/113 118/22/118 
f 120/1/120 121/2/121 122/3/122 
f 120/4/120 122/3/122 123/5/123 
f 120/6/120 123/5/123 124/7/124 
f 120/8/120 124/7/124 125/9/125 
f 120/10/120 125/9/125 126/11/126 
f 120/12/120 126/11/126 127/13/127 
f 120/14/120 127/13/127 121/15/121 
f 128/16/128 122/3/122 121/2/121 
f 121/2/121 129/17/129 128/16/128 
f 130/18/130 123/5/123 122/3/122 
f 122/3/122 128/16/128 130/18/130 
f 131/19/131 124/7/124 123/5/123 
f 123/5/123 130/18/130 131/19/131 
f 132/20/132 125/9/125 124/7/124 
f 124/7/124 131/19/131 132/20/132 
f 133/21/133 126/11/126 125/9/125 
f 125/9/125 132/20/132 133/21/133 
f 134/22/134 127/13/127 126/11/126 
f 126/11/126 133/21/133 134/22/134 
f 129/23/129 121/15/121 127/13/127 
f 127/13/127 134/22/134 129/23/129 
f 135/24/135 128/16/128 129/17/129 
f 135/25/135 130/18/130 128/16/128 
f 135/26/135 131/19/131 130/18/130 
f 135/27/135 132/20/132 131/19/131 
f 135/28/135 133/21/133 132/20/132 
f 135/29/135 134/22/134 133/21/133 
f 135/30/135 129/23/129 134/22/134 
f 136/1/136 137/31/137 138/32/138 
f 136/33/136 138/32/138 139/34/139 
f 136/35/136 139/34/139 140/36/140 
f 136/37/136 140/36/140 141/38/141 
f 136/39/136 141/38/141 137/40/137 
f 142/41/142 138/32/138 137/31/137 
f 142/42/142 139/34/139 138/32/138 
f 142/43/142 140/36/140 139/34/139 
f 142/44/142 141/38/141 140/36/140 
f 142/45/142 137/40/137 141/38/141 
f 143/1/143 144/46/144 145/47/145 
f 143/48/143 145/47/145 146/49/146 
f 143/50/143 146/49/146 147/51/147 
f 143/52/143 147/51/147 144/53/144 
f 148/54/148 145/47/145 144/46/144 
f 148/55/148 146/49/146 145/47/145 
f 148/56/148 147/51/147 146/49/146 
f 148/57/148 144/53/144 147/51/147 
# 252 faces

