# 3ds Max Wavefront OBJ Exporter v0.97b - (c)2007 guruware
# File Created: 18.03.2019 10:07:59

mtllib stone_effect7.mtl

#
# object Sphere011
#

v  0.0000 57.4214 68.1175
v  -0.0000 76.6017 77.1058
v  -15.5744 72.9250 71.9545
v  -19.4210 63.1224 60.6628
v  -8.6431 55.2602 51.4584
v  8.6432 55.2162 51.2896
v  19.4210 62.7841 60.3797
v  15.5744 72.0886 71.9545
v  -19.4210 92.5143 63.8562
v  -0.0000 97.9475 69.9389
v  -24.2176 79.0867 50.2594
v  -10.7778 73.2390 37.1923
v  10.7778 73.1842 36.9818
v  24.2176 78.9636 49.7863
v  19.4210 92.3197 63.5154
v  0.0000 98.8618 44.2599
v  3.7119 47.6420 63.6374
v  3.0146 36.7165 63.1462
v  4.8161 40.2134 71.0141
v  9.0893 47.5628 73.2934
v  12.6164 53.2305 68.2677
v  12.7415 52.9485 59.7215
v  9.3703 46.9293 54.0902
v  5.0415 39.7054 55.6143
v  13.8620 33.7537 72.7462
v  11.6156 29.3931 62.9351
v  19.1906 42.9182 75.5884
v  23.5889 49.9857 69.3215
v  23.7448 49.6341 58.6645
v  19.5410 42.1282 51.6424
v  14.1430 33.1202 53.5430
v  27.0133 35.3580 63.3989
v  45.7374 32.4300 -13.4200
v  44.6031 31.8566 8.6499
v  40.3722 47.1954 2.1006
v  45.5550 54.1321 -12.6154
v  56.2486 47.4431 -24.4167
v  64.4006 32.1654 -24.4166
v  63.8723 19.8034 -12.6154
v  55.0616 19.6660 2.1006
v  53.3190 58.0570 15.2845
v  58.5947 38.9298 23.4513
v  59.7818 66.7069 -3.0660
v  73.1165 58.3659 -17.7820
v  83.2819 38.8911 -17.7820
v  82.6231 24.3062 -3.0660
v  71.6363 23.7283 15.2845
v  83.6430 50.9854 11.4150
v  48.0730 47.1080 37.2698
v  38.1159 26.3037 53.6816
v  31.3643 51.4133 60.3132
v  51.5096 63.0502 51.6243
v  70.7117 45.1326 39.6228
v  63.9462 21.7604 41.1601
v  56.0445 31.5383 71.8047
v  -58.1891 45.7803 24.9846
v  -71.2768 46.6442 9.2605
v  -69.0865 31.2466 11.6390
v  -56.8721 26.1262 16.6110
v  -43.8315 34.3703 21.7297
v  -39.7844 52.3330 21.2692
v  -47.7784 64.0091 16.9833
v  -61.7938 61.7527 11.6390
v  -66.9494 27.3646 -10.4710
v  -69.6807 46.6475 -13.4369
v  -51.7184 20.7147 -4.3114
v  -35.4569 30.2813 2.4028
v  -30.4103 53.4045 1.5376
v  -40.3786 67.9643 -3.8067
v  -57.8556 65.1506 -10.4710
v  -45.3646 44.3277 -24.9846
v  -34.1365 14.7765 -60.2509
v  -35.4679 35.9315 -52.0902
v  -32.0282 33.6014 -67.8638
v  -23.8687 23.9372 -78.1832
v  -17.1338 9.1088 -73.2256
v  -16.8949 2.0039 -57.9641
v  -23.3320 9.3401 -45.0263
v  -31.5978 25.1155 -41.1101
v  -14.7555 47.6927 -66.9766
v  -19.0448 49.9859 -47.0612
v  -4.5808 33.3604 -78.9281
v  3.8175 14.6979 -72.6771
v  4.1153 6.6068 -53.2716
v  -3.9116 15.0066 -36.4816
v  -14.2188 35.3885 -32.3245
v  10.3562 37.1331 -51.8075
v  -33.8752 26.7674 -40.5525
v  -34.3392 27.2586 -31.3760
v  -27.3204 31.3379 -34.0991
v  -23.0392 29.6488 -40.2179
v  -24.7194 23.4631 -45.1248
v  -31.0958 17.4389 -45.1248
v  -37.3668 16.1124 -40.2179
v  -38.8103 20.4826 -34.0991
v  -19.8630 26.2869 -28.6173
v  -28.6153 21.2001 -25.2216
v  -14.5244 24.1805 -36.2473
v  -16.6195 16.4671 -42.3662
v  -24.5708 8.9550 -42.3661
v  -32.3906 7.3010 -36.2473
v  -34.1906 12.7505 -28.6173
v  -18.3681 10.3538 -30.2262
v  -6.4452 112.9887 -21.0383
v  -7.1425 117.8804 -10.9126
v  -5.3410 123.5915 -17.3850
v  -1.0678 122.1401 -25.0132
v  2.4593 114.6191 -28.0529
v  2.5844 106.6921 -24.2152
v  -0.7868 104.3282 -16.3899
v  -5.1157 109.3075 -10.4697
v  3.7048 128.3924 -12.2458
v  1.4585 121.2709 -4.1747
v  9.0335 126.5826 -21.7579
v  13.4317 117.2041 -25.5484
v  13.5877 107.3193 -20.7629
v  9.3839 104.3715 -11.0049
v  3.9859 110.5806 -3.6225
v  16.8561 118.7848 -9.7850
v  -6.3696 34.9144 -62.6805
v  -7.0669 34.1091 -50.6786
v  -5.2654 42.8418 -53.6774
v  -0.9922 45.5255 -61.5378
v  2.5349 39.8337 -68.2181
v  2.6600 30.6018 -68.9086
v  -0.7112 24.4037 -62.9374
v  -5.0400 25.9034 -54.7997
v  3.7805 44.5886 -46.3602
v  1.5341 33.6991 -42.6208
v  9.1091 47.9351 -56.1620
v  13.5073 41.1375 -64.6127
v  13.6633 29.4971 -65.4220
v  9.4595 21.5967 -57.9072
v  4.0615 23.4668 -47.7598
v  16.9317 34.3538 -49.1520
v  32.3743 25.2022 -55.5663
v  49.6397 47.4137 -47.2523
v  26.8501 51.7356 -64.2013
v  23.0516 28.8016 -76.2738
v  43.0484 12.2405 -68.5576
v  59.9260 22.5402 -50.5778
v  56.1604 45.5666 -72.3484
v  82.4180 44.3179 -38.2935
v  86.2537 46.7678 -50.4244
v  76.4527 55.2698 -45.6060
v  71.0431 43.9268 -44.6206
v  80.8442 35.8303 -49.6019
v  74.8788 46.7463 -56.9000
# 148 vertices

vn -0.0054 -0.7595 0.7165
vn 0.0020 -0.0394 1.0351
vn -0.6097 -0.1597 0.8172
vn -0.8272 -0.5190 0.2182
vn -0.3836 -0.8108 -0.2989
vn 0.3642 -0.8167 -0.3037
vn 0.8232 -0.5244 0.2204
vn 0.6127 -0.1732 0.8130
vn -0.7596 0.5323 0.2933
vn 0.0072 0.7157 0.6099
vn -0.9438 0.0792 -0.3388
vn -0.4013 -0.1073 -0.9260
vn 0.3818 -0.1033 -0.9356
vn 0.9424 0.0881 -0.3417
vn 0.7650 0.5283 0.2881
vn -0.0009 0.8049 -0.6532
vn -0.8883 0.4416 -0.0497
vn -0.9057 -0.4071 0.0238
vn -0.7384 -0.1824 0.6877
vn -0.4252 0.3343 0.8252
vn -0.1488 0.8593 0.3416
vn -0.1378 0.8849 -0.4754
vn -0.3889 0.4343 -0.8763
vn -0.7224 -0.0989 -0.6945
vn -0.0402 -0.6397 0.8397
vn -0.2196 -0.9374 0.0659
vn 0.3337 -0.0276 0.9751
vn 0.6735 0.5475 0.4258
vn 0.6796 0.5847 -0.4879
vn 0.3636 0.0918 -0.9661
vn -0.0186 -0.5651 -0.7719
vn 0.8782 -0.4598 0.0420
vn -0.7884 -0.3318 -0.4887
vn -0.8131 -0.3899 0.4739
vn -0.9669 0.1680 0.1732
vn -0.7473 0.4873 -0.4972
vn -0.2796 0.2493 -0.9812
vn 0.0298 -0.2893 -0.9514
vn 0.0019 -0.8231 -0.4423
vn -0.4115 -0.8656 0.2422
vn -0.3736 0.5605 0.6824
vn -0.1863 -0.1253 1.0184
vn -0.1017 0.9565 -0.1013
vn 0.4386 0.6502 -0.6824
vn 0.7900 -0.0221 -0.6296
vn 0.7746 -0.6024 -0.0228
vn 0.3080 -0.6627 0.7498
vn 0.7853 0.3396 0.4871
vn -0.3608 0.2360 -0.9543
vn -0.7268 -0.6573 0.0031
vn -0.8492 0.3796 0.3198
vn 0.1026 0.9526 -0.0133
vn 0.8596 0.2766 -0.4662
vn 0.4318 -0.7396 -0.4041
vn 0.2759 -0.3417 0.9591
vn -0.3393 0.0229 0.9676
vn -0.9476 0.1518 0.2696
vn -0.8111 -0.4417 0.4224
vn -0.1444 -0.7691 0.6859
vn 0.4702 -0.4279 0.8335
vn 0.6046 0.1608 0.7857
vn 0.1339 0.7082 0.6057
vn -0.6314 0.6376 0.3443
vn -0.6404 -0.5524 -0.4648
vn -0.8196 0.1670 -0.5817
vn 0.1346 -0.9129 -0.1917
vn 0.8364 -0.5265 0.0350
vn 0.9829 0.1767 -0.0247
vn 0.4651 0.8355 -0.2666
vn -0.4070 0.7687 -0.5407
vn 0.3045 -0.0020 -0.9824
vn -0.8894 -0.4060 -0.1360
vn -0.9071 0.3650 0.1475
vn -0.7637 0.3494 -0.5890
vn -0.4241 0.0073 -0.9350
vn -0.1645 -0.5881 -0.7334
vn -0.1594 -0.9463 0.0253
vn -0.4429 -0.6541 0.6747
vn -0.7150 -0.1269 0.7222
vn -0.0394 0.8483 -0.5776
vn -0.1988 0.8659 0.3032
vn 0.3379 0.3448 -0.9358
vn 0.6572 -0.3349 -0.6526
vn 0.6734 -0.7015 0.2011
vn 0.3319 -0.4114 0.9127
vn -0.0066 0.2319 0.9755
vn 0.8906 0.3973 0.1520
vn -0.6072 0.5737 -0.6046
vn -0.6350 0.5581 0.4642
vn -0.0625 0.9293 0.1541
vn 0.3258 0.7935 -0.5635
vn 0.1497 0.3078 -0.9990
vn -0.3035 -0.0656 -0.9732
vn -0.8507 -0.2074 -0.4715
vn -0.9746 0.0930 0.1979
vn 0.4986 0.4511 0.7020
vn -0.1396 0.0728 1.0105
vn 0.9337 0.3412 -0.0867
vn 0.7484 -0.1581 -0.6453
vn 0.1858 -0.6753 -0.6342
vn -0.4484 -0.8553 0.0040
vn -0.5633 -0.4444 0.7556
vn 0.6090 -0.6160 0.5505
vn -0.8716 -0.1731 -0.4512
vn -0.8991 0.1295 0.4154
vn -0.7808 0.5941 -0.1607
vn -0.4164 0.4958 -0.8272
vn -0.1442 -0.0292 -1.0171
vn -0.1356 -0.6215 -0.7060
vn -0.4238 -0.8672 0.0093
vn -0.7565 -0.4749 0.4947
vn -0.0526 0.9044 0.2461
vn -0.2080 0.3325 0.9071
vn 0.3640 0.7911 -0.5377
vn 0.6669 0.1381 -0.7696
vn 0.6960 -0.5574 -0.3754
vn 0.3762 -0.8274 0.4456
vn -0.0275 -0.3778 0.9900
vn 0.8734 0.1866 0.4401
vn -0.8724 0.0413 -0.5068
vn -0.9037 -0.0528 0.4439
vn -0.7944 0.5326 0.1982
vn -0.4438 0.7782 -0.4828
vn -0.1511 0.3787 -0.9772
vn -0.1412 -0.2036 -0.9752
vn -0.4214 -0.6870 -0.5002
vn -0.7794 -0.5933 0.1773
vn -0.0522 0.6055 0.7326
vn -0.2061 -0.1030 1.0148
vn 0.3634 0.8943 -0.0425
vn 0.6833 0.4320 -0.6414
vn 0.6936 -0.2846 -0.6461
vn 0.3918 -0.8710 -0.0700
vn -0.0322 -0.7615 0.7131
vn 0.8736 -0.0403 0.5046
vn -0.6170 -0.4003 0.7332
vn 0.2576 0.5243 0.7650
vn -0.6457 0.7342 -0.0771
vn -0.7657 -0.1777 -0.6159
vn 0.0587 -0.8991 -0.2612
vn 0.7111 -0.4864 0.5574
vn 0.6481 0.4893 -0.6386
vn 0.3759 -0.1517 0.9587
vn 0.9178 0.2145 -0.3626
vn -0.1676 0.9240 0.1247
vn -0.9102 -0.2366 0.3699
vn 0.1722 -0.9218 -0.1318
vn -0.3710 0.1600 -0.9602
# 148 vertex normals

vt 0.0000 1.0000 0.0000
vt 0.0000 0.7143 0.0000
vt 0.1429 0.7143 0.0000
vt 0.1429 1.0000 0.0000
vt 0.2857 0.7143 0.0000
vt 0.2857 1.0000 0.0000
vt 0.4286 0.7143 0.0000
vt 0.4286 1.0000 0.0000
vt 0.5714 0.7143 0.0000
vt 0.5714 1.0000 0.0000
vt 0.7143 0.7143 0.0000
vt 0.7143 1.0000 0.0000
vt 0.8571 0.7143 0.0000
vt 0.8571 1.0000 0.0000
vt 1.0000 0.7143 0.0000
vt 0.1429 0.4286 0.0000
vt 0.0000 0.4286 0.0000
vt 0.2857 0.4286 0.0000
vt 0.4286 0.4286 0.0000
vt 0.5714 0.4286 0.0000
vt 0.7143 0.4286 0.0000
vt 0.8571 0.4286 0.0000
vt 1.0000 0.4286 0.0000
vt 0.0000 0.1429 0.0000
vt 0.1429 0.1429 0.0000
vt 0.2857 0.1429 0.0000
vt 0.4286 0.1429 0.0000
vt 0.5714 0.1429 0.0000
vt 0.7143 0.1429 0.0000
vt 0.8571 0.1429 0.0000
vt 0.0000 0.6000 0.0000
vt 0.2000 0.6000 0.0000
vt 0.2000 1.0000 0.0000
vt 0.4000 0.6000 0.0000
vt 0.4000 1.0000 0.0000
vt 0.6000 0.6000 0.0000
vt 0.6000 1.0000 0.0000
vt 0.8000 0.6000 0.0000
vt 0.8000 1.0000 0.0000
vt 1.0000 0.6000 0.0000
vt 0.0000 0.2000 0.0000
vt 0.2000 0.2000 0.0000
vt 0.4000 0.2000 0.0000
vt 0.6000 0.2000 0.0000
vt 0.8000 0.2000 0.0000
vt 0.0000 0.5000 0.0000
vt 0.2500 0.5000 0.0000
vt 0.2500 1.0000 0.0000
vt 0.5000 0.5000 0.0000
vt 0.5000 1.0000 0.0000
vt 0.7500 0.5000 0.0000
vt 0.7500 1.0000 0.0000
vt 1.0000 0.5000 0.0000
vt 0.0000 0.0000 0.0000
vt 0.2500 0.0000 0.0000
vt 0.5000 0.0000 0.0000
vt 0.7500 0.0000 0.0000
# 57 texture coords

o Sphere011
g Sphere011
usemtl Material__25
s 1
f 1/1/1 2/2/2 3/3/3 
f 1/4/1 3/3/3 4/5/4 
f 1/6/1 4/5/4 5/7/5 
f 1/8/1 5/7/5 6/9/6 
f 1/10/1 6/9/6 7/11/7 
f 1/12/1 7/11/7 8/13/8 
f 1/14/1 8/13/8 2/15/2 
f 9/16/9 3/3/3 2/2/2 
f 2/2/2 10/17/10 9/16/9 
f 11/18/11 4/5/4 3/3/3 
f 3/3/3 9/16/9 11/18/11 
f 12/19/12 5/7/5 4/5/4 
f 4/5/4 11/18/11 12/19/12 
f 13/20/13 6/9/6 5/7/5 
f 5/7/5 12/19/12 13/20/13 
f 14/21/14 7/11/7 6/9/6 
f 6/9/6 13/20/13 14/21/14 
f 15/22/15 8/13/8 7/11/7 
f 7/11/7 14/21/14 15/22/15 
f 10/23/10 2/15/2 8/13/8 
f 8/13/8 15/22/15 10/23/10 
f 16/24/16 9/16/9 10/17/10 
f 16/25/16 11/18/11 9/16/9 
f 16/26/16 12/19/12 11/18/11 
f 16/27/16 13/20/13 12/19/12 
f 16/28/16 14/21/14 13/20/13 
f 16/29/16 15/22/15 14/21/14 
f 16/30/16 10/23/10 15/22/15 
f 17/1/17 18/2/18 19/3/19 
f 17/4/17 19/3/19 20/5/20 
f 17/6/17 20/5/20 21/7/21 
f 17/8/17 21/7/21 22/9/22 
f 17/10/17 22/9/22 23/11/23 
f 17/12/17 23/11/23 24/13/24 
f 17/14/17 24/13/24 18/15/18 
f 25/16/25 19/3/19 18/2/18 
f 18/2/18 26/17/26 25/16/25 
f 27/18/27 20/5/20 19/3/19 
f 19/3/19 25/16/25 27/18/27 
f 28/19/28 21/7/21 20/5/20 
f 20/5/20 27/18/27 28/19/28 
f 29/20/29 22/9/22 21/7/21 
f 21/7/21 28/19/28 29/20/29 
f 30/21/30 23/11/23 22/9/22 
f 22/9/22 29/20/29 30/21/30 
f 31/22/31 24/13/24 23/11/23 
f 23/11/23 30/21/30 31/22/31 
f 26/23/26 18/15/18 24/13/24 
f 24/13/24 31/22/31 26/23/26 
f 32/24/32 25/16/25 26/17/26 
f 32/25/32 27/18/27 25/16/25 
f 32/26/32 28/19/28 27/18/27 
f 32/27/32 29/20/29 28/19/28 
f 32/28/32 30/21/30 29/20/29 
f 32/29/32 31/22/31 30/21/30 
f 32/30/32 26/23/26 31/22/31 
f 33/1/33 34/2/34 35/3/35 
f 33/4/33 35/3/35 36/5/36 
f 33/6/33 36/5/36 37/7/37 
f 33/8/33 37/7/37 38/9/38 
f 33/10/33 38/9/38 39/11/39 
f 33/12/33 39/11/39 40/13/40 
f 33/14/33 40/13/40 34/15/34 
f 41/16/41 35/3/35 34/2/34 
f 34/2/34 42/17/42 41/16/41 
f 43/18/43 36/5/36 35/3/35 
f 35/3/35 41/16/41 43/18/43 
f 44/19/44 37/7/37 36/5/36 
f 36/5/36 43/18/43 44/19/44 
f 45/20/45 38/9/38 37/7/37 
f 37/7/37 44/19/44 45/20/45 
f 46/21/46 39/11/39 38/9/38 
f 38/9/38 45/20/45 46/21/46 
f 47/22/47 40/13/40 39/11/39 
f 39/11/39 46/21/46 47/22/47 
f 42/23/42 34/15/34 40/13/40 
f 40/13/40 47/22/47 42/23/42 
f 48/24/48 41/16/41 42/17/42 
f 48/25/48 43/18/43 41/16/41 
f 48/26/48 44/19/44 43/18/43 
f 48/27/48 45/20/45 44/19/44 
f 48/28/48 46/21/46 45/20/45 
f 48/29/48 47/22/47 46/21/46 
f 48/30/48 42/23/42 47/22/47 
f 49/1/49 50/31/50 51/32/51 
f 49/33/49 51/32/51 52/34/52 
f 49/35/49 52/34/52 53/36/53 
f 49/37/49 53/36/53 54/38/54 
f 49/39/49 54/38/54 50/40/50 
f 55/41/55 51/32/51 50/31/50 
f 55/42/55 52/34/52 51/32/51 
f 55/43/55 53/36/53 52/34/52 
f 55/44/55 54/38/54 53/36/53 
f 55/45/55 50/40/50 54/38/54 
f 56/1/56 57/2/57 58/3/58 
f 56/4/56 58/3/58 59/5/59 
f 56/6/56 59/5/59 60/7/60 
f 56/8/56 60/7/60 61/9/61 
f 56/10/56 61/9/61 62/11/62 
f 56/12/56 62/11/62 63/13/63 
f 56/14/56 63/13/63 57/15/57 
f 64/16/64 58/3/58 57/2/57 
f 57/2/57 65/17/65 64/16/64 
f 66/18/66 59/5/59 58/3/58 
f 58/3/58 64/16/64 66/18/66 
f 67/19/67 60/7/60 59/5/59 
f 59/5/59 66/18/66 67/19/67 
f 68/20/68 61/9/61 60/7/60 
f 60/7/60 67/19/67 68/20/68 
f 69/21/69 62/11/62 61/9/61 
f 61/9/61 68/20/68 69/21/69 
f 70/22/70 63/13/63 62/11/62 
f 62/11/62 69/21/69 70/22/70 
f 65/23/65 57/15/57 63/13/63 
f 63/13/63 70/22/70 65/23/65 
f 71/24/71 64/16/64 65/17/65 
f 71/25/71 66/18/66 64/16/64 
f 71/26/71 67/19/67 66/18/66 
f 71/27/71 68/20/68 67/19/67 
f 71/28/71 69/21/69 68/20/68 
f 71/29/71 70/22/70 69/21/69 
f 71/30/71 65/23/65 70/22/70 
f 72/1/72 73/2/73 74/3/74 
f 72/4/72 74/3/74 75/5/75 
f 72/6/72 75/5/75 76/7/76 
f 72/8/72 76/7/76 77/9/77 
f 72/10/72 77/9/77 78/11/78 
f 72/12/72 78/11/78 79/13/79 
f 72/14/72 79/13/79 73/15/73 
f 80/16/80 74/3/74 73/2/73 
f 73/2/73 81/17/81 80/16/80 
f 82/18/82 75/5/75 74/3/74 
f 74/3/74 80/16/80 82/18/82 
f 83/19/83 76/7/76 75/5/75 
f 75/5/75 82/18/82 83/19/83 
f 84/20/84 77/9/77 76/7/76 
f 76/7/76 83/19/83 84/20/84 
f 85/21/85 78/11/78 77/9/77 
f 77/9/77 84/20/84 85/21/85 
f 86/22/86 79/13/79 78/11/78 
f 78/11/78 85/21/85 86/22/86 
f 81/23/81 73/15/73 79/13/79 
f 79/13/79 86/22/86 81/23/81 
f 87/24/87 80/16/80 81/17/81 
f 87/25/87 82/18/82 80/16/80 
f 87/26/87 83/19/83 82/18/82 
f 87/27/87 84/20/84 83/19/83 
f 87/28/87 85/21/85 84/20/84 
f 87/29/87 86/22/86 85/21/85 
f 87/30/87 81/23/81 86/22/86 
f 88/1/88 89/2/89 90/3/90 
f 88/4/88 90/3/90 91/5/91 
f 88/6/88 91/5/91 92/7/92 
f 88/8/88 92/7/92 93/9/93 
f 88/10/88 93/9/93 94/11/94 
f 88/12/88 94/11/94 95/13/95 
f 88/14/88 95/13/95 89/15/89 
f 96/16/96 90/3/90 89/2/89 
f 89/2/89 97/17/97 96/16/96 
f 98/18/98 91/5/91 90/3/90 
f 90/3/90 96/16/96 98/18/98 
f 99/19/99 92/7/92 91/5/91 
f 91/5/91 98/18/98 99/19/99 
f 100/20/100 93/9/93 92/7/92 
f 92/7/92 99/19/99 100/20/100 
f 101/21/101 94/11/94 93/9/93 
f 93/9/93 100/20/100 101/21/101 
f 102/22/102 95/13/95 94/11/94 
f 94/11/94 101/21/101 102/22/102 
f 97/23/97 89/15/89 95/13/95 
f 95/13/95 102/22/102 97/23/97 
f 103/24/103 96/16/96 97/17/97 
f 103/25/103 98/18/98 96/16/96 
f 103/26/103 99/19/99 98/18/98 
f 103/27/103 100/20/100 99/19/99 
f 103/28/103 101/21/101 100/20/100 
f 103/29/103 102/22/102 101/21/101 
f 103/30/103 97/23/97 102/22/102 
f 104/1/104 105/2/105 106/3/106 
f 104/4/104 106/3/106 107/5/107 
f 104/6/104 107/5/107 108/7/108 
f 104/8/104 108/7/108 109/9/109 
f 104/10/104 109/9/109 110/11/110 
f 104/12/104 110/11/110 111/13/111 
f 104/14/104 111/13/111 105/15/105 
f 112/16/112 106/3/106 105/2/105 
f 105/2/105 113/17/113 112/16/112 
f 114/18/114 107/5/107 106/3/106 
f 106/3/106 112/16/112 114/18/114 
f 115/19/115 108/7/108 107/5/107 
f 107/5/107 114/18/114 115/19/115 
f 116/20/116 109/9/109 108/7/108 
f 108/7/108 115/19/115 116/20/116 
f 117/21/117 110/11/110 109/9/109 
f 109/9/109 116/20/116 117/21/117 
f 118/22/118 111/13/111 110/11/110 
f 110/11/110 117/21/117 118/22/118 
f 113/23/113 105/15/105 111/13/111 
f 111/13/111 118/22/118 113/23/113 
f 119/24/119 112/16/112 113/17/113 
f 119/25/119 114/18/114 112/16/112 
f 119/26/119 115/19/115 114/18/114 
f 119/27/119 116/20/116 115/19/115 
f 119/28/119 117/21/117 116/20/116 
f 119/29/119 118/22/118 117/21/117 
f 119/30/119 113/23/113 118/22/118 
f 120/1/120 121/2/121 122/3/122 
f 120/4/120 122/3/122 123/5/123 
f 120/6/120 123/5/123 124/7/124 
f 120/8/120 124/7/124 125/9/125 
f 120/10/120 125/9/125 126/11/126 
f 120/12/120 126/11/126 127/13/127 
f 120/14/120 127/13/127 121/15/121 
f 128/16/128 122/3/122 121/2/121 
f 121/2/121 129/17/129 128/16/128 
f 130/18/130 123/5/123 122/3/122 
f 122/3/122 128/16/128 130/18/130 
f 131/19/131 124/7/124 123/5/123 
f 123/5/123 130/18/130 131/19/131 
f 132/20/132 125/9/125 124/7/124 
f 124/7/124 131/19/131 132/20/132 
f 133/21/133 126/11/126 125/9/125 
f 125/9/125 132/20/132 133/21/133 
f 134/22/134 127/13/127 126/11/126 
f 126/11/126 133/21/133 134/22/134 
f 129/23/129 121/15/121 127/13/127 
f 127/13/127 134/22/134 129/23/129 
f 135/24/135 128/16/128 129/17/129 
f 135/25/135 130/18/130 128/16/128 
f 135/26/135 131/19/131 130/18/130 
f 135/27/135 132/20/132 131/19/131 
f 135/28/135 133/21/133 132/20/132 
f 135/29/135 134/22/134 133/21/133 
f 135/30/135 129/23/129 134/22/134 
f 136/1/136 137/31/137 138/32/138 
f 136/33/136 138/32/138 139/34/139 
f 136/35/136 139/34/139 140/36/140 
f 136/37/136 140/36/140 141/38/141 
f 136/39/136 141/38/141 137/40/137 
f 142/41/142 138/32/138 137/31/137 
f 142/42/142 139/34/139 138/32/138 
f 142/43/142 140/36/140 139/34/139 
f 142/44/142 141/38/141 140/36/140 
f 142/45/142 137/40/137 141/38/141 
f 143/1/143 144/46/144 145/47/145 
f 143/48/143 145/47/145 146/49/146 
f 143/50/143 146/49/146 147/51/147 
f 143/52/143 147/51/147 144/53/144 
f 148/54/148 145/47/145 144/46/144 
f 148/55/148 146/49/146 145/47/145 
f 148/56/148 147/51/147 146/49/146 
f 148/57/148 144/53/144 147/51/147 
# 252 faces

