# 3ds Max Wavefront OBJ Exporter v0.97b - (c)2007 guruware
# File Created: 18.03.2019 10:08:00

mtllib stone_effect12.mtl

#
# object Sphere011
#

v  3.6496 44.7198 94.3045
v  3.9068 51.0073 113.6352
v  -11.8072 48.6756 108.0328
v  -17.1142 50.2677 94.1580
v  -8.0181 54.4177 82.4411
v  8.6317 57.8610 82.2503
v  20.2975 57.9838 93.0997
v  18.1947 55.4605 108.1830
v  -18.8980 67.5542 117.5957
v  0.6970 70.0035 124.7657
v  -25.5157 70.2253 99.6603
v  -14.1730 73.8534 85.1827
v  6.5890 78.1472 84.9448
v  21.1359 79.5707 97.9634
v  18.5138 75.5567 117.9671
v  -5.0440 92.6403 109.5960
v  2.8634 24.7194 91.5760
v  2.1661 16.2104 83.9520
v  3.9675 13.3452 92.2404
v  8.2407 17.6566 98.8471
v  11.7679 25.8980 98.7970
v  11.8930 31.8634 92.1280
v  8.5218 31.0608 83.8618
v  4.1929 24.0945 80.2231
v  13.0134 6.8483 89.2667
v  10.7671 10.4211 78.9312
v  18.3420 12.2246 97.5051
v  22.7403 22.5014 97.4426
v  22.8963 29.9401 89.1264
v  18.6925 28.9392 78.8187
v  13.2945 20.2525 74.2814
v  26.1647 14.9249 83.2420
v  84.4377 22.6844 -13.4200
v  83.1573 22.2462 8.6499
v  81.8907 38.1560 2.1006
v  88.6073 44.4914 -12.6154
v  98.2494 36.4817 -24.4167
v  103.5563 20.1584 -24.4167
v  100.5318 7.8132 -12.6154
v  91.4534 8.7424 2.1006
v  97.3708 47.4909 15.2845
v  98.9503 27.6517 23.4513
v  105.7462 55.3910 -3.0660
v  117.7697 45.4031 -17.7820
v  124.3873 24.9948 -17.7820
v  120.6159 9.3247 -3.0660
v  109.2953 10.8127 15.2845
v  127.2232 37.3288 11.4150
v  73.6794 44.5742 72.2986
v  50.0895 27.4009 81.0438
v  60.1922 47.3130 97.3934
v  85.4135 50.3898 90.7117
v  90.8984 32.3793 70.2325
v  68.2504 18.0220 64.3175
v  66.3065 17.2260 96.7022
v  -89.1313 41.0356 25.2039
v  -98.5510 32.1056 11.8233
v  -84.8224 23.7687 14.4432
v  -73.0301 27.4458 18.3462
v  -72.0538 40.8138 20.1865
v  -82.6288 54.3508 18.3836
v  -96.7919 56.6398 14.6508
v  -103.8779 46.6916 11.7506
v  -80.2830 18.5318 -7.0966
v  -97.4022 28.8942 -10.4921
v  -65.5782 23.0645 -2.1321
v  -64.3608 40.6936 -0.2992
v  -77.5476 56.5631 -2.2832
v  -95.2086 59.4880 -6.9661
v  -104.0447 47.0827 -10.5827
v  -79.9012 38.3642 -25.2877
v  -38.8782 -3.6608 -87.6279
v  -47.1153 13.6380 -94.6732
v  -39.1590 6.1813 -107.2953
v  -26.5118 -4.7403 -105.7755
v  -18.6972 -8.9431 -92.0453
v  -21.5999 -4.1921 -75.7745
v  -33.0340 5.6858 -68.7985
v  -44.3894 13.2395 -77.9059
v  -27.3311 22.2603 -115.1990
v  -37.2524 31.5052 -99.4380
v  -11.5602 9.2992 -113.5681
v  -1.8157 4.1511 -96.4842
v  -5.4352 9.8958 -76.4917
v  -19.6933 22.5891 -68.0636
v  -33.8533 31.6840 -78.8010
v  -7.2793 33.3963 -96.0433
v  -48.0753 16.3638 -42.7847
v  -48.5393 16.8549 -33.6082
v  -41.5205 20.9343 -36.3313
v  -37.2393 19.2451 -42.4501
v  -38.9195 13.0594 -47.3570
v  -45.2959 7.0352 -47.3571
v  -51.5669 5.7088 -42.4501
v  -53.0104 10.0790 -36.3313
v  -34.0631 15.8832 -30.8496
v  -42.8154 10.7964 -27.4539
v  -28.7244 13.7769 -38.4796
v  -30.8196 6.0634 -44.5984
v  -38.7709 -1.4486 -44.5984
v  -46.5907 -3.1027 -38.4796
v  -48.3907 2.3469 -30.8496
v  -32.5682 -0.0498 -32.4585
v  -6.4452 104.2819 -18.6244
v  -7.1425 113.5067 -13.4977
v  -5.3410 114.3917 -21.5500
v  -1.0678 109.1563 -26.6192
v  2.4593 101.7428 -24.8879
v  2.5844 97.6596 -17.9448
v  -0.7868 99.9913 -10.9801
v  -5.1157 107.1676 -8.5257
v  3.7048 120.8525 -20.2006
v  1.4585 119.7488 -10.1595
v  9.0335 114.3241 -26.5217
v  13.4317 105.0796 -24.3628
v  13.5877 100.0804 -15.3497
v  9.3839 103.0052 -6.5987
v  3.9859 111.8442 -3.9595
v  16.8561 114.8098 -13.1211
v  -5.3733 4.8320 -87.7395
v  -6.0706 11.6325 -79.9779
v  -4.2692 15.1030 -87.0982
v  0.0040 11.9557 -93.4910
v  3.5312 4.7256 -94.4088
v  3.6563 -1.4394 -89.0412
v  0.2851 -1.6930 -81.5122
v  -4.0438 4.1576 -77.4919
v  4.7767 20.6051 -83.7251
v  2.5303 16.2774 -74.8463
v  10.1053 16.6805 -91.6969
v  14.5036 7.5028 -92.7763
v  14.6596 -0.1155 -86.1109
v  10.4558 -0.3392 -76.7596
v  5.0578 6.9563 -71.7463
v  17.9280 12.7079 -79.2015
v  33.9330 22.8230 -79.1890
v  54.8396 42.5635 -86.7415
v  31.3644 41.8404 -101.1311
v  23.9621 17.2146 -98.8379
v  42.8625 2.5380 -83.3623
v  61.9459 18.1486 -75.4602
v  60.1619 27.3817 -107.5877
v  110.3896 26.6309 -42.1678
v  114.3326 25.0056 -55.5247
v  114.9677 35.7022 -51.2385
v  103.5581 32.1880 -48.1153
v  102.9230 21.4914 -52.4015
v  107.5011 30.5627 -61.4721
# 148 vertices

vn 0.2135 -0.9009 -0.1859
vn 0.1758 -0.6859 0.7756
vn -0.4631 -0.7414 0.5327
vn -0.7340 -0.5872 -0.2417
vn -0.3014 -0.3125 -0.8902
vn 0.3674 -0.1783 -0.9205
vn 0.8782 -0.2765 -0.3637
vn 0.7697 -0.4926 0.4474
vn -0.6986 -0.0729 0.7420
vn 0.0089 -0.0478 1.0356
vn -0.9831 0.1460 -0.1215
vn -0.5006 0.3767 -0.8380
vn 0.2335 0.5162 -0.8934
vn 0.8296 0.4892 -0.2911
vn 0.7100 0.2107 0.6671
vn -0.1917 0.9100 0.1676
vn -0.8830 0.3084 0.3194
vn -0.9042 -0.2576 -0.3145
vn -0.7695 -0.5139 0.4175
vn -0.4115 -0.2069 0.9365
vn -0.1483 0.3521 0.9088
vn -0.1392 0.8593 0.3451
vn -0.4269 0.8208 -0.3985
vn -0.7432 0.2995 -0.6440
vn -0.0465 -0.9576 0.1850
vn -0.2156 -0.6353 -0.6715
vn 0.3586 -0.5692 0.8075
vn 0.6664 0.1112 0.7476
vn 0.6980 0.6726 0.0836
vn 0.3694 0.6277 -0.7516
vn -0.0233 0.0458 -1.0352
vn 0.8772 -0.3300 -0.3098
vn -0.8306 -0.2105 -0.5050
vn -0.8590 -0.2658 0.4739
vn -0.9245 0.3142 0.1677
vn -0.6593 0.5955 -0.5056
vn -0.2396 0.2883 -0.9844
vn -0.0222 -0.2845 -0.9537
vn -0.1397 -0.8111 -0.4453
vn -0.5376 -0.7982 0.2408
vn -0.2815 0.6059 0.6795
vn -0.1960 -0.0977 1.0170
vn 0.0433 0.9606 -0.1057
vn 0.5237 0.5788 -0.6858
vn 0.7717 -0.1255 -0.6283
vn 0.6519 -0.7238 -0.0144
vn 0.1982 -0.6952 0.7595
vn 0.8295 0.2324 0.4937
vn -0.1304 0.6854 -0.7866
vn -0.9800 -0.1130 -0.1531
vn -0.5107 0.5920 0.5536
vn 0.6168 0.6557 0.3330
vn 0.8866 -0.0840 -0.4592
vn -0.0809 -0.5855 -0.7494
vn -0.0179 -0.7424 0.7373
vn -0.2317 -0.0843 1.0088
vn -0.7769 -0.4997 0.4219
vn -0.2486 -0.8056 0.5904
vn 0.4972 -0.5217 0.7561
vn 0.6891 0.1402 0.7168
vn 0.3355 0.6471 0.6085
vn -0.4530 0.6935 0.4640
vn -0.9276 0.0708 0.3700
vn -0.0340 -0.8977 -0.2687
vn -0.7142 -0.5198 -0.4013
vn 0.7965 -0.5662 -0.0789
vn 0.9646 0.2457 -0.0947
vn 0.5604 0.7848 -0.2315
vn -0.3109 0.8571 -0.4347
vn -0.8602 0.1787 -0.5096
vn 0.2117 0.0626 -1.0129
vn -0.6705 -0.7090 0.1626
vn -0.9817 0.0545 -0.1937
vn -0.6559 -0.2398 -0.7085
vn -0.1158 -0.6907 -0.6314
vn 0.2822 -0.9195 0.0236
vn 0.1769 -0.7321 0.7243
vn -0.3202 -0.3184 0.9508
vn -0.8572 0.0244 0.5280
vn -0.1675 0.3672 -0.9782
vn -0.5755 0.7347 -0.3818
vn 0.4763 -0.1297 -0.8820
vn 0.9106 -0.3566 -0.1486
vn 0.7831 -0.1605 0.6358
vn 0.2178 0.3125 0.9148
vn -0.4102 0.7164 0.4635
vn 0.6282 0.7413 -0.1895
vn -0.6072 0.5737 -0.6046
vn -0.6350 0.5581 0.4642
vn -0.0625 0.9293 0.1541
vn 0.3258 0.7935 -0.5635
vn 0.1497 0.3078 -0.9990
vn -0.3035 -0.0656 -0.9732
vn -0.8507 -0.2074 -0.4715
vn -0.9746 0.0930 0.1979
vn 0.4986 0.4511 0.7020
vn -0.1396 0.0728 1.0105
vn 0.9337 0.3412 -0.0867
vn 0.7484 -0.1581 -0.6453
vn 0.1858 -0.6753 -0.6342
vn -0.4484 -0.8553 0.0040
vn -0.5633 -0.4444 0.7556
vn 0.6090 -0.6160 0.5505
vn -0.8809 -0.3798 -0.2271
vn -0.8994 0.3333 0.2379
vn -0.7470 0.4403 -0.5459
vn -0.3974 0.0386 -0.9500
vn -0.1408 -0.5208 -0.7974
vn -0.1271 -0.9320 -0.1142
vn -0.4118 -0.7463 0.5750
vn -0.7116 -0.1999 0.7144
vn -0.0430 0.9122 -0.4239
vn -0.2167 0.7768 0.4795
vn 0.3446 0.4116 -0.9073
vn 0.6586 -0.2569 -0.6974
vn 0.6879 -0.6973 0.1067
vn 0.3496 -0.4836 0.8689
vn -0.0181 0.1318 1.0072
vn 0.8759 0.3959 0.2156
vn -0.8673 -0.2852 -0.3810
vn -0.8940 0.2312 0.3644
vn -0.7575 0.5669 -0.3517
vn -0.3948 0.3059 -0.9230
vn -0.1359 -0.2433 -0.9613
vn -0.1271 -0.7972 -0.4736
vn -0.4100 -0.8590 0.2846
vn -0.7313 -0.3693 0.6222
vn -0.0487 0.9592 -0.0542
vn -0.2104 0.5472 0.7595
vn 0.3525 0.6514 -0.7380
vn 0.6542 -0.0328 -0.7758
vn 0.6857 -0.6590 -0.1799
vn 0.3607 -0.7067 0.6705
vn -0.0246 -0.1519 1.0351
vn 0.8729 0.2961 0.3578
vn -0.5716 0.0595 0.8375
vn 0.3978 0.8064 0.2946
vn -0.5663 0.7331 -0.4039
vn -0.8439 -0.3303 -0.3887
vn -0.0608 -0.9461 0.2774
vn 0.7106 -0.2551 0.7004
vn 0.6329 0.0299 -0.8014
vn 0.2096 -0.2917 0.9912
vn 0.7483 -0.5157 -0.3457
vn 0.5953 0.7661 0.0221
vn -0.7483 0.5157 0.3457
vn -0.5953 -0.7661 -0.0221
vn -0.2096 0.2917 -0.9912
# 148 vertex normals

vt 0.0000 1.0000 0.0000
vt 0.0000 0.7143 0.0000
vt 0.1429 0.7143 0.0000
vt 0.1429 1.0000 0.0000
vt 0.2857 0.7143 0.0000
vt 0.2857 1.0000 0.0000
vt 0.4286 0.7143 0.0000
vt 0.4286 1.0000 0.0000
vt 0.5714 0.7143 0.0000
vt 0.5714 1.0000 0.0000
vt 0.7143 0.7143 0.0000
vt 0.7143 1.0000 0.0000
vt 0.8571 0.7143 0.0000
vt 0.8571 1.0000 0.0000
vt 1.0000 0.7143 0.0000
vt 0.1429 0.4286 0.0000
vt 0.0000 0.4286 0.0000
vt 0.2857 0.4286 0.0000
vt 0.4286 0.4286 0.0000
vt 0.5714 0.4286 0.0000
vt 0.7143 0.4286 0.0000
vt 0.8571 0.4286 0.0000
vt 1.0000 0.4286 0.0000
vt 0.0000 0.1429 0.0000
vt 0.1429 0.1429 0.0000
vt 0.2857 0.1429 0.0000
vt 0.4286 0.1429 0.0000
vt 0.5714 0.1429 0.0000
vt 0.7143 0.1429 0.0000
vt 0.8571 0.1429 0.0000
vt 0.0000 0.6000 0.0000
vt 0.2000 0.6000 0.0000
vt 0.2000 1.0000 0.0000
vt 0.4000 0.6000 0.0000
vt 0.4000 1.0000 0.0000
vt 0.6000 0.6000 0.0000
vt 0.6000 1.0000 0.0000
vt 0.8000 0.6000 0.0000
vt 0.8000 1.0000 0.0000
vt 1.0000 0.6000 0.0000
vt 0.0000 0.2000 0.0000
vt 0.2000 0.2000 0.0000
vt 0.4000 0.2000 0.0000
vt 0.6000 0.2000 0.0000
vt 0.8000 0.2000 0.0000
vt 0.0000 0.5000 0.0000
vt 0.2500 0.5000 0.0000
vt 0.2500 1.0000 0.0000
vt 0.5000 0.5000 0.0000
vt 0.5000 1.0000 0.0000
vt 0.7500 0.5000 0.0000
vt 0.7500 1.0000 0.0000
vt 1.0000 0.5000 0.0000
vt 0.0000 0.0000 0.0000
vt 0.2500 0.0000 0.0000
vt 0.5000 0.0000 0.0000
vt 0.7500 0.0000 0.0000
# 57 texture coords

o Sphere011
g Sphere011
usemtl Material__25
s 1
f 1/1/1 2/2/2 3/3/3 
f 1/4/1 3/3/3 4/5/4 
f 1/6/1 4/5/4 5/7/5 
f 1/8/1 5/7/5 6/9/6 
f 1/10/1 6/9/6 7/11/7 
f 1/12/1 7/11/7 8/13/8 
f 1/14/1 8/13/8 2/15/2 
f 9/16/9 3/3/3 2/2/2 
f 2/2/2 10/17/10 9/16/9 
f 11/18/11 4/5/4 3/3/3 
f 3/3/3 9/16/9 11/18/11 
f 12/19/12 5/7/5 4/5/4 
f 4/5/4 11/18/11 12/19/12 
f 13/20/13 6/9/6 5/7/5 
f 5/7/5 12/19/12 13/20/13 
f 14/21/14 7/11/7 6/9/6 
f 6/9/6 13/20/13 14/21/14 
f 15/22/15 8/13/8 7/11/7 
f 7/11/7 14/21/14 15/22/15 
f 10/23/10 2/15/2 8/13/8 
f 8/13/8 15/22/15 10/23/10 
f 16/24/16 9/16/9 10/17/10 
f 16/25/16 11/18/11 9/16/9 
f 16/26/16 12/19/12 11/18/11 
f 16/27/16 13/20/13 12/19/12 
f 16/28/16 14/21/14 13/20/13 
f 16/29/16 15/22/15 14/21/14 
f 16/30/16 10/23/10 15/22/15 
f 17/1/17 18/2/18 19/3/19 
f 17/4/17 19/3/19 20/5/20 
f 17/6/17 20/5/20 21/7/21 
f 17/8/17 21/7/21 22/9/22 
f 17/10/17 22/9/22 23/11/23 
f 17/12/17 23/11/23 24/13/24 
f 17/14/17 24/13/24 18/15/18 
f 25/16/25 19/3/19 18/2/18 
f 18/2/18 26/17/26 25/16/25 
f 27/18/27 20/5/20 19/3/19 
f 19/3/19 25/16/25 27/18/27 
f 28/19/28 21/7/21 20/5/20 
f 20/5/20 27/18/27 28/19/28 
f 29/20/29 22/9/22 21/7/21 
f 21/7/21 28/19/28 29/20/29 
f 30/21/30 23/11/23 22/9/22 
f 22/9/22 29/20/29 30/21/30 
f 31/22/31 24/13/24 23/11/23 
f 23/11/23 30/21/30 31/22/31 
f 26/23/26 18/15/18 24/13/24 
f 24/13/24 31/22/31 26/23/26 
f 32/24/32 25/16/25 26/17/26 
f 32/25/32 27/18/27 25/16/25 
f 32/26/32 28/19/28 27/18/27 
f 32/27/32 29/20/29 28/19/28 
f 32/28/32 30/21/30 29/20/29 
f 32/29/32 31/22/31 30/21/30 
f 32/30/32 26/23/26 31/22/31 
f 33/1/33 34/2/34 35/3/35 
f 33/4/33 35/3/35 36/5/36 
f 33/6/33 36/5/36 37/7/37 
f 33/8/33 37/7/37 38/9/38 
f 33/10/33 38/9/38 39/11/39 
f 33/12/33 39/11/39 40/13/40 
f 33/14/33 40/13/40 34/15/34 
f 41/16/41 35/3/35 34/2/34 
f 34/2/34 42/17/42 41/16/41 
f 43/18/43 36/5/36 35/3/35 
f 35/3/35 41/16/41 43/18/43 
f 44/19/44 37/7/37 36/5/36 
f 36/5/36 43/18/43 44/19/44 
f 45/20/45 38/9/38 37/7/37 
f 37/7/37 44/19/44 45/20/45 
f 46/21/46 39/11/39 38/9/38 
f 38/9/38 45/20/45 46/21/46 
f 47/22/47 40/13/40 39/11/39 
f 39/11/39 46/21/46 47/22/47 
f 42/23/42 34/15/34 40/13/40 
f 40/13/40 47/22/47 42/23/42 
f 48/24/48 41/16/41 42/17/42 
f 48/25/48 43/18/43 41/16/41 
f 48/26/48 44/19/44 43/18/43 
f 48/27/48 45/20/45 44/19/44 
f 48/28/48 46/21/46 45/20/45 
f 48/29/48 47/22/47 46/21/46 
f 48/30/48 42/23/42 47/22/47 
f 49/1/49 50/31/50 51/32/51 
f 49/33/49 51/32/51 52/34/52 
f 49/35/49 52/34/52 53/36/53 
f 49/37/49 53/36/53 54/38/54 
f 49/39/49 54/38/54 50/40/50 
f 55/41/55 51/32/51 50/31/50 
f 55/42/55 52/34/52 51/32/51 
f 55/43/55 53/36/53 52/34/52 
f 55/44/55 54/38/54 53/36/53 
f 55/45/55 50/40/50 54/38/54 
f 56/1/56 57/2/57 58/3/58 
f 56/4/56 58/3/58 59/5/59 
f 56/6/56 59/5/59 60/7/60 
f 56/8/56 60/7/60 61/9/61 
f 56/10/56 61/9/61 62/11/62 
f 56/12/56 62/11/62 63/13/63 
f 56/14/56 63/13/63 57/15/57 
f 64/16/64 58/3/58 57/2/57 
f 57/2/57 65/17/65 64/16/64 
f 66/18/66 59/5/59 58/3/58 
f 58/3/58 64/16/64 66/18/66 
f 67/19/67 60/7/60 59/5/59 
f 59/5/59 66/18/66 67/19/67 
f 68/20/68 61/9/61 60/7/60 
f 60/7/60 67/19/67 68/20/68 
f 69/21/69 62/11/62 61/9/61 
f 61/9/61 68/20/68 69/21/69 
f 70/22/70 63/13/63 62/11/62 
f 62/11/62 69/21/69 70/22/70 
f 65/23/65 57/15/57 63/13/63 
f 63/13/63 70/22/70 65/23/65 
f 71/24/71 64/16/64 65/17/65 
f 71/25/71 66/18/66 64/16/64 
f 71/26/71 67/19/67 66/18/66 
f 71/27/71 68/20/68 67/19/67 
f 71/28/71 69/21/69 68/20/68 
f 71/29/71 70/22/70 69/21/69 
f 71/30/71 65/23/65 70/22/70 
f 72/1/72 73/2/73 74/3/74 
f 72/4/72 74/3/74 75/5/75 
f 72/6/72 75/5/75 76/7/76 
f 72/8/72 76/7/76 77/9/77 
f 72/10/72 77/9/77 78/11/78 
f 72/12/72 78/11/78 79/13/79 
f 72/14/72 79/13/79 73/15/73 
f 80/16/80 74/3/74 73/2/73 
f 73/2/73 81/17/81 80/16/80 
f 82/18/82 75/5/75 74/3/74 
f 74/3/74 80/16/80 82/18/82 
f 83/19/83 76/7/76 75/5/75 
f 75/5/75 82/18/82 83/19/83 
f 84/20/84 77/9/77 76/7/76 
f 76/7/76 83/19/83 84/20/84 
f 85/21/85 78/11/78 77/9/77 
f 77/9/77 84/20/84 85/21/85 
f 86/22/86 79/13/79 78/11/78 
f 78/11/78 85/21/85 86/22/86 
f 81/23/81 73/15/73 79/13/79 
f 79/13/79 86/22/86 81/23/81 
f 87/24/87 80/16/80 81/17/81 
f 87/25/87 82/18/82 80/16/80 
f 87/26/87 83/19/83 82/18/82 
f 87/27/87 84/20/84 83/19/83 
f 87/28/87 85/21/85 84/20/84 
f 87/29/87 86/22/86 85/21/85 
f 87/30/87 81/23/81 86/22/86 
f 88/1/88 89/2/89 90/3/90 
f 88/4/88 90/3/90 91/5/91 
f 88/6/88 91/5/91 92/7/92 
f 88/8/88 92/7/92 93/9/93 
f 88/10/88 93/9/93 94/11/94 
f 88/12/88 94/11/94 95/13/95 
f 88/14/88 95/13/95 89/15/89 
f 96/16/96 90/3/90 89/2/89 
f 89/2/89 97/17/97 96/16/96 
f 98/18/98 91/5/91 90/3/90 
f 90/3/90 96/16/96 98/18/98 
f 99/19/99 92/7/92 91/5/91 
f 91/5/91 98/18/98 99/19/99 
f 100/20/100 93/9/93 92/7/92 
f 92/7/92 99/19/99 100/20/100 
f 101/21/101 94/11/94 93/9/93 
f 93/9/93 100/20/100 101/21/101 
f 102/22/102 95/13/95 94/11/94 
f 94/11/94 101/21/101 102/22/102 
f 97/23/97 89/15/89 95/13/95 
f 95/13/95 102/22/102 97/23/97 
f 103/24/103 96/16/96 97/17/97 
f 103/25/103 98/18/98 96/16/96 
f 103/26/103 99/19/99 98/18/98 
f 103/27/103 100/20/100 99/19/99 
f 103/28/103 101/21/101 100/20/100 
f 103/29/103 102/22/102 101/21/101 
f 103/30/103 97/23/97 102/22/102 
f 104/1/104 105/2/105 106/3/106 
f 104/4/104 106/3/106 107/5/107 
f 104/6/104 107/5/107 108/7/108 
f 104/8/104 108/7/108 109/9/109 
f 104/10/104 109/9/109 110/11/110 
f 104/12/104 110/11/110 111/13/111 
f 104/14/104 111/13/111 105/15/105 
f 112/16/112 106/3/106 105/2/105 
f 105/2/105 113/17/113 112/16/112 
f 114/18/114 107/5/107 106/3/106 
f 106/3/106 112/16/112 114/18/114 
f 115/19/115 108/7/108 107/5/107 
f 107/5/107 114/18/114 115/19/115 
f 116/20/116 109/9/109 108/7/108 
f 108/7/108 115/19/115 116/20/116 
f 117/21/117 110/11/110 109/9/109 
f 109/9/109 116/20/116 117/21/117 
f 118/22/118 111/13/111 110/11/110 
f 110/11/110 117/21/117 118/22/118 
f 113/23/113 105/15/105 111/13/111 
f 111/13/111 118/22/118 113/23/113 
f 119/24/119 112/16/112 113/17/113 
f 119/25/119 114/18/114 112/16/112 
f 119/26/119 115/19/115 114/18/114 
f 119/27/119 116/20/116 115/19/115 
f 119/28/119 117/21/117 116/20/116 
f 119/29/119 118/22/118 117/21/117 
f 119/30/119 113/23/113 118/22/118 
f 120/1/120 121/2/121 122/3/122 
f 120/4/120 122/3/122 123/5/123 
f 120/6/120 123/5/123 124/7/124 
f 120/8/120 124/7/124 125/9/125 
f 120/10/120 125/9/125 126/11/126 
f 120/12/120 126/11/126 127/13/127 
f 120/14/120 127/13/127 121/15/121 
f 128/16/128 122/3/122 121/2/121 
f 121/2/121 129/17/129 128/16/128 
f 130/18/130 123/5/123 122/3/122 
f 122/3/122 128/16/128 130/18/130 
f 131/19/131 124/7/124 123/5/123 
f 123/5/123 130/18/130 131/19/131 
f 132/20/132 125/9/125 124/7/124 
f 124/7/124 131/19/131 132/20/132 
f 133/21/133 126/11/126 125/9/125 
f 125/9/125 132/20/132 133/21/133 
f 134/22/134 127/13/127 126/11/126 
f 126/11/126 133/21/133 134/22/134 
f 129/23/129 121/15/121 127/13/127 
f 127/13/127 134/22/134 129/23/129 
f 135/24/135 128/16/128 129/17/129 
f 135/25/135 130/18/130 128/16/128 
f 135/26/135 131/19/131 130/18/130 
f 135/27/135 132/20/132 131/19/131 
f 135/28/135 133/21/133 132/20/132 
f 135/29/135 134/22/134 133/21/133 
f 135/30/135 129/23/129 134/22/134 
f 136/1/136 137/31/137 138/32/138 
f 136/33/136 138/32/138 139/34/139 
f 136/35/136 139/34/139 140/36/140 
f 136/37/136 140/36/140 141/38/141 
f 136/39/136 141/38/141 137/40/137 
f 142/41/142 138/32/138 137/31/137 
f 142/42/142 139/34/139 138/32/138 
f 142/43/142 140/36/140 139/34/139 
f 142/44/142 141/38/141 140/36/140 
f 142/45/142 137/40/137 141/38/141 
f 143/1/143 144/46/144 145/47/145 
f 143/48/143 145/47/145 146/49/146 
f 143/50/143 146/49/146 147/51/147 
f 143/52/143 147/51/147 144/53/144 
f 148/54/148 145/47/145 144/46/144 
f 148/55/148 146/49/146 145/47/145 
f 148/56/148 147/51/147 146/49/146 
f 148/57/148 144/53/144 147/51/147 
# 252 faces

