# 3ds Max Wavefront OBJ Exporter v0.97b - (c)2007 guruware
# File Created: 18.03.2019 10:07:59

mtllib stone_effect8.mtl

#
# object Sphere011
#

v  0.0000 56.1263 72.8931
v  -0.0000 73.8450 83.9703
v  -15.5744 70.8881 78.3922
v  -19.4210 63.0402 66.0797
v  -8.6431 56.5523 56.1670
v  8.6432 56.5180 56.0351
v  19.4210 62.7759 65.8585
v  15.5744 70.2347 78.3922
v  -19.4210 91.8664 72.5408
v  -0.0000 96.2163 79.2302
v  -24.2176 81.0353 57.6071
v  -10.7778 75.4242 44.2501
v  10.7778 75.3814 44.0856
v  24.2176 80.9391 57.2375
v  19.4210 91.7143 72.2745
v  0.0000 101.5101 54.0060
v  3.7119 44.3603 68.8824
v  3.0146 33.3226 66.6979
v  4.8161 35.2449 75.1553
v  9.0893 42.2627 78.5856
v  12.6164 49.0914 74.4058
v  12.7415 50.5890 65.7633
v  9.3703 45.6277 59.1660
v  5.0415 37.9434 59.5820
v  13.8620 28.2964 75.8987
v  11.6156 25.8993 65.3524
v  19.1906 37.0474 80.1763
v  23.5889 45.5628 74.9641
v  23.7448 47.4302 64.1870
v  19.5410 41.2435 55.9604
v  14.1430 31.6614 56.4791
v  27.0133 31.8846 66.7419
v  49.7915 35.3013 -13.4200
v  48.5888 34.8255 8.6499
v  45.8270 50.5867 2.1006
v  51.7477 57.0917 -12.6154
v  61.8925 49.4419 -24.4167
v  68.6222 33.3980 -24.4167
v  66.8691 21.0411 -12.6154
v  57.9534 21.6764 2.1006
v  59.9794 60.3483 15.2845
v  63.4233 40.6944 23.4513
v  67.3624 68.4599 -3.0660
v  80.0128 58.9208 -17.7820
v  88.4046 38.8283 -17.7820
v  86.2185 23.9186 -3.0660
v  75.1008 24.2978 15.2845
v  89.9804 51.0113 11.4150
v  54.0900 52.0230 41.5776
v  41.0246 30.2895 55.5342
v  36.9745 55.5328 64.4224
v  59.0078 66.4968 57.6844
v  76.6752 48.0298 44.6319
v  66.7425 25.4456 43.3861
v  59.1803 32.3464 74.9435
v  -63.3341 46.7134 24.9846
v  -76.6536 46.6561 9.2605
v  -72.3631 31.2576 11.6390
v  -59.4234 27.2892 16.6924
v  -47.5784 37.0637 21.6290
v  -45.7476 55.1269 21.2692
v  -55.3096 65.9400 16.9833
v  -69.0641 62.2562 11.6390
v  -69.6791 27.4696 -10.4710
v  -75.0292 46.6971 -13.4369
v  -53.5436 22.4334 -4.2010
v  -38.7731 34.0646 2.2136
v  -36.4901 57.1546 1.5376
v  -48.4137 70.6384 -3.8067
v  -65.5652 66.0448 -10.4710
v  -50.2827 46.5801 -24.9846
v  -34.1365 13.9490 -62.8659
v  -35.4679 35.7908 -57.2434
v  -32.0282 32.1146 -73.3615
v  -23.8687 20.3649 -81.7017
v  -17.1338 6.0925 -74.6591
v  -16.8949 1.3900 -58.5057
v  -23.3320 10.4421 -46.1217
v  -31.5978 26.2943 -44.5483
v  -14.7555 46.0129 -74.0871
v  -19.0448 50.4522 -53.9300
v  -4.5808 30.0773 -83.9713
v  3.8175 12.1458 -75.1355
v  4.1153 6.6780 -54.6176
v  -3.9116 17.4058 -38.7347
v  -14.2188 37.6767 -37.5373
v  10.3562 37.3950 -57.2849
v  -37.0791 25.5472 -41.6350
v  -37.5431 26.0384 -32.4585
v  -30.5243 30.1177 -35.1816
v  -26.2431 28.4285 -41.3004
v  -27.9233 22.2429 -46.2073
v  -34.2997 16.2186 -46.2073
v  -40.5707 14.8922 -41.3004
v  -42.0142 19.2624 -35.1816
v  -23.0669 25.0666 -29.6998
v  -31.8192 19.9798 -26.3041
v  -17.7283 22.9603 -37.3298
v  -19.8234 15.2469 -43.4487
v  -27.7747 7.7348 -43.4487
v  -35.5945 6.0807 -37.3298
v  -37.3945 11.5303 -29.6998
v  -21.5720 9.1336 -31.3087
v  -6.4452 118.7234 -20.8933
v  -7.1425 124.5803 -11.0497
v  -5.3410 129.8047 -18.1214
v  -1.0678 127.6591 -25.7340
v  2.4593 119.7591 -28.1552
v  2.5844 112.0537 -23.5618
v  -0.7868 110.3451 -15.4126
v  -5.1157 115.9200 -9.8442
v  3.7048 135.1298 -13.3298
v  1.4585 128.6151 -4.5116
v  9.0335 132.4542 -22.8226
v  13.4317 122.6031 -25.8418
v  13.5877 112.9946 -20.1138
v  9.3839 110.8640 -9.9520
v  3.9859 117.8158 -3.0083
v  16.8561 125.5975 -9.9853
v  -5.6580 31.5913 -68.4331
v  -6.3553 30.9601 -56.5284
v  -4.5538 39.5723 -59.6214
v  -0.2806 42.1226 -67.4483
v  3.2465 36.4518 -74.0192
v  3.3716 27.2592 -74.5586
v  0.0004 21.1718 -68.5417
v  -4.3284 22.7711 -60.4982
v  4.4921 41.4051 -52.3945
v  2.2457 30.6658 -48.5375
v  9.8207 44.5853 -62.1544
v  14.2190 37.7480 -70.4424
v  14.3749 26.1847 -71.0747
v  10.1711 18.4600 -63.5179
v  4.7731 20.4543 -53.4879
v  17.6434 31.2238 -55.0189
v  33.5059 24.8095 -58.4242
v  53.3971 46.4465 -54.3357
v  30.1172 50.9297 -69.7148
v  23.7253 27.0512 -79.0939
v  42.9156 8.7831 -70.2130
v  61.3929 20.5804 -54.9728
v  59.0681 41.6423 -79.3351
v  87.5947 44.9045 -39.7622
v  91.9587 46.4596 -52.3609
v  82.8898 55.6780 -47.9689
v  76.4841 44.9172 -46.1150
v  85.5530 35.8255 -50.5580
v  80.8481 46.5878 -58.7601
# 148 vertices

vn -0.0055 -0.8378 0.5987
vn -0.0003 -0.1394 1.0361
vn -0.6147 -0.2381 0.7988
vn -0.8335 -0.5267 0.1330
vn -0.3784 -0.7545 -0.4231
vn 0.3648 -0.7577 -0.4280
vn 0.8311 -0.5308 0.1286
vn 0.6162 -0.2484 0.7950
vn -0.7525 0.4832 0.3857
vn 0.0060 0.6100 0.7300
vn -0.9408 0.1276 -0.3358
vn -0.3944 -0.0355 -0.9433
vn 0.3814 -0.0337 -0.9492
vn 0.9397 0.1310 -0.3380
vn 0.7572 0.4798 0.3817
vn -0.0001 0.8713 -0.5324
vn -0.8913 0.4256 0.0544
vn -0.9076 -0.3876 -0.0782
vn -0.7464 -0.2727 0.6513
vn -0.4181 0.2067 0.8876
vn -0.1510 0.7590 0.5300
vn -0.1405 0.9385 -0.2751
vn -0.4058 0.5481 -0.7975
vn -0.7262 0.0019 -0.7094
vn -0.0407 -0.7590 0.7158
vn -0.2192 -0.9104 -0.1421
vn 0.3413 -0.1624 0.9718
vn 0.6713 0.4497 0.5435
vn 0.6878 0.6448 -0.3578
vn 0.3636 0.2249 -0.9551
vn -0.0197 -0.4204 -0.8811
vn 0.8793 -0.4481 -0.0522
vn -0.8165 -0.2656 -0.4936
vn -0.8433 -0.3213 0.4698
vn -0.9470 0.2477 0.1704
vn -0.6977 0.5501 -0.5056
vn -0.2570 0.2705 -0.9837
vn -0.0035 -0.2888 -0.9521
vn -0.0822 -0.8189 -0.4434
vn -0.4949 -0.8238 0.2403
vn -0.3175 0.5883 0.6824
vn -0.1928 -0.1108 1.0175
vn -0.0117 0.9614 -0.1059
vn 0.4931 0.6088 -0.6827
vn 0.7823 -0.0804 -0.6279
vn 0.7130 -0.6685 -0.0201
vn 0.2447 -0.6857 0.7535
vn 0.8137 0.2781 0.4894
vn -0.3031 0.3433 -0.9494
vn -0.7816 -0.5819 -0.0919
vn -0.8224 0.4245 0.3234
vn 0.1895 0.9277 0.0851
vn 0.8999 0.2256 -0.4042
vn 0.3731 -0.7237 -0.4797
vn 0.2113 -0.4562 0.9319
vn -0.3406 -0.0152 0.9715
vn -0.9596 0.0577 0.2772
vn -0.7569 -0.5252 0.4282
vn -0.0439 -0.7787 0.6895
vn 0.5208 -0.3737 0.8254
vn 0.5773 0.2203 0.7842
vn 0.0418 0.7179 0.6056
vn -0.7018 0.5667 0.3502
vn -0.5653 -0.6213 -0.4603
vn -0.8298 0.0835 -0.5779
vn 0.2558 -0.8914 -0.1842
vn 0.8965 -0.4254 0.0254
vn 0.9572 0.2784 -0.0298
vn 0.3612 0.8820 -0.2703
vn -0.4916 0.7203 -0.5375
vn 0.3102 0.0289 -0.9834
vn -0.8924 -0.4185 -0.0771
vn -0.9094 0.3789 0.0953
vn -0.7573 0.2935 -0.6281
vn -0.4252 -0.1186 -0.9119
vn -0.1666 -0.6921 -0.6188
vn -0.1598 -0.9464 0.1823
vn -0.4318 -0.5802 0.7557
vn -0.7143 -0.0510 0.7255
vn -0.0378 0.7875 -0.6776
vn -0.2014 0.9032 0.1865
vn 0.3392 0.2355 -0.9630
vn 0.6612 -0.4122 -0.5896
vn 0.6756 -0.6752 0.3065
vn 0.3425 -0.3018 0.9468
vn -0.0031 0.3437 0.9255
vn 0.8896 0.4200 0.0917
vn -0.6072 0.5737 -0.6046
vn -0.6350 0.5581 0.4642
vn -0.0625 0.9293 0.1541
vn 0.3258 0.7935 -0.5635
vn 0.1497 0.3078 -0.9990
vn -0.3035 -0.0656 -0.9732
vn -0.8507 -0.2074 -0.4715
vn -0.9746 0.0930 0.1979
vn 0.4986 0.4511 0.7020
vn -0.1396 0.0728 1.0105
vn 0.9337 0.3412 -0.0867
vn 0.7484 -0.1581 -0.6453
vn 0.1858 -0.6753 -0.6342
vn -0.4484 -0.8553 0.0040
vn -0.5633 -0.4444 0.7556
vn 0.6090 -0.6160 0.5505
vn -0.8757 -0.2044 -0.4246
vn -0.9014 0.1581 0.3956
vn -0.7813 0.5821 -0.2208
vn -0.4172 0.4328 -0.8623
vn -0.1465 -0.1017 -1.0034
vn -0.1379 -0.6831 -0.6365
vn -0.4276 -0.8692 0.0987
vn -0.7561 -0.4382 0.5330
vn -0.0514 0.9304 0.1520
vn -0.2103 0.4035 0.8663
vn 0.3646 0.7499 -0.6077
vn 0.6679 0.0830 -0.7718
vn 0.6987 -0.5895 -0.3152
vn 0.3758 -0.7933 0.5230
vn -0.0263 -0.3049 1.0117
vn 0.8747 0.2208 0.4159
vn -0.8718 0.0352 -0.5079
vn -0.9029 -0.0482 0.4458
vn -0.7932 0.5375 0.1896
vn -0.4426 0.7741 -0.4929
vn -0.1502 0.3707 -0.9801
vn -0.1404 -0.2155 -0.9711
vn -0.4201 -0.6956 -0.4883
vn -0.7779 -0.5934 0.1875
vn -0.0524 0.6163 0.7219
vn -0.2057 -0.0912 1.0149
vn 0.3630 0.8951 -0.0565
vn 0.6826 0.4260 -0.6466
vn 0.6930 -0.2939 -0.6411
vn 0.3910 -0.8735 -0.0559
vn -0.0323 -0.7530 0.7238
vn 0.8733 -0.0342 0.5051
vn -0.6025 -0.2749 0.7991
vn 0.3475 0.5816 0.6748
vn -0.5861 0.7787 -0.1118
vn -0.8124 -0.1709 -0.5541
vn -0.0260 -0.9352 -0.1350
vn 0.7075 -0.4715 0.5770
vn 0.6527 0.3762 -0.7109
vn 0.3510 -0.1200 0.9706
vn 0.9308 0.1334 -0.3637
vn -0.0987 0.9445 0.0598
vn -0.9289 -0.1407 0.3664
vn 0.0996 -0.9441 -0.0617
vn -0.3497 0.1225 -0.9710
# 148 vertex normals

vt 0.0000 1.0000 0.0000
vt 0.0000 0.7143 0.0000
vt 0.1429 0.7143 0.0000
vt 0.1429 1.0000 0.0000
vt 0.2857 0.7143 0.0000
vt 0.2857 1.0000 0.0000
vt 0.4286 0.7143 0.0000
vt 0.4286 1.0000 0.0000
vt 0.5714 0.7143 0.0000
vt 0.5714 1.0000 0.0000
vt 0.7143 0.7143 0.0000
vt 0.7143 1.0000 0.0000
vt 0.8571 0.7143 0.0000
vt 0.8571 1.0000 0.0000
vt 1.0000 0.7143 0.0000
vt 0.1429 0.4286 0.0000
vt 0.0000 0.4286 0.0000
vt 0.2857 0.4286 0.0000
vt 0.4286 0.4286 0.0000
vt 0.5714 0.4286 0.0000
vt 0.7143 0.4286 0.0000
vt 0.8571 0.4286 0.0000
vt 1.0000 0.4286 0.0000
vt 0.0000 0.1429 0.0000
vt 0.1429 0.1429 0.0000
vt 0.2857 0.1429 0.0000
vt 0.4286 0.1429 0.0000
vt 0.5714 0.1429 0.0000
vt 0.7143 0.1429 0.0000
vt 0.8571 0.1429 0.0000
vt 0.0000 0.6000 0.0000
vt 0.2000 0.6000 0.0000
vt 0.2000 1.0000 0.0000
vt 0.4000 0.6000 0.0000
vt 0.4000 1.0000 0.0000
vt 0.6000 0.6000 0.0000
vt 0.6000 1.0000 0.0000
vt 0.8000 0.6000 0.0000
vt 0.8000 1.0000 0.0000
vt 1.0000 0.6000 0.0000
vt 0.0000 0.2000 0.0000
vt 0.2000 0.2000 0.0000
vt 0.4000 0.2000 0.0000
vt 0.6000 0.2000 0.0000
vt 0.8000 0.2000 0.0000
vt 0.0000 0.5000 0.0000
vt 0.2500 0.5000 0.0000
vt 0.2500 1.0000 0.0000
vt 0.5000 0.5000 0.0000
vt 0.5000 1.0000 0.0000
vt 0.7500 0.5000 0.0000
vt 0.7500 1.0000 0.0000
vt 1.0000 0.5000 0.0000
vt 0.0000 0.0000 0.0000
vt 0.2500 0.0000 0.0000
vt 0.5000 0.0000 0.0000
vt 0.7500 0.0000 0.0000
# 57 texture coords

o Sphere011
g Sphere011
usemtl Material__25
s 1
f 1/1/1 2/2/2 3/3/3 
f 1/4/1 3/3/3 4/5/4 
f 1/6/1 4/5/4 5/7/5 
f 1/8/1 5/7/5 6/9/6 
f 1/10/1 6/9/6 7/11/7 
f 1/12/1 7/11/7 8/13/8 
f 1/14/1 8/13/8 2/15/2 
f 9/16/9 3/3/3 2/2/2 
f 2/2/2 10/17/10 9/16/9 
f 11/18/11 4/5/4 3/3/3 
f 3/3/3 9/16/9 11/18/11 
f 12/19/12 5/7/5 4/5/4 
f 4/5/4 11/18/11 12/19/12 
f 13/20/13 6/9/6 5/7/5 
f 5/7/5 12/19/12 13/20/13 
f 14/21/14 7/11/7 6/9/6 
f 6/9/6 13/20/13 14/21/14 
f 15/22/15 8/13/8 7/11/7 
f 7/11/7 14/21/14 15/22/15 
f 10/23/10 2/15/2 8/13/8 
f 8/13/8 15/22/15 10/23/10 
f 16/24/16 9/16/9 10/17/10 
f 16/25/16 11/18/11 9/16/9 
f 16/26/16 12/19/12 11/18/11 
f 16/27/16 13/20/13 12/19/12 
f 16/28/16 14/21/14 13/20/13 
f 16/29/16 15/22/15 14/21/14 
f 16/30/16 10/23/10 15/22/15 
f 17/1/17 18/2/18 19/3/19 
f 17/4/17 19/3/19 20/5/20 
f 17/6/17 20/5/20 21/7/21 
f 17/8/17 21/7/21 22/9/22 
f 17/10/17 22/9/22 23/11/23 
f 17/12/17 23/11/23 24/13/24 
f 17/14/17 24/13/24 18/15/18 
f 25/16/25 19/3/19 18/2/18 
f 18/2/18 26/17/26 25/16/25 
f 27/18/27 20/5/20 19/3/19 
f 19/3/19 25/16/25 27/18/27 
f 28/19/28 21/7/21 20/5/20 
f 20/5/20 27/18/27 28/19/28 
f 29/20/29 22/9/22 21/7/21 
f 21/7/21 28/19/28 29/20/29 
f 30/21/30 23/11/23 22/9/22 
f 22/9/22 29/20/29 30/21/30 
f 31/22/31 24/13/24 23/11/23 
f 23/11/23 30/21/30 31/22/31 
f 26/23/26 18/15/18 24/13/24 
f 24/13/24 31/22/31 26/23/26 
f 32/24/32 25/16/25 26/17/26 
f 32/25/32 27/18/27 25/16/25 
f 32/26/32 28/19/28 27/18/27 
f 32/27/32 29/20/29 28/19/28 
f 32/28/32 30/21/30 29/20/29 
f 32/29/32 31/22/31 30/21/30 
f 32/30/32 26/23/26 31/22/31 
f 33/1/33 34/2/34 35/3/35 
f 33/4/33 35/3/35 36/5/36 
f 33/6/33 36/5/36 37/7/37 
f 33/8/33 37/7/37 38/9/38 
f 33/10/33 38/9/38 39/11/39 
f 33/12/33 39/11/39 40/13/40 
f 33/14/33 40/13/40 34/15/34 
f 41/16/41 35/3/35 34/2/34 
f 34/2/34 42/17/42 41/16/41 
f 43/18/43 36/5/36 35/3/35 
f 35/3/35 41/16/41 43/18/43 
f 44/19/44 37/7/37 36/5/36 
f 36/5/36 43/18/43 44/19/44 
f 45/20/45 38/9/38 37/7/37 
f 37/7/37 44/19/44 45/20/45 
f 46/21/46 39/11/39 38/9/38 
f 38/9/38 45/20/45 46/21/46 
f 47/22/47 40/13/40 39/11/39 
f 39/11/39 46/21/46 47/22/47 
f 42/23/42 34/15/34 40/13/40 
f 40/13/40 47/22/47 42/23/42 
f 48/24/48 41/16/41 42/17/42 
f 48/25/48 43/18/43 41/16/41 
f 48/26/48 44/19/44 43/18/43 
f 48/27/48 45/20/45 44/19/44 
f 48/28/48 46/21/46 45/20/45 
f 48/29/48 47/22/47 46/21/46 
f 48/30/48 42/23/42 47/22/47 
f 49/1/49 50/31/50 51/32/51 
f 49/33/49 51/32/51 52/34/52 
f 49/35/49 52/34/52 53/36/53 
f 49/37/49 53/36/53 54/38/54 
f 49/39/49 54/38/54 50/40/50 
f 55/41/55 51/32/51 50/31/50 
f 55/42/55 52/34/52 51/32/51 
f 55/43/55 53/36/53 52/34/52 
f 55/44/55 54/38/54 53/36/53 
f 55/45/55 50/40/50 54/38/54 
f 56/1/56 57/2/57 58/3/58 
f 56/4/56 58/3/58 59/5/59 
f 56/6/56 59/5/59 60/7/60 
f 56/8/56 60/7/60 61/9/61 
f 56/10/56 61/9/61 62/11/62 
f 56/12/56 62/11/62 63/13/63 
f 56/14/56 63/13/63 57/15/57 
f 64/16/64 58/3/58 57/2/57 
f 57/2/57 65/17/65 64/16/64 
f 66/18/66 59/5/59 58/3/58 
f 58/3/58 64/16/64 66/18/66 
f 67/19/67 60/7/60 59/5/59 
f 59/5/59 66/18/66 67/19/67 
f 68/20/68 61/9/61 60/7/60 
f 60/7/60 67/19/67 68/20/68 
f 69/21/69 62/11/62 61/9/61 
f 61/9/61 68/20/68 69/21/69 
f 70/22/70 63/13/63 62/11/62 
f 62/11/62 69/21/69 70/22/70 
f 65/23/65 57/15/57 63/13/63 
f 63/13/63 70/22/70 65/23/65 
f 71/24/71 64/16/64 65/17/65 
f 71/25/71 66/18/66 64/16/64 
f 71/26/71 67/19/67 66/18/66 
f 71/27/71 68/20/68 67/19/67 
f 71/28/71 69/21/69 68/20/68 
f 71/29/71 70/22/70 69/21/69 
f 71/30/71 65/23/65 70/22/70 
f 72/1/72 73/2/73 74/3/74 
f 72/4/72 74/3/74 75/5/75 
f 72/6/72 75/5/75 76/7/76 
f 72/8/72 76/7/76 77/9/77 
f 72/10/72 77/9/77 78/11/78 
f 72/12/72 78/11/78 79/13/79 
f 72/14/72 79/13/79 73/15/73 
f 80/16/80 74/3/74 73/2/73 
f 73/2/73 81/17/81 80/16/80 
f 82/18/82 75/5/75 74/3/74 
f 74/3/74 80/16/80 82/18/82 
f 83/19/83 76/7/76 75/5/75 
f 75/5/75 82/18/82 83/19/83 
f 84/20/84 77/9/77 76/7/76 
f 76/7/76 83/19/83 84/20/84 
f 85/21/85 78/11/78 77/9/77 
f 77/9/77 84/20/84 85/21/85 
f 86/22/86 79/13/79 78/11/78 
f 78/11/78 85/21/85 86/22/86 
f 81/23/81 73/15/73 79/13/79 
f 79/13/79 86/22/86 81/23/81 
f 87/24/87 80/16/80 81/17/81 
f 87/25/87 82/18/82 80/16/80 
f 87/26/87 83/19/83 82/18/82 
f 87/27/87 84/20/84 83/19/83 
f 87/28/87 85/21/85 84/20/84 
f 87/29/87 86/22/86 85/21/85 
f 87/30/87 81/23/81 86/22/86 
f 88/1/88 89/2/89 90/3/90 
f 88/4/88 90/3/90 91/5/91 
f 88/6/88 91/5/91 92/7/92 
f 88/8/88 92/7/92 93/9/93 
f 88/10/88 93/9/93 94/11/94 
f 88/12/88 94/11/94 95/13/95 
f 88/14/88 95/13/95 89/15/89 
f 96/16/96 90/3/90 89/2/89 
f 89/2/89 97/17/97 96/16/96 
f 98/18/98 91/5/91 90/3/90 
f 90/3/90 96/16/96 98/18/98 
f 99/19/99 92/7/92 91/5/91 
f 91/5/91 98/18/98 99/19/99 
f 100/20/100 93/9/93 92/7/92 
f 92/7/92 99/19/99 100/20/100 
f 101/21/101 94/11/94 93/9/93 
f 93/9/93 100/20/100 101/21/101 
f 102/22/102 95/13/95 94/11/94 
f 94/11/94 101/21/101 102/22/102 
f 97/23/97 89/15/89 95/13/95 
f 95/13/95 102/22/102 97/23/97 
f 103/24/103 96/16/96 97/17/97 
f 103/25/103 98/18/98 96/16/96 
f 103/26/103 99/19/99 98/18/98 
f 103/27/103 100/20/100 99/19/99 
f 103/28/103 101/21/101 100/20/100 
f 103/29/103 102/22/102 101/21/101 
f 103/30/103 97/23/97 102/22/102 
f 104/1/104 105/2/105 106/3/106 
f 104/4/104 106/3/106 107/5/107 
f 104/6/104 107/5/107 108/7/108 
f 104/8/104 108/7/108 109/9/109 
f 104/10/104 109/9/109 110/11/110 
f 104/12/104 110/11/110 111/13/111 
f 104/14/104 111/13/111 105/15/105 
f 112/16/112 106/3/106 105/2/105 
f 105/2/105 113/17/113 112/16/112 
f 114/18/114 107/5/107 106/3/106 
f 106/3/106 112/16/112 114/18/114 
f 115/19/115 108/7/108 107/5/107 
f 107/5/107 114/18/114 115/19/115 
f 116/20/116 109/9/109 108/7/108 
f 108/7/108 115/19/115 116/20/116 
f 117/21/117 110/11/110 109/9/109 
f 109/9/109 116/20/116 117/21/117 
f 118/22/118 111/13/111 110/11/110 
f 110/11/110 117/21/117 118/22/118 
f 113/23/113 105/15/105 111/13/111 
f 111/13/111 118/22/118 113/23/113 
f 119/24/119 112/16/112 113/17/113 
f 119/25/119 114/18/114 112/16/112 
f 119/26/119 115/19/115 114/18/114 
f 119/27/119 116/20/116 115/19/115 
f 119/28/119 117/21/117 116/20/116 
f 119/29/119 118/22/118 117/21/117 
f 119/30/119 113/23/113 118/22/118 
f 120/1/120 121/2/121 122/3/122 
f 120/4/120 122/3/122 123/5/123 
f 120/6/120 123/5/123 124/7/124 
f 120/8/120 124/7/124 125/9/125 
f 120/10/120 125/9/125 126/11/126 
f 120/12/120 126/11/126 127/13/127 
f 120/14/120 127/13/127 121/15/121 
f 128/16/128 122/3/122 121/2/121 
f 121/2/121 129/17/129 128/16/128 
f 130/18/130 123/5/123 122/3/122 
f 122/3/122 128/16/128 130/18/130 
f 131/19/131 124/7/124 123/5/123 
f 123/5/123 130/18/130 131/19/131 
f 132/20/132 125/9/125 124/7/124 
f 124/7/124 131/19/131 132/20/132 
f 133/21/133 126/11/126 125/9/125 
f 125/9/125 132/20/132 133/21/133 
f 134/22/134 127/13/127 126/11/126 
f 126/11/126 133/21/133 134/22/134 
f 129/23/129 121/15/121 127/13/127 
f 127/13/127 134/22/134 129/23/129 
f 135/24/135 128/16/128 129/17/129 
f 135/25/135 130/18/130 128/16/128 
f 135/26/135 131/19/131 130/18/130 
f 135/27/135 132/20/132 131/19/131 
f 135/28/135 133/21/133 132/20/132 
f 135/29/135 134/22/134 133/21/133 
f 135/30/135 129/23/129 134/22/134 
f 136/1/136 137/31/137 138/32/138 
f 136/33/136 138/32/138 139/34/139 
f 136/35/136 139/34/139 140/36/140 
f 136/37/136 140/36/140 141/38/141 
f 136/39/136 141/38/141 137/40/137 
f 142/41/142 138/32/138 137/31/137 
f 142/42/142 139/34/139 138/32/138 
f 142/43/142 140/36/140 139/34/139 
f 142/44/142 141/38/141 140/36/140 
f 142/45/142 137/40/137 141/38/141 
f 143/1/143 144/46/144 145/47/145 
f 143/48/143 145/47/145 146/49/146 
f 143/50/143 146/49/146 147/51/147 
f 143/52/143 147/51/147 144/53/144 
f 148/54/148 145/47/145 144/46/144 
f 148/55/148 146/49/146 145/47/145 
f 148/56/148 147/51/147 146/49/146 
f 148/57/148 144/53/144 147/51/147 
# 252 faces

