# 3ds Max Wavefront OBJ Exporter v0.97b - (c)2007 guruware
# File Created: 18.03.2019 10:07:58

mtllib stone_effect3.mtl

#
# object Sphere011
#

v  0.0000 57.0180 48.5246
v  -0.0000 77.5859 47.8674
v  -15.5744 71.8569 45.0596
v  -19.4210 58.9840 38.7506
v  -8.6431 48.6607 33.6912
v  8.6432 48.6607 33.6912
v  19.4210 58.9840 38.7506
v  15.5744 71.8569 45.0596
v  -19.4210 86.2255 27.9748
v  -0.0000 93.3694 31.4761
v  -24.2176 70.1732 20.1076
v  -10.7778 57.3002 13.7986
v  10.7778 57.3002 13.7986
v  24.2176 70.1732 20.1076
v  19.4210 86.2255 27.9748
v  0.0000 85.4466 5.4207
v  3.7119 52.2020 40.9413
v  3.0146 42.8667 47.7563
v  4.8161 50.4651 52.3362
v  9.0893 57.9102 49.4607
v  12.6164 59.5955 41.2952
v  12.7415 54.2521 33.9884
v  9.3703 45.9036 33.0425
v  5.0415 40.8366 39.1698
v  13.8620 46.1549 58.1390
v  11.6156 36.6798 52.4280
v  19.1906 55.4387 54.5534
v  23.5889 57.5403 44.3711
v  23.7448 50.8772 35.2597
v  19.5410 40.4667 34.0802
v  14.1430 34.1483 41.7208
v  27.0133 41.8935 48.8788
v  33.7547 13.0275 -13.4200
v  33.0235 11.9146 8.6499
v  22.0142 23.5215 2.1006
v  23.3094 32.4980 -12.6154
v  35.9338 32.0847 -24.4167
v  50.3809 22.5928 -24.4167
v  55.7718 11.1699 -12.6154
v  48.0471 6.4176 2.1006
v  28.3140 40.1152 15.2845
v  42.0423 25.6416 23.4513
v  29.9290 51.3087 -3.0660
v  45.6714 50.7934 -17.7820
v  63.6866 38.9571 -17.7820
v  70.4090 24.7130 -3.0660
v  60.7764 18.7870 15.2845
v  58.1880 50.2161 11.4150
v  23.9323 20.4221 23.1413
v  24.9474 6.6651 49.6317
v  8.4204 28.6048 45.7863
v  20.5548 42.7683 26.9948
v  44.5811 29.5823 19.2263
v  47.2959 7.2693 33.2167
v  39.0632 27.8198 57.3819
v  -37.0504 37.1450 24.9846
v  -46.6740 46.2889 9.2605
v  -53.1100 30.9205 11.6390
v  -46.1160 18.9691 16.9833
v  -30.9586 19.4344 21.2692
v  -19.0517 31.9660 21.2692
v  -19.3613 47.1274 16.9833
v  -31.6544 53.5017 11.6390
v  -53.5259 26.0097 -10.4710
v  -45.5003 45.1738 -13.4369
v  -44.8046 11.1066 -3.8067
v  -25.9036 11.6868 1.5376
v  -11.0559 27.3134 1.5376
v  -11.4420 46.2193 -3.8067
v  -26.7712 54.1679 -10.4710
v  -27.6204 28.1851 -24.9846
v  -34.1365 16.9224 -52.5988
v  -35.4679 29.5770 -34.5173
v  -32.0282 38.6098 -48.8488
v  -23.8687 33.4040 -63.1715
v  -17.1338 17.8796 -66.7000
v  -16.8949 3.7269 -56.7774
v  -23.3320 1.6030 -40.8755
v  -31.5978 13.1074 -30.9689
v  -14.7555 49.5237 -40.3992
v  -19.0448 38.2599 -22.5281
v  -4.5808 43.0321 -58.2593
v  3.8175 23.6735 -62.6593
v  4.1153 6.0253 -50.2860
v  -3.9116 3.3769 -30.4566
v  -14.2188 17.7227 -18.1032
v  10.3562 31.6828 -32.6167
v  -20.1581 30.7519 -35.2811
v  -20.6222 31.2431 -26.1046
v  -13.6034 35.3225 -28.8278
v  -9.3221 33.6333 -34.9466
v  -11.0023 27.4476 -39.8535
v  -17.3787 21.4234 -39.8535
v  -23.6498 20.0970 -34.9466
v  -25.0932 24.4672 -28.8278
v  -6.1459 30.2714 -23.3460
v  -14.8982 25.1846 -19.9503
v  -0.8073 28.1650 -30.9760
v  -2.9024 20.4516 -37.0948
v  -10.8537 12.9395 -37.0948
v  -18.6736 11.2855 -30.9760
v  -20.4735 16.7351 -23.3460
v  -4.6510 14.3384 -24.9549
v  -6.4452 74.0107 -21.7742
v  -7.1425 74.0010 -10.2160
v  -5.3410 82.1832 -13.6459
v  -1.0678 84.2569 -21.3528
v  2.4593 78.6606 -27.5333
v  2.5844 69.6085 -27.5333
v  -0.7868 63.9169 -21.3528
v  -5.1157 65.8718 -13.6459
v  3.7048 84.3229 -6.7413
v  1.4585 74.1199 -2.4643
v  9.0335 86.9088 -16.3517
v  13.4317 79.9303 -24.0586
v  13.5877 68.6425 -24.0586
v  9.3839 61.5452 -16.3517
v  3.9859 63.9828 -6.7413
v  16.8561 74.3326 -8.7679
v  -9.2160 41.2709 -46.6199
v  -9.9133 41.2612 -35.0617
v  -8.1119 49.4434 -38.4916
v  -3.8387 51.5171 -46.1985
v  -0.3115 45.9209 -52.3790
v  -0.1864 36.8687 -52.3790
v  -3.5576 31.1771 -46.1985
v  -7.8865 33.1320 -38.4916
v  0.9340 51.5831 -31.5870
v  -1.3124 41.3801 -27.3100
v  6.2626 54.1690 -41.1974
v  10.6609 47.1905 -48.9043
v  10.8169 35.9027 -48.9043
v  6.6131 28.8054 -41.1974
v  1.2151 31.2430 -31.5870
v  14.0853 41.5928 -33.6136
v  25.2926 22.2944 -48.5248
v  28.5707 41.9235 -26.2543
v  7.8136 44.6162 -44.4522
v  17.0896 33.6322 -66.6845
v  43.5796 24.1509 -62.2269
v  50.6754 29.2752 -37.2397
v  37.6030 58.2583 -45.1867
v  61.4165 35.3195 -29.8475
v  61.7824 43.3199 -41.3055
v  51.3717 44.6408 -33.5004
v  50.9887 31.6973 -35.3349
v  61.3994 30.3763 -43.1401
v  51.3547 39.6976 -46.7930
# 148 vertices

vn -0.0000 -0.4562 0.9585
vn -0.0000 0.3525 0.9209
vn -0.6182 0.1351 0.7829
vn -0.8187 -0.4156 0.4359
vn -0.3739 -0.8908 0.1419
vn 0.3739 -0.8908 0.1419
vn 0.8187 -0.4156 0.4359
vn 0.6182 0.1351 0.7829
vn -0.7587 0.6186 0.0376
vn -0.0000 0.9128 0.2234
vn -0.9296 -0.0271 -0.3762
vn -0.4026 -0.5174 -0.7067
vn 0.4026 -0.5174 -0.7067
vn 0.9296 -0.0271 -0.3762
vn 0.7587 0.6186 0.0376
vn -0.0000 0.5146 -0.9283
vn -0.8856 0.3490 -0.3375
vn -0.9077 -0.3236 0.2942
vn -0.7590 0.1807 0.6231
vn -0.4503 0.7404 0.3845
vn -0.1514 0.9219 -0.3498
vn -0.1403 0.5083 -0.9198
vn -0.3917 -0.0536 -0.9415
vn -0.7497 -0.4485 -0.4347
vn -0.0428 -0.1309 1.0355
vn -0.2176 -0.7610 0.6733
vn 0.3429 0.4973 0.7540
vn 0.6872 0.6984 -0.0695
vn 0.6803 0.2483 -0.7350
vn 0.3827 -0.4224 -0.7918
vn -0.0234 -0.9242 -0.1815
vn 0.8781 -0.3717 0.3320
vn -0.5045 -0.6376 -0.5000
vn -0.5199 -0.7098 0.5218
vn -0.9514 -0.2496 0.1986
vn -0.8949 0.1109 -0.4570
vn -0.3603 0.1159 -0.9670
vn 0.2248 -0.2268 -0.9503
vn 0.4685 -0.6976 -0.4429
vn 0.1347 -0.9433 0.2478
vn -0.6467 0.3091 0.6794
vn -0.1230 -0.1989 1.0233
vn -0.6038 0.7665 -0.0862
vn 0.0333 0.7705 -0.7012
vn 0.7215 0.3309 -0.6564
vn 0.9791 -0.1861 -0.0442
vn 0.6067 -0.4361 0.7216
vn 0.4868 0.6682 0.4722
vn -0.4829 -0.3294 -0.7950
vn -0.3253 -0.8224 0.5068
vn -0.9249 0.1459 0.3434
vn -0.3254 0.8541 -0.4287
vn 0.6426 0.3353 -0.7408
vn 0.6554 -0.6907 -0.1644
vn 0.4469 0.2731 0.8450
vn -0.2472 0.1566 0.9681
vn -0.7371 0.5776 0.2557
vn -0.9286 0.0221 0.3796
vn -0.5662 -0.5600 0.6636
vn 0.1926 -0.6064 0.8425
vn 0.6419 -0.1504 0.7910
vn 0.5676 0.4896 0.6133
vn -0.0942 0.8610 0.3537
vn -0.8687 -0.1419 -0.4721
vn -0.6285 0.5396 -0.6152
vn -0.4329 -0.8301 -0.1759
vn 0.4371 -0.8634 0.0430
vn 0.9454 -0.3119 0.0028
vn 0.8770 0.4266 -0.2373
vn 0.1360 0.8572 -0.5403
vn 0.2295 -0.1562 -0.9727
vn -0.8786 -0.2304 -0.4008
vn -0.9029 0.1823 0.3778
vn -0.7803 0.5692 -0.2709
vn -0.4169 0.3784 -0.8870
vn -0.1479 -0.1632 -0.9871
vn -0.1391 -0.7323 -0.5721
vn -0.4294 -0.8652 0.1742
vn -0.7545 -0.4059 0.5633
vn -0.0502 0.9463 0.0704
vn -0.2119 0.4628 0.8263
vn 0.3642 0.7106 -0.6631
vn 0.6682 0.0359 -0.7705
vn 0.6999 -0.6143 -0.2616
vn 0.3749 -0.7591 0.5852
vn -0.0254 -0.2421 1.0248
vn 0.8757 0.2490 0.3930
vn -0.6072 0.5737 -0.6046
vn -0.6350 0.5581 0.4642
vn -0.0625 0.9293 0.1541
vn 0.3258 0.7935 -0.5635
vn 0.1497 0.3078 -0.9990
vn -0.3035 -0.0656 -0.9732
vn -0.8507 -0.2074 -0.4715
vn -0.9746 0.0930 0.1979
vn 0.4986 0.4511 0.7020
vn -0.1396 0.0728 1.0105
vn 0.9337 0.3412 -0.0867
vn 0.7484 -0.1581 -0.6453
vn 0.1858 -0.6753 -0.6342
vn -0.4484 -0.8553 0.0040
vn -0.5633 -0.4444 0.7556
vn 0.6090 -0.6160 0.5505
vn -0.8695 0.0124 -0.5108
vn -0.9000 -0.0307 0.4519
vn -0.7890 0.5547 0.1566
vn -0.4383 0.7574 -0.5302
vn -0.1469 0.3413 -0.9902
vn -0.1375 -0.2590 -0.9547
vn -0.4157 -0.7258 -0.4432
vn -0.7726 -0.5921 0.2249
vn -0.0532 0.6552 0.6806
vn -0.2045 -0.0472 1.0138
vn 0.3615 0.8964 -0.1083
vn 0.6799 0.4026 -0.6655
vn 0.6906 -0.3284 -0.6214
vn 0.3883 -0.8811 -0.0033
vn -0.0324 -0.7203 0.7621
vn 0.8722 -0.0114 0.5057
vn -0.3817 -0.8788 0.2389
vn -0.1275 0.0402 1.0178
vn -0.9454 0.2776 0.1256
vn -0.5228 -0.0612 -0.8702
vn 0.5533 -0.4680 -0.6456
vn 0.8099 -0.3706 0.4971
vn 0.3323 0.9068 -0.1047
vn 0.5270 -0.2262 0.8674
vn 0.6689 0.6672 -0.3488
vn -0.4830 0.6866 0.4469
vn -0.6689 -0.6672 0.3488
vn 0.4830 -0.6866 -0.4469
vn -0.5270 0.2262 -0.8674
# 132 vertex normals

vt 0.0000 1.0000 0.0000
vt 0.0000 0.7143 0.0000
vt 0.1429 0.7143 0.0000
vt 0.1429 1.0000 0.0000
vt 0.2857 0.7143 0.0000
vt 0.2857 1.0000 0.0000
vt 0.4286 0.7143 0.0000
vt 0.4286 1.0000 0.0000
vt 0.5714 0.7143 0.0000
vt 0.5714 1.0000 0.0000
vt 0.7143 0.7143 0.0000
vt 0.7143 1.0000 0.0000
vt 0.8571 0.7143 0.0000
vt 0.8571 1.0000 0.0000
vt 1.0000 0.7143 0.0000
vt 0.1429 0.4286 0.0000
vt 0.0000 0.4286 0.0000
vt 0.2857 0.4286 0.0000
vt 0.4286 0.4286 0.0000
vt 0.5714 0.4286 0.0000
vt 0.7143 0.4286 0.0000
vt 0.8571 0.4286 0.0000
vt 1.0000 0.4286 0.0000
vt 0.0000 0.1429 0.0000
vt 0.1429 0.1429 0.0000
vt 0.2857 0.1429 0.0000
vt 0.4286 0.1429 0.0000
vt 0.5714 0.1429 0.0000
vt 0.7143 0.1429 0.0000
vt 0.8571 0.1429 0.0000
vt 0.0000 0.6000 0.0000
vt 0.2000 0.6000 0.0000
vt 0.2000 1.0000 0.0000
vt 0.4000 0.6000 0.0000
vt 0.4000 1.0000 0.0000
vt 0.6000 0.6000 0.0000
vt 0.6000 1.0000 0.0000
vt 0.8000 0.6000 0.0000
vt 0.8000 1.0000 0.0000
vt 1.0000 0.6000 0.0000
vt 0.0000 0.2000 0.0000
vt 0.2000 0.2000 0.0000
vt 0.4000 0.2000 0.0000
vt 0.6000 0.2000 0.0000
vt 0.8000 0.2000 0.0000
vt 0.0000 0.5000 0.0000
vt 0.2500 0.5000 0.0000
vt 0.2500 1.0000 0.0000
vt 0.5000 0.5000 0.0000
vt 0.5000 1.0000 0.0000
vt 0.7500 0.5000 0.0000
vt 0.7500 1.0000 0.0000
vt 1.0000 0.5000 0.0000
vt 0.0000 0.0000 0.0000
vt 0.2500 0.0000 0.0000
vt 0.5000 0.0000 0.0000
vt 0.7500 0.0000 0.0000
# 57 texture coords

o Sphere011
g Sphere011
usemtl Material__25
s 1
f 1/1/1 2/2/2 3/3/3 
f 1/4/1 3/3/3 4/5/4 
f 1/6/1 4/5/4 5/7/5 
f 1/8/1 5/7/5 6/9/6 
f 1/10/1 6/9/6 7/11/7 
f 1/12/1 7/11/7 8/13/8 
f 1/14/1 8/13/8 2/15/2 
f 9/16/9 3/3/3 2/2/2 
f 2/2/2 10/17/10 9/16/9 
f 11/18/11 4/5/4 3/3/3 
f 3/3/3 9/16/9 11/18/11 
f 12/19/12 5/7/5 4/5/4 
f 4/5/4 11/18/11 12/19/12 
f 13/20/13 6/9/6 5/7/5 
f 5/7/5 12/19/12 13/20/13 
f 14/21/14 7/11/7 6/9/6 
f 6/9/6 13/20/13 14/21/14 
f 15/22/15 8/13/8 7/11/7 
f 7/11/7 14/21/14 15/22/15 
f 10/23/10 2/15/2 8/13/8 
f 8/13/8 15/22/15 10/23/10 
f 16/24/16 9/16/9 10/17/10 
f 16/25/16 11/18/11 9/16/9 
f 16/26/16 12/19/12 11/18/11 
f 16/27/16 13/20/13 12/19/12 
f 16/28/16 14/21/14 13/20/13 
f 16/29/16 15/22/15 14/21/14 
f 16/30/16 10/23/10 15/22/15 
f 17/1/17 18/2/18 19/3/19 
f 17/4/17 19/3/19 20/5/20 
f 17/6/17 20/5/20 21/7/21 
f 17/8/17 21/7/21 22/9/22 
f 17/10/17 22/9/22 23/11/23 
f 17/12/17 23/11/23 24/13/24 
f 17/14/17 24/13/24 18/15/18 
f 25/16/25 19/3/19 18/2/18 
f 18/2/18 26/17/26 25/16/25 
f 27/18/27 20/5/20 19/3/19 
f 19/3/19 25/16/25 27/18/27 
f 28/19/28 21/7/21 20/5/20 
f 20/5/20 27/18/27 28/19/28 
f 29/20/29 22/9/22 21/7/21 
f 21/7/21 28/19/28 29/20/29 
f 30/21/30 23/11/23 22/9/22 
f 22/9/22 29/20/29 30/21/30 
f 31/22/31 24/13/24 23/11/23 
f 23/11/23 30/21/30 31/22/31 
f 26/23/26 18/15/18 24/13/24 
f 24/13/24 31/22/31 26/23/26 
f 32/24/32 25/16/25 26/17/26 
f 32/25/32 27/18/27 25/16/25 
f 32/26/32 28/19/28 27/18/27 
f 32/27/32 29/20/29 28/19/28 
f 32/28/32 30/21/30 29/20/29 
f 32/29/32 31/22/31 30/21/30 
f 32/30/32 26/23/26 31/22/31 
f 33/1/33 34/2/34 35/3/35 
f 33/4/33 35/3/35 36/5/36 
f 33/6/33 36/5/36 37/7/37 
f 33/8/33 37/7/37 38/9/38 
f 33/10/33 38/9/38 39/11/39 
f 33/12/33 39/11/39 40/13/40 
f 33/14/33 40/13/40 34/15/34 
f 41/16/41 35/3/35 34/2/34 
f 34/2/34 42/17/42 41/16/41 
f 43/18/43 36/5/36 35/3/35 
f 35/3/35 41/16/41 43/18/43 
f 44/19/44 37/7/37 36/5/36 
f 36/5/36 43/18/43 44/19/44 
f 45/20/45 38/9/38 37/7/37 
f 37/7/37 44/19/44 45/20/45 
f 46/21/46 39/11/39 38/9/38 
f 38/9/38 45/20/45 46/21/46 
f 47/22/47 40/13/40 39/11/39 
f 39/11/39 46/21/46 47/22/47 
f 42/23/42 34/15/34 40/13/40 
f 40/13/40 47/22/47 42/23/42 
f 48/24/48 41/16/41 42/17/42 
f 48/25/48 43/18/43 41/16/41 
f 48/26/48 44/19/44 43/18/43 
f 48/27/48 45/20/45 44/19/44 
f 48/28/48 46/21/46 45/20/45 
f 48/29/48 47/22/47 46/21/46 
f 48/30/48 42/23/42 47/22/47 
f 49/1/49 50/31/50 51/32/51 
f 49/33/49 51/32/51 52/34/52 
f 49/35/49 52/34/52 53/36/53 
f 49/37/49 53/36/53 54/38/54 
f 49/39/49 54/38/54 50/40/50 
f 55/41/55 51/32/51 50/31/50 
f 55/42/55 52/34/52 51/32/51 
f 55/43/55 53/36/53 52/34/52 
f 55/44/55 54/38/54 53/36/53 
f 55/45/55 50/40/50 54/38/54 
f 56/1/56 57/2/57 58/3/58 
f 56/4/56 58/3/58 59/5/59 
f 56/6/56 59/5/59 60/7/60 
f 56/8/56 60/7/60 61/9/61 
f 56/10/56 61/9/61 62/11/62 
f 56/12/56 62/11/62 63/13/63 
f 56/14/56 63/13/63 57/15/57 
f 64/16/64 58/3/58 57/2/57 
f 57/2/57 65/17/65 64/16/64 
f 66/18/66 59/5/59 58/3/58 
f 58/3/58 64/16/64 66/18/66 
f 67/19/67 60/7/60 59/5/59 
f 59/5/59 66/18/66 67/19/67 
f 68/20/68 61/9/61 60/7/60 
f 60/7/60 67/19/67 68/20/68 
f 69/21/69 62/11/62 61/9/61 
f 61/9/61 68/20/68 69/21/69 
f 70/22/70 63/13/63 62/11/62 
f 62/11/62 69/21/69 70/22/70 
f 65/23/65 57/15/57 63/13/63 
f 63/13/63 70/22/70 65/23/65 
f 71/24/71 64/16/64 65/17/65 
f 71/25/71 66/18/66 64/16/64 
f 71/26/71 67/19/67 66/18/66 
f 71/27/71 68/20/68 67/19/67 
f 71/28/71 69/21/69 68/20/68 
f 71/29/71 70/22/70 69/21/69 
f 71/30/71 65/23/65 70/22/70 
f 72/1/72 73/2/73 74/3/74 
f 72/4/72 74/3/74 75/5/75 
f 72/6/72 75/5/75 76/7/76 
f 72/8/72 76/7/76 77/9/77 
f 72/10/72 77/9/77 78/11/78 
f 72/12/72 78/11/78 79/13/79 
f 72/14/72 79/13/79 73/15/73 
f 80/16/80 74/3/74 73/2/73 
f 73/2/73 81/17/81 80/16/80 
f 82/18/82 75/5/75 74/3/74 
f 74/3/74 80/16/80 82/18/82 
f 83/19/83 76/7/76 75/5/75 
f 75/5/75 82/18/82 83/19/83 
f 84/20/84 77/9/77 76/7/76 
f 76/7/76 83/19/83 84/20/84 
f 85/21/85 78/11/78 77/9/77 
f 77/9/77 84/20/84 85/21/85 
f 86/22/86 79/13/79 78/11/78 
f 78/11/78 85/21/85 86/22/86 
f 81/23/81 73/15/73 79/13/79 
f 79/13/79 86/22/86 81/23/81 
f 87/24/87 80/16/80 81/17/81 
f 87/25/87 82/18/82 80/16/80 
f 87/26/87 83/19/83 82/18/82 
f 87/27/87 84/20/84 83/19/83 
f 87/28/87 85/21/85 84/20/84 
f 87/29/87 86/22/86 85/21/85 
f 87/30/87 81/23/81 86/22/86 
f 88/1/88 89/2/89 90/3/90 
f 88/4/88 90/3/90 91/5/91 
f 88/6/88 91/5/91 92/7/92 
f 88/8/88 92/7/92 93/9/93 
f 88/10/88 93/9/93 94/11/94 
f 88/12/88 94/11/94 95/13/95 
f 88/14/88 95/13/95 89/15/89 
f 96/16/96 90/3/90 89/2/89 
f 89/2/89 97/17/97 96/16/96 
f 98/18/98 91/5/91 90/3/90 
f 90/3/90 96/16/96 98/18/98 
f 99/19/99 92/7/92 91/5/91 
f 91/5/91 98/18/98 99/19/99 
f 100/20/100 93/9/93 92/7/92 
f 92/7/92 99/19/99 100/20/100 
f 101/21/101 94/11/94 93/9/93 
f 93/9/93 100/20/100 101/21/101 
f 102/22/102 95/13/95 94/11/94 
f 94/11/94 101/21/101 102/22/102 
f 97/23/97 89/15/89 95/13/95 
f 95/13/95 102/22/102 97/23/97 
f 103/24/103 96/16/96 97/17/97 
f 103/25/103 98/18/98 96/16/96 
f 103/26/103 99/19/99 98/18/98 
f 103/27/103 100/20/100 99/19/99 
f 103/28/103 101/21/101 100/20/100 
f 103/29/103 102/22/102 101/21/101 
f 103/30/103 97/23/97 102/22/102 
f 104/1/104 105/2/105 106/3/106 
f 104/4/104 106/3/106 107/5/107 
f 104/6/104 107/5/107 108/7/108 
f 104/8/104 108/7/108 109/9/109 
f 104/10/104 109/9/109 110/11/110 
f 104/12/104 110/11/110 111/13/111 
f 104/14/104 111/13/111 105/15/105 
f 112/16/112 106/3/106 105/2/105 
f 105/2/105 113/17/113 112/16/112 
f 114/18/114 107/5/107 106/3/106 
f 106/3/106 112/16/112 114/18/114 
f 115/19/115 108/7/108 107/5/107 
f 107/5/107 114/18/114 115/19/115 
f 116/20/116 109/9/109 108/7/108 
f 108/7/108 115/19/115 116/20/116 
f 117/21/117 110/11/110 109/9/109 
f 109/9/109 116/20/116 117/21/117 
f 118/22/118 111/13/111 110/11/110 
f 110/11/110 117/21/117 118/22/118 
f 113/23/113 105/15/105 111/13/111 
f 111/13/111 118/22/118 113/23/113 
f 119/24/119 112/16/112 113/17/113 
f 119/25/119 114/18/114 112/16/112 
f 119/26/119 115/19/115 114/18/114 
f 119/27/119 116/20/116 115/19/115 
f 119/28/119 117/21/117 116/20/116 
f 119/29/119 118/22/118 117/21/117 
f 119/30/119 113/23/113 118/22/118 
f 120/1/104 121/2/105 122/3/106 
f 120/4/104 122/3/106 123/5/107 
f 120/6/104 123/5/107 124/7/108 
f 120/8/104 124/7/108 125/9/109 
f 120/10/104 125/9/109 126/11/110 
f 120/12/104 126/11/110 127/13/111 
f 120/14/104 127/13/111 121/15/105 
f 128/16/112 122/3/106 121/2/105 
f 121/2/105 129/17/113 128/16/112 
f 130/18/114 123/5/107 122/3/106 
f 122/3/106 128/16/112 130/18/114 
f 131/19/115 124/7/108 123/5/107 
f 123/5/107 130/18/114 131/19/115 
f 132/20/116 125/9/109 124/7/108 
f 124/7/108 131/19/115 132/20/116 
f 133/21/117 126/11/110 125/9/109 
f 125/9/109 132/20/116 133/21/117 
f 134/22/118 127/13/111 126/11/110 
f 126/11/110 133/21/117 134/22/118 
f 129/23/113 121/15/105 127/13/111 
f 127/13/111 134/22/118 129/23/113 
f 135/24/119 128/16/112 129/17/113 
f 135/25/119 130/18/114 128/16/112 
f 135/26/119 131/19/115 130/18/114 
f 135/27/119 132/20/116 131/19/115 
f 135/28/119 133/21/117 132/20/116 
f 135/29/119 134/22/118 133/21/117 
f 135/30/119 129/23/113 134/22/118 
f 136/1/120 137/31/121 138/32/122 
f 136/33/120 138/32/122 139/34/123 
f 136/35/120 139/34/123 140/36/124 
f 136/37/120 140/36/124 141/38/125 
f 136/39/120 141/38/125 137/40/121 
f 142/41/126 138/32/122 137/31/121 
f 142/42/126 139/34/123 138/32/122 
f 142/43/126 140/36/124 139/34/123 
f 142/44/126 141/38/125 140/36/124 
f 142/45/126 137/40/121 141/38/125 
f 143/1/127 144/46/128 145/47/129 
f 143/48/127 145/47/129 146/49/130 
f 143/50/127 146/49/130 147/51/131 
f 143/52/127 147/51/131 144/53/128 
f 148/54/132 145/47/129 144/46/128 
f 148/55/132 146/49/130 145/47/129 
f 148/56/132 147/51/131 146/49/130 
f 148/57/132 144/53/128 147/51/131 
# 252 faces

