# 3ds Max Wavefront OBJ Exporter v0.97b - (c)2007 guruware
# File Created: 18.03.2019 10:08:01

mtllib stone_effect15.mtl

#
# object Sphere011
#

v  5.6322 29.1577 108.1224
v  6.0289 24.5042 127.5707
v  -9.7608 23.1595 122.0181
v  -15.8612 30.8288 111.2831
v  -7.6785 41.7549 103.5173
v  8.6255 47.6077 104.1752
v  20.7736 44.1136 113.2746
v  19.6180 33.5534 122.6184
v  -18.6139 33.5153 139.0636
v  1.0756 35.1922 145.9876
v  -26.2209 43.1539 125.9655
v  -16.0173 56.8808 116.6747
v  4.3135 64.1791 117.4950
v  19.4620 59.8220 128.8419
v  18.0210 46.4764 139.8122
v  -7.7839 60.7965 145.0451
v  2.4025 10.9586 105.7485
v  1.7052 4.3119 96.1251
v  3.5066 -0.5218 103.6901
v  7.7798 2.1898 111.2971
v  11.3070 10.4050 113.2179
v  11.4320 17.9375 108.0061
v  8.0609 19.1152 99.5863
v  3.7320 13.0512 94.2988
v  12.5525 -6.2776 99.1766
v  10.3061 -0.2500 89.7432
v  17.8811 -2.8962 108.6624
v  22.2794 7.3480 111.0576
v  22.4353 16.7408 104.5586
v  18.2316 18.2093 94.0593
v  12.8335 10.6477 87.4658
v  25.7038 3.2022 95.1110
v  96.2900 9.5418 -13.4200
v  95.0326 9.1035 8.6499
v  93.3586 25.0133 2.1006
v  99.8485 31.3487 -12.6154
v  109.6153 23.3390 -24.4167
v  115.3044 7.0157 -24.4167
v  112.6318 -5.3294 -12.6154
v  103.6100 -4.4003 2.1006
v  108.4548 34.3482 15.2845
v  110.5423 14.5091 23.4513
v  116.5476 42.2483 -3.0660
v  128.7266 32.2604 -17.7820
v  135.8208 11.9056 -17.7820
v  132.4881 -3.4886 -3.0660
v  121.2381 -2.3299 15.2845
v  138.3081 24.1862 11.4150
v  76.9581 31.1483 99.9022
v  50.9545 18.3605 104.4329
v  65.1713 28.5697 125.2988
v  90.4427 26.6182 117.6122
v  91.8445 15.2030 91.9958
v  67.4395 10.2322 83.7972
v  65.9952 -1.7850 113.6097
v  -96.2857 28.1310 25.3897
v  -103.7589 11.9570 13.9945
v  -87.5540 9.8673 17.8339
v  -76.8862 21.3749 20.0212
v  -79.7885 37.8634 18.6479
v  -94.0754 45.3010 15.8198
v  -108.9886 40.3642 12.6747
v  -113.2981 25.5676 11.8452
v  -82.6404 3.3502 -3.3236
v  -102.8475 5.9857 -7.9971
v  -69.3378 17.7515 -0.6635
v  -72.9569 37.8021 -2.1244
v  -90.7724 47.6276 -5.7461
v  -109.3688 41.4089 -9.6429
v  -114.7427 22.9578 -10.6773
v  -88.9628 22.8810 -25.5444
v  -41.4539 -11.5412 -95.7998
v  -53.4423 3.5592 -106.6216
v  -43.0326 -5.5195 -117.0154
v  -27.9475 -13.0688 -113.2382
v  -19.5465 -13.4038 -98.1343
v  -24.1556 -6.2724 -83.0773
v  -38.3041 2.9555 -79.4053
v  -51.3379 7.3309 -89.8835
v  -34.1623 12.0732 -127.0486
v  -47.1429 23.3942 -114.0877
v  -15.3516 2.6595 -122.3386
v  -4.8756 2.2417 -103.5043
v  -10.6231 11.1345 -84.7285
v  -28.2660 22.6414 -80.1497
v  -44.5189 28.0975 -93.2157
v  -16.8591 31.2346 -108.5310
v  -50.6889 13.0205 -42.4620
v  -51.1530 13.5116 -33.2855
v  -44.1342 17.5910 -36.0086
v  -39.8530 15.9018 -42.1274
v  -41.5331 9.7161 -47.0343
v  -47.9095 3.6919 -47.0343
v  -54.1806 2.3655 -42.1274
v  -55.6241 6.7357 -36.0086
v  -36.6767 12.5399 -30.5268
v  -45.4290 7.4531 -27.1311
v  -31.3381 10.4335 -38.1568
v  -33.4333 2.7201 -44.2757
v  -41.3845 -4.7920 -44.2757
v  -49.2044 -6.4460 -38.1568
v  -51.0044 -0.9964 -30.5268
v  -35.1818 -3.3931 -32.1357
v  -6.4452 65.8238 -16.7499
v  -7.1425 77.5835 -15.5264
v  -5.3410 74.9527 -24.2121
v  -1.0678 67.3285 -27.1314
v  2.4593 60.4521 -22.0860
v  2.5844 59.5675 -12.6222
v  -0.7868 65.3320 -5.9000
v  -5.1157 73.2399 -7.6149
v  3.7048 82.2028 -25.6642
v  1.4585 85.4834 -14.8334
v  9.0335 72.6956 -29.3045
v  13.4317 64.1210 -23.0131
v  13.5877 62.9357 -11.5275
v  9.3839 70.1086 -3.2039
v  3.9859 80.0671 -4.9679
v  16.8561 79.0918 -15.7118
v  -5.3733 -4.5053 -92.4911
v  -6.0706 5.3315 -86.4222
v  -4.2692 6.7013 -95.1878
v  0.0040 1.2262 -100.9948
v  3.5312 -6.9709 -99.4703
v  3.6563 -11.7174 -91.7624
v  0.2851 -9.4392 -83.6753
v  -4.0438 -1.8517 -81.2987
v  4.7767 13.7025 -93.3893
v  2.5303 11.9943 -82.4588
v  10.1053 6.8752 -100.6304
v  14.5036 -3.3465 -98.7295
v  14.6596 -9.2653 -89.1179
v  10.4558 -6.4244 -79.0334
v  5.0578 3.0370 -76.0698
v  17.9280 6.7384 -85.9453
v  33.9330 19.4285 -90.6643
v  54.8396 38.3580 -100.4935
v  31.3644 33.7300 -114.4222
v  23.9621 8.7735 -108.5259
v  42.8625 -2.2394 -90.5071
v  61.9459 15.9037 -85.8450
v  60.1619 18.1850 -117.8830
v  116.3244 8.4751 -41.3483
v  119.6447 4.6298 -54.4567
v  123.9523 16.3550 -50.1936
v  111.2317 18.4691 -47.4772
v  106.9241 6.7438 -51.7404
v  114.5521 14.6238 -60.5857
# 148 vertices

vn 0.2890 -0.5797 -0.7031
vn 0.3545 -0.8771 0.3088
vn -0.3327 -0.9040 0.0236
vn -0.6457 -0.4310 -0.5902
vn -0.3314 0.0898 -0.9784
vn 0.3000 0.2867 -0.9665
vn 0.8766 0.0503 -0.4991
vn 0.8610 -0.4890 0.0490
vn -0.6452 -0.4734 0.6549
vn 0.1451 -0.4535 0.9473
vn -0.9989 0.0400 -0.0251
vn -0.6419 0.6187 -0.4986
vn 0.1025 0.8830 -0.4919
vn 0.7638 0.6029 0.0916
vn 0.7464 -0.0457 0.6898
vn -0.2764 0.5930 0.6949
vn -0.8798 0.2267 0.4007
vn -0.9039 -0.1790 -0.3774
vn -0.7824 -0.5680 0.2660
vn -0.4192 -0.3821 0.8843
vn -0.1491 0.1584 0.9883
vn -0.1403 0.7280 0.5778
vn -0.4311 0.8650 -0.1673
vn -0.7566 0.4071 -0.5590
vn -0.0503 -0.9452 -0.0776
vn -0.2121 -0.4579 -0.8298
vn 0.3651 -0.7137 0.6585
vn 0.6696 -0.0398 0.7694
vn 0.7011 0.6110 0.2661
vn 0.3760 0.7617 -0.5800
vn -0.0254 0.2471 -1.0239
vn 0.8760 -0.2459 -0.3946
vn -0.8284 -0.2235 -0.5011
vn -0.8564 -0.2786 0.4716
vn -0.9304 0.2983 0.1685
vn -0.6672 0.5856 -0.5070
vn -0.2432 0.2838 -0.9845
vn -0.0193 -0.2859 -0.9531
vn -0.1283 -0.8131 -0.4447
vn -0.5320 -0.8018 0.2403
vn -0.2878 0.6022 0.6808
vn -0.1954 -0.1011 1.0171
vn 0.0340 0.9609 -0.1066
vn 0.5188 0.5846 -0.6846
vn 0.7746 -0.1151 -0.6279
vn 0.6679 -0.7101 -0.0166
vn 0.2080 -0.6942 0.7574
vn 0.8267 0.2422 0.4923
vn 0.0565 0.8845 -0.4979
vn -0.9813 0.1554 -0.1252
vn -0.3364 0.4678 0.7801
vn 0.7800 0.3107 0.5186
vn 0.8371 -0.1281 -0.5332
vn -0.2385 -0.2351 -0.9436
vn -0.1568 -0.8954 0.4383
vn -0.1944 -0.0177 1.0137
vn -0.5605 -0.6315 0.5902
vn 0.1654 -0.7136 0.7489
vn 0.6710 -0.2055 0.7552
vn 0.5909 0.4413 0.6357
vn -0.0236 0.7835 0.5109
vn -0.7063 0.5195 0.4146
vn -0.8980 -0.1152 0.4496
vn 0.3859 -0.8649 -0.1158
vn -0.4757 -0.7713 -0.2871
vn 0.9581 -0.2489 -0.0989
vn 0.8405 0.4896 -0.2450
vn 0.1509 0.9036 -0.4161
vn -0.6369 0.6150 -0.5119
vn -0.8871 -0.1229 -0.4440
vn 0.1753 -0.0127 -1.0141
vn -0.5176 -0.7917 0.3276
vn -0.9616 -0.1510 -0.2154
vn -0.5425 -0.4713 -0.6517
vn 0.0937 -0.7935 -0.4869
vn 0.4687 -0.8419 0.2133
vn 0.2537 -0.5639 0.8558
vn -0.3266 -0.2234 0.9698
vn -0.8701 -0.0412 0.5110
vn -0.1579 0.1748 -1.0206
vn -0.6672 0.5559 -0.5458
vn 0.5584 -0.1582 -0.8213
vn 0.9729 -0.2100 -0.0546
vn 0.7436 0.0704 0.6779
vn 0.0769 0.4648 0.8482
vn -0.5708 0.7023 0.3093
vn 0.4903 0.8124 -0.3104
vn -0.6072 0.5737 -0.6046
vn -0.6350 0.5581 0.4642
vn -0.0625 0.9293 0.1541
vn 0.3258 0.7935 -0.5635
vn 0.1497 0.3078 -0.9990
vn -0.3035 -0.0656 -0.9732
vn -0.8507 -0.2074 -0.4715
vn -0.9746 0.0930 0.1979
vn 0.4986 0.4511 0.7020
vn -0.1396 0.0728 1.0105
vn 0.9337 0.3412 -0.0867
vn 0.7484 -0.1581 -0.6453
vn 0.1858 -0.6753 -0.6342
vn -0.4484 -0.8553 0.0040
vn -0.5633 -0.4444 0.7556
vn 0.6090 -0.6160 0.5505
vn -0.8973 -0.4200 -0.0191
vn -0.9126 0.3852 0.0416
vn -0.7543 0.2226 -0.6583
vn -0.4277 -0.2703 -0.8564
vn -0.1565 -0.8046 -0.4524
vn -0.1459 -0.9205 0.3588
vn -0.4125 -0.4831 0.8373
vn -0.7456 0.0589 0.6780
vn -0.0410 0.7103 -0.7725
vn -0.2193 0.9257 0.0604
vn 0.3459 0.0939 -0.9731
vn 0.6778 -0.4875 -0.4955
vn 0.6967 -0.6167 0.3997
vn 0.3774 -0.1488 0.9583
vn -0.0223 0.4974 0.8276
vn 0.8816 0.4505 0.0100
vn -0.8886 -0.3552 -0.2411
vn -0.9072 0.3070 0.2489
vn -0.7640 0.4461 -0.5119
vn -0.4137 0.0706 -0.9439
vn -0.1510 -0.4947 -0.8161
vn -0.1414 -0.9225 -0.1499
vn -0.4252 -0.7527 0.5518
vn -0.7387 -0.2063 0.6819
vn -0.0439 0.9264 -0.3749
vn -0.2178 0.7506 0.5213
vn 0.3545 0.4432 -0.8882
vn 0.6688 -0.2242 -0.7034
vn 0.6975 -0.6889 0.0614
vn 0.3680 -0.5045 0.8476
vn -0.0220 0.1077 1.0130
vn 0.8790 0.3799 0.2334
vn -0.5835 0.1890 0.7920
vn 0.3741 0.8683 0.1219
vn -0.5817 0.6587 -0.5253
vn -0.8251 -0.4193 -0.3242
vn -0.0388 -0.9018 0.4553
vn 0.7047 -0.1210 0.7337
vn 0.6388 -0.1150 -0.7713
vn 0.1052 -0.3737 0.9856
vn 0.4753 -0.7596 -0.3154
vn 0.8568 0.4861 0.0512
vn -0.4753 0.7596 0.3154
vn -0.8568 -0.4861 -0.0512
vn -0.1052 0.3737 -0.9856
# 148 vertex normals

vt 0.0000 1.0000 0.0000
vt 0.0000 0.7143 0.0000
vt 0.1429 0.7143 0.0000
vt 0.1429 1.0000 0.0000
vt 0.2857 0.7143 0.0000
vt 0.2857 1.0000 0.0000
vt 0.4286 0.7143 0.0000
vt 0.4286 1.0000 0.0000
vt 0.5714 0.7143 0.0000
vt 0.5714 1.0000 0.0000
vt 0.7143 0.7143 0.0000
vt 0.7143 1.0000 0.0000
vt 0.8571 0.7143 0.0000
vt 0.8571 1.0000 0.0000
vt 1.0000 0.7143 0.0000
vt 0.1429 0.4286 0.0000
vt 0.0000 0.4286 0.0000
vt 0.2857 0.4286 0.0000
vt 0.4286 0.4286 0.0000
vt 0.5714 0.4286 0.0000
vt 0.7143 0.4286 0.0000
vt 0.8571 0.4286 0.0000
vt 1.0000 0.4286 0.0000
vt 0.0000 0.1429 0.0000
vt 0.1429 0.1429 0.0000
vt 0.2857 0.1429 0.0000
vt 0.4286 0.1429 0.0000
vt 0.5714 0.1429 0.0000
vt 0.7143 0.1429 0.0000
vt 0.8571 0.1429 0.0000
vt 0.0000 0.6000 0.0000
vt 0.2000 0.6000 0.0000
vt 0.2000 1.0000 0.0000
vt 0.4000 0.6000 0.0000
vt 0.4000 1.0000 0.0000
vt 0.6000 0.6000 0.0000
vt 0.6000 1.0000 0.0000
vt 0.8000 0.6000 0.0000
vt 0.8000 1.0000 0.0000
vt 1.0000 0.6000 0.0000
vt 0.0000 0.2000 0.0000
vt 0.2000 0.2000 0.0000
vt 0.4000 0.2000 0.0000
vt 0.6000 0.2000 0.0000
vt 0.8000 0.2000 0.0000
vt 0.0000 0.5000 0.0000
vt 0.2500 0.5000 0.0000
vt 0.2500 1.0000 0.0000
vt 0.5000 0.5000 0.0000
vt 0.5000 1.0000 0.0000
vt 0.7500 0.5000 0.0000
vt 0.7500 1.0000 0.0000
vt 1.0000 0.5000 0.0000
vt 0.0000 0.0000 0.0000
vt 0.2500 0.0000 0.0000
vt 0.5000 0.0000 0.0000
vt 0.7500 0.0000 0.0000
# 57 texture coords

o Sphere011
g Sphere011
usemtl Material__25
s 1
f 1/1/1 2/2/2 3/3/3 
f 1/4/1 3/3/3 4/5/4 
f 1/6/1 4/5/4 5/7/5 
f 1/8/1 5/7/5 6/9/6 
f 1/10/1 6/9/6 7/11/7 
f 1/12/1 7/11/7 8/13/8 
f 1/14/1 8/13/8 2/15/2 
f 9/16/9 3/3/3 2/2/2 
f 2/2/2 10/17/10 9/16/9 
f 11/18/11 4/5/4 3/3/3 
f 3/3/3 9/16/9 11/18/11 
f 12/19/12 5/7/5 4/5/4 
f 4/5/4 11/18/11 12/19/12 
f 13/20/13 6/9/6 5/7/5 
f 5/7/5 12/19/12 13/20/13 
f 14/21/14 7/11/7 6/9/6 
f 6/9/6 13/20/13 14/21/14 
f 15/22/15 8/13/8 7/11/7 
f 7/11/7 14/21/14 15/22/15 
f 10/23/10 2/15/2 8/13/8 
f 8/13/8 15/22/15 10/23/10 
f 16/24/16 9/16/9 10/17/10 
f 16/25/16 11/18/11 9/16/9 
f 16/26/16 12/19/12 11/18/11 
f 16/27/16 13/20/13 12/19/12 
f 16/28/16 14/21/14 13/20/13 
f 16/29/16 15/22/15 14/21/14 
f 16/30/16 10/23/10 15/22/15 
f 17/1/17 18/2/18 19/3/19 
f 17/4/17 19/3/19 20/5/20 
f 17/6/17 20/5/20 21/7/21 
f 17/8/17 21/7/21 22/9/22 
f 17/10/17 22/9/22 23/11/23 
f 17/12/17 23/11/23 24/13/24 
f 17/14/17 24/13/24 18/15/18 
f 25/16/25 19/3/19 18/2/18 
f 18/2/18 26/17/26 25/16/25 
f 27/18/27 20/5/20 19/3/19 
f 19/3/19 25/16/25 27/18/27 
f 28/19/28 21/7/21 20/5/20 
f 20/5/20 27/18/27 28/19/28 
f 29/20/29 22/9/22 21/7/21 
f 21/7/21 28/19/28 29/20/29 
f 30/21/30 23/11/23 22/9/22 
f 22/9/22 29/20/29 30/21/30 
f 31/22/31 24/13/24 23/11/23 
f 23/11/23 30/21/30 31/22/31 
f 26/23/26 18/15/18 24/13/24 
f 24/13/24 31/22/31 26/23/26 
f 32/24/32 25/16/25 26/17/26 
f 32/25/32 27/18/27 25/16/25 
f 32/26/32 28/19/28 27/18/27 
f 32/27/32 29/20/29 28/19/28 
f 32/28/32 30/21/30 29/20/29 
f 32/29/32 31/22/31 30/21/30 
f 32/30/32 26/23/26 31/22/31 
f 33/1/33 34/2/34 35/3/35 
f 33/4/33 35/3/35 36/5/36 
f 33/6/33 36/5/36 37/7/37 
f 33/8/33 37/7/37 38/9/38 
f 33/10/33 38/9/38 39/11/39 
f 33/12/33 39/11/39 40/13/40 
f 33/14/33 40/13/40 34/15/34 
f 41/16/41 35/3/35 34/2/34 
f 34/2/34 42/17/42 41/16/41 
f 43/18/43 36/5/36 35/3/35 
f 35/3/35 41/16/41 43/18/43 
f 44/19/44 37/7/37 36/5/36 
f 36/5/36 43/18/43 44/19/44 
f 45/20/45 38/9/38 37/7/37 
f 37/7/37 44/19/44 45/20/45 
f 46/21/46 39/11/39 38/9/38 
f 38/9/38 45/20/45 46/21/46 
f 47/22/47 40/13/40 39/11/39 
f 39/11/39 46/21/46 47/22/47 
f 42/23/42 34/15/34 40/13/40 
f 40/13/40 47/22/47 42/23/42 
f 48/24/48 41/16/41 42/17/42 
f 48/25/48 43/18/43 41/16/41 
f 48/26/48 44/19/44 43/18/43 
f 48/27/48 45/20/45 44/19/44 
f 48/28/48 46/21/46 45/20/45 
f 48/29/48 47/22/47 46/21/46 
f 48/30/48 42/23/42 47/22/47 
f 49/1/49 50/31/50 51/32/51 
f 49/33/49 51/32/51 52/34/52 
f 49/35/49 52/34/52 53/36/53 
f 49/37/49 53/36/53 54/38/54 
f 49/39/49 54/38/54 50/40/50 
f 55/41/55 51/32/51 50/31/50 
f 55/42/55 52/34/52 51/32/51 
f 55/43/55 53/36/53 52/34/52 
f 55/44/55 54/38/54 53/36/53 
f 55/45/55 50/40/50 54/38/54 
f 56/1/56 57/2/57 58/3/58 
f 56/4/56 58/3/58 59/5/59 
f 56/6/56 59/5/59 60/7/60 
f 56/8/56 60/7/60 61/9/61 
f 56/10/56 61/9/61 62/11/62 
f 56/12/56 62/11/62 63/13/63 
f 56/14/56 63/13/63 57/15/57 
f 64/16/64 58/3/58 57/2/57 
f 57/2/57 65/17/65 64/16/64 
f 66/18/66 59/5/59 58/3/58 
f 58/3/58 64/16/64 66/18/66 
f 67/19/67 60/7/60 59/5/59 
f 59/5/59 66/18/66 67/19/67 
f 68/20/68 61/9/61 60/7/60 
f 60/7/60 67/19/67 68/20/68 
f 69/21/69 62/11/62 61/9/61 
f 61/9/61 68/20/68 69/21/69 
f 70/22/70 63/13/63 62/11/62 
f 62/11/62 69/21/69 70/22/70 
f 65/23/65 57/15/57 63/13/63 
f 63/13/63 70/22/70 65/23/65 
f 71/24/71 64/16/64 65/17/65 
f 71/25/71 66/18/66 64/16/64 
f 71/26/71 67/19/67 66/18/66 
f 71/27/71 68/20/68 67/19/67 
f 71/28/71 69/21/69 68/20/68 
f 71/29/71 70/22/70 69/21/69 
f 71/30/71 65/23/65 70/22/70 
f 72/1/72 73/2/73 74/3/74 
f 72/4/72 74/3/74 75/5/75 
f 72/6/72 75/5/75 76/7/76 
f 72/8/72 76/7/76 77/9/77 
f 72/10/72 77/9/77 78/11/78 
f 72/12/72 78/11/78 79/13/79 
f 72/14/72 79/13/79 73/15/73 
f 80/16/80 74/3/74 73/2/73 
f 73/2/73 81/17/81 80/16/80 
f 82/18/82 75/5/75 74/3/74 
f 74/3/74 80/16/80 82/18/82 
f 83/19/83 76/7/76 75/5/75 
f 75/5/75 82/18/82 83/19/83 
f 84/20/84 77/9/77 76/7/76 
f 76/7/76 83/19/83 84/20/84 
f 85/21/85 78/11/78 77/9/77 
f 77/9/77 84/20/84 85/21/85 
f 86/22/86 79/13/79 78/11/78 
f 78/11/78 85/21/85 86/22/86 
f 81/23/81 73/15/73 79/13/79 
f 79/13/79 86/22/86 81/23/81 
f 87/24/87 80/16/80 81/17/81 
f 87/25/87 82/18/82 80/16/80 
f 87/26/87 83/19/83 82/18/82 
f 87/27/87 84/20/84 83/19/83 
f 87/28/87 85/21/85 84/20/84 
f 87/29/87 86/22/86 85/21/85 
f 87/30/87 81/23/81 86/22/86 
f 88/1/88 89/2/89 90/3/90 
f 88/4/88 90/3/90 91/5/91 
f 88/6/88 91/5/91 92/7/92 
f 88/8/88 92/7/92 93/9/93 
f 88/10/88 93/9/93 94/11/94 
f 88/12/88 94/11/94 95/13/95 
f 88/14/88 95/13/95 89/15/89 
f 96/16/96 90/3/90 89/2/89 
f 89/2/89 97/17/97 96/16/96 
f 98/18/98 91/5/91 90/3/90 
f 90/3/90 96/16/96 98/18/98 
f 99/19/99 92/7/92 91/5/91 
f 91/5/91 98/18/98 99/19/99 
f 100/20/100 93/9/93 92/7/92 
f 92/7/92 99/19/99 100/20/100 
f 101/21/101 94/11/94 93/9/93 
f 93/9/93 100/20/100 101/21/101 
f 102/22/102 95/13/95 94/11/94 
f 94/11/94 101/21/101 102/22/102 
f 97/23/97 89/15/89 95/13/95 
f 95/13/95 102/22/102 97/23/97 
f 103/24/103 96/16/96 97/17/97 
f 103/25/103 98/18/98 96/16/96 
f 103/26/103 99/19/99 98/18/98 
f 103/27/103 100/20/100 99/19/99 
f 103/28/103 101/21/101 100/20/100 
f 103/29/103 102/22/102 101/21/101 
f 103/30/103 97/23/97 102/22/102 
f 104/1/104 105/2/105 106/3/106 
f 104/4/104 106/3/106 107/5/107 
f 104/6/104 107/5/107 108/7/108 
f 104/8/104 108/7/108 109/9/109 
f 104/10/104 109/9/109 110/11/110 
f 104/12/104 110/11/110 111/13/111 
f 104/14/104 111/13/111 105/15/105 
f 112/16/112 106/3/106 105/2/105 
f 105/2/105 113/17/113 112/16/112 
f 114/18/114 107/5/107 106/3/106 
f 106/3/106 112/16/112 114/18/114 
f 115/19/115 108/7/108 107/5/107 
f 107/5/107 114/18/114 115/19/115 
f 116/20/116 109/9/109 108/7/108 
f 108/7/108 115/19/115 116/20/116 
f 117/21/117 110/11/110 109/9/109 
f 109/9/109 116/20/116 117/21/117 
f 118/22/118 111/13/111 110/11/110 
f 110/11/110 117/21/117 118/22/118 
f 113/23/113 105/15/105 111/13/111 
f 111/13/111 118/22/118 113/23/113 
f 119/24/119 112/16/112 113/17/113 
f 119/25/119 114/18/114 112/16/112 
f 119/26/119 115/19/115 114/18/114 
f 119/27/119 116/20/116 115/19/115 
f 119/28/119 117/21/117 116/20/116 
f 119/29/119 118/22/118 117/21/117 
f 119/30/119 113/23/113 118/22/118 
f 120/1/120 121/2/121 122/3/122 
f 120/4/120 122/3/122 123/5/123 
f 120/6/120 123/5/123 124/7/124 
f 120/8/120 124/7/124 125/9/125 
f 120/10/120 125/9/125 126/11/126 
f 120/12/120 126/11/126 127/13/127 
f 120/14/120 127/13/127 121/15/121 
f 128/16/128 122/3/122 121/2/121 
f 121/2/121 129/17/129 128/16/128 
f 130/18/130 123/5/123 122/3/122 
f 122/3/122 128/16/128 130/18/130 
f 131/19/131 124/7/124 123/5/123 
f 123/5/123 130/18/130 131/19/131 
f 132/20/132 125/9/125 124/7/124 
f 124/7/124 131/19/131 132/20/132 
f 133/21/133 126/11/126 125/9/125 
f 125/9/125 132/20/132 133/21/133 
f 134/22/134 127/13/127 126/11/126 
f 126/11/126 133/21/133 134/22/134 
f 129/23/129 121/15/121 127/13/127 
f 127/13/127 134/22/134 129/23/129 
f 135/24/135 128/16/128 129/17/129 
f 135/25/135 130/18/130 128/16/128 
f 135/26/135 131/19/131 130/18/130 
f 135/27/135 132/20/132 131/19/131 
f 135/28/135 133/21/133 132/20/132 
f 135/29/135 134/22/134 133/21/133 
f 135/30/135 129/23/129 134/22/134 
f 136/1/136 137/31/137 138/32/138 
f 136/33/136 138/32/138 139/34/139 
f 136/35/136 139/34/139 140/36/140 
f 136/37/136 140/36/140 141/38/141 
f 136/39/136 141/38/141 137/40/137 
f 142/41/142 138/32/138 137/31/137 
f 142/42/142 139/34/139 138/32/138 
f 142/43/142 140/36/140 139/34/139 
f 142/44/142 141/38/141 140/36/140 
f 142/45/142 137/40/137 141/38/141 
f 143/1/143 144/46/144 145/47/145 
f 143/48/143 145/47/145 146/49/146 
f 143/50/143 146/49/146 147/51/147 
f 143/52/143 147/51/147 144/53/144 
f 148/54/148 145/47/145 144/46/144 
f 148/55/148 146/49/146 145/47/145 
f 148/56/148 147/51/147 146/49/146 
f 148/57/148 144/53/144 147/51/147 
# 252 faces

