# 3ds Max Wavefront OBJ Exporter v0.97b - (c)2007 guruware
# File Created: 14.03.2019 15:54:21

mtllib dust.mtl

#
# object Object002
#

v  0.9481 0.0413 -0.0000
v  0.9481 0.0334 0.0243
v  0.9481 0.0128 0.0393
v  0.9481 -0.0128 0.0393
v  0.9481 -0.0334 0.0243
v  0.9481 -0.0413 -0.0000
v  0.9481 -0.0334 -0.0243
v  0.9481 -0.0128 -0.0393
v  0.9481 0.0128 -0.0393
v  0.9481 0.0334 -0.0243
v  0.6769 0.1655 -0.0000
v  0.6769 0.1339 0.0973
v  0.8739 0.0822 0.0597
v  0.8739 0.1016 -0.0000
v  0.6769 0.0511 0.1574
v  0.8739 0.0314 0.0966
v  0.6769 -0.0511 0.1574
v  0.8739 -0.0314 0.0966
v  0.6769 -0.1339 0.0973
v  0.8739 -0.0822 0.0597
v  0.6769 -0.1655 -0.0000
v  0.8739 -0.1016 -0.0000
v  0.6769 -0.1339 -0.0973
v  0.8739 -0.0822 -0.0597
v  0.6769 -0.0511 -0.1574
v  0.8739 -0.0314 -0.0966
v  0.6769 0.0511 -0.1574
v  0.8739 0.0314 -0.0966
v  0.6769 0.1339 -0.0973
v  0.8739 0.0822 -0.0597
v  -0.5152 0.1655 0.0000
v  -0.5152 0.1339 0.0973
v  -0.5152 0.0511 0.1574
v  -0.5152 -0.0511 0.1574
v  -0.5152 -0.1339 0.0973
v  -0.5152 -0.1655 0.0000
v  -0.5152 -0.1339 -0.0973
v  -0.5152 -0.0511 -0.1574
v  -0.5152 0.0511 -0.1574
v  -0.5152 0.1339 -0.0973
v  -0.5883 0.1257 0.0000
v  -0.5883 0.1017 0.0739
v  -0.5883 0.1017 -0.0739
v  -0.5883 0.0389 -0.1196
v  -0.5883 -0.0389 -0.1196
v  -0.5883 -0.1017 -0.0739
v  -0.5883 -0.1257 0.0000
v  -0.5883 -0.1017 0.0739
v  -0.5883 -0.0389 0.1196
v  -0.5883 0.0389 0.1196
v  -0.6636 0.1017 0.0739
v  -0.6636 0.1257 0.0000
v  -0.7161 0.1647 0.0000
v  -0.7161 0.1332 0.0968
v  -0.6636 0.1017 -0.0739
v  -0.7161 0.1332 -0.0968
v  -0.6636 0.0389 -0.1196
v  -0.7161 0.0509 -0.1566
v  -0.6636 -0.0389 -0.1196
v  -0.7161 -0.0509 -0.1566
v  -0.6636 -0.1017 -0.0739
v  -0.7161 -0.1332 -0.0968
v  -0.6636 -0.1257 0.0000
v  -0.7161 -0.1647 0.0000
v  -0.6636 -0.1017 0.0739
v  -0.7161 -0.1332 0.0968
v  -0.6636 -0.0389 0.1196
v  -0.7161 -0.0509 0.1566
v  -0.6636 0.0389 0.1196
v  -0.7161 0.0509 0.1566
v  -0.9481 0.1647 0.0000
v  -0.9481 0.1332 0.0968
v  -0.9481 0.1332 -0.0968
v  -0.9481 0.0509 -0.1566
v  -0.9481 -0.0509 -0.1566
v  -0.9481 -0.1332 -0.0968
v  -0.9481 -0.1647 0.0000
v  -0.9481 -0.1332 0.0968
v  -0.9481 -0.0509 0.1566
v  -0.9481 0.0509 0.1566
v  -0.9481 0.0939 0.0000
v  -0.9481 0.0760 0.0552
v  -0.9481 0.0760 -0.0552
v  -0.9481 0.0290 -0.0893
v  -0.9481 -0.0290 -0.0893
v  -0.9481 -0.0760 -0.0552
v  -0.9481 -0.0939 0.0000
v  -0.9481 -0.0760 0.0552
v  -0.9481 -0.0290 0.0893
v  -0.9481 0.0290 0.0893
v  -0.0759 -0.1208 -0.0125
v  -0.0749 -0.1791 -0.0125
v  -0.0857 -0.1861 -0.0125
v  -0.3750 -0.2503 -0.0125
v  -0.3838 -0.2494 -0.0125
v  -0.3838 -0.1208 -0.0125
v  -0.3838 -0.1208 0.0227
v  -0.3838 -0.2494 0.0227
v  -0.3750 -0.2503 0.0227
v  -0.0759 -0.1208 0.0227
v  -0.0857 -0.1861 0.0227
v  -0.0749 -0.1791 0.0227
v  -0.0759 0.1223 0.0227
v  -0.0749 0.1805 0.0227
v  -0.0857 0.1875 0.0227
v  -0.3750 0.2517 0.0227
v  -0.3838 0.2509 0.0227
v  -0.3838 0.1223 0.0227
v  -0.3838 0.1223 -0.0125
v  -0.3838 0.2509 -0.0125
v  -0.3750 0.2517 -0.0125
v  -0.0759 0.1223 -0.0125
v  -0.0857 0.1875 -0.0125
v  -0.0749 0.1805 -0.0125
v  -0.0759 0.0104 -0.1125
v  -0.0759 0.0104 -0.1756
v  -0.0847 0.0104 -0.1825
v  -0.3750 0.0104 -0.2798
v  -0.3838 0.0104 -0.2789
v  -0.3838 0.0104 -0.1125
v  -0.3838 -0.0318 -0.1125
v  -0.3838 -0.0318 -0.2789
v  -0.3750 -0.0318 -0.2798
v  -0.0759 -0.0318 -0.1125
v  -0.0847 -0.0318 -0.1825
v  -0.0759 -0.0318 -0.1756
v  -0.0759 -0.0318 0.1125
v  -0.0759 -0.0318 0.1756
v  -0.0847 -0.0318 0.1825
v  -0.3750 -0.0318 0.2798
v  -0.3838 -0.0318 0.2788
v  -0.3838 -0.0318 0.1125
v  -0.3838 0.0104 0.1125
v  -0.3838 0.0104 0.2788
v  -0.3750 0.0104 0.2798
v  -0.0759 0.0104 0.1125
v  -0.0847 0.0104 0.1825
v  -0.0759 0.0104 0.1756
v  -0.8120 0.0290 -0.0893
v  -0.8120 -0.0290 -0.0893
v  -0.8120 -0.0760 -0.0552
v  -0.8120 -0.0939 0.0000
v  -0.8120 -0.0760 0.0552
v  -0.8120 -0.0290 0.0893
v  -0.8120 0.0290 0.0893
v  -0.8120 0.0760 0.0552
v  -0.8120 0.0939 0.0000
v  -0.8120 0.0760 -0.0552
# 148 vertices

vn 1.0000 0.0000 -0.0000
vn 0.4664 0.8413 0.2733
vn 0.4664 0.5199 0.7156
vn 0.4664 -0.0000 0.8845
vn 0.4664 -0.5199 0.7156
vn 0.4664 -0.8413 0.2733
vn 0.4664 -0.8413 -0.2733
vn 0.4664 -0.5199 -0.7156
vn 0.4664 0.0000 -0.8845
vn 0.4664 0.5199 -0.7156
vn 0.4664 0.8413 -0.2733
vn 0.7974 0.5739 0.1865
vn 0.7974 0.3547 0.4882
vn 0.7974 -0.0000 0.6035
vn 0.7974 -0.3547 0.4882
vn 0.7974 -0.5739 0.1865
vn 0.7974 -0.5739 -0.1865
vn 0.7974 -0.3547 -0.4882
vn 0.7974 0.0000 -0.6035
vn 0.7974 0.3547 -0.4882
vn 0.7974 0.5739 -0.1865
vn -0.0000 1.0000 0.0000
vn -0.0000 0.8090 0.5878
vn 0.0000 0.3090 0.9511
vn 0.0000 -0.3090 0.9511
vn 0.0000 -0.8090 0.5878
vn 0.0000 -1.0000 -0.0000
vn 0.0000 -0.8090 -0.5878
vn -0.0000 -0.3090 -0.9511
vn -0.0000 0.3090 -0.9511
vn -0.0000 0.8090 -0.5878
vn -0.6619 0.7129 0.2316
vn -0.6619 0.7129 -0.2316
vn -0.6619 0.4406 -0.6065
vn -0.6619 -0.0000 -0.7496
vn -0.6619 0.0000 -0.7496
vn -0.6619 -0.4406 -0.6065
vn -0.6619 -0.7129 -0.2316
vn -0.6619 -0.7129 0.2316
vn -0.6619 -0.4406 0.6065
vn -0.6619 -0.0000 0.7496
vn -0.6619 0.4406 0.6065
vn 0.7696 0.6072 0.1973
vn 0.7696 0.6072 -0.1973
vn 0.7696 0.3753 -0.5166
vn 0.7696 0.0000 -0.6385
vn 0.7696 -0.3753 -0.5166
vn 0.7696 -0.6072 -0.1973
vn 0.7696 -0.6072 0.1973
vn 0.7696 -0.3753 0.5166
vn 0.7696 0.0000 0.6385
vn 0.7696 0.3753 0.5166
vn -0.0000 0.9511 0.3090
vn -0.0000 0.9511 -0.3090
vn -0.0000 0.5878 -0.8090
vn -0.0000 0.0000 -1.0000
vn 0.0000 -0.5878 -0.8090
vn 0.0000 -0.9511 -0.3090
vn 0.0000 -0.9511 0.3090
vn 0.0000 -0.5878 0.8090
vn 0.0000 -0.0000 1.0000
vn -0.0000 0.5878 0.8090
vn -1.0000 -0.0000 0.0000
vn 0.0000 0.0000 -1.0000
vn 0.3547 -0.9350 -0.0000
vn 0.5654 -0.8248 -0.0000
vn 0.9356 -0.3530 -0.0000
vn 1.0000 0.0099 -0.0000
vn -0.1631 -0.9866 -0.0000
vn -0.0000 -0.0000 -1.0000
vn 0.3547 0.9350 0.0000
vn 0.5654 0.8248 0.0000
vn 0.9356 0.3530 -0.0000
vn 1.0000 -0.0098 -0.0000
vn -0.1631 0.9866 0.0000
vn 0.4973 0.0000 -0.8676
vn 0.6619 0.0000 -0.7496
vn 0.9485 0.0000 -0.3167
vn -0.1812 0.0000 -0.9834
vn -0.1812 -0.0000 -0.9834
vn 0.0000 -1.0000 0.0000
vn -0.0000 1.0000 -0.0000
vn 0.4973 0.0000 0.8676
vn 0.6619 -0.0000 0.7496
vn 0.6619 0.0000 0.7496
vn 0.9485 0.0000 0.3167
vn -0.1812 -0.0000 0.9834
vn -0.0000 -0.5878 -0.8090
vn 0.0000 0.5878 0.8090
vn -1.0000 -0.0000 -0.0000
# 90 vertex normals

vt 0.7500 1.0000 1.0000
vt 0.8500 1.0000 1.0000
vt 0.9500 1.0000 1.0000
vt 0.8781 1.0000 0.6180
vt 0.6618 1.0000 -0.0000
vt 0.3837 1.0000 -0.6180
vt 0.1500 1.0000 -1.0000
vt 0.0500 1.0000 -1.0000
vt 0.1219 1.0000 -0.6180
vt 0.6500 1.0000 1.0000
vt 0.7500 0.0000 1.0000
vt 0.8500 0.0000 1.0000
vt 0.9500 0.0000 1.0000
vt -0.0500 0.0000 1.0000
vt 0.0500 0.0000 1.0000
vt 0.0500 1.0000 1.0000
vt -0.0500 1.0000 1.0000
vt 0.1500 0.0000 1.0000
vt 0.1500 1.0000 1.0000
vt 0.2500 0.0000 1.0000
vt 0.2500 1.0000 1.0000
vt 0.3500 0.0000 1.0000
vt 0.3500 1.0000 1.0000
vt 0.4500 0.0000 1.0000
vt 0.4500 1.0000 1.0000
vt 0.5500 0.0000 1.0000
vt 0.5500 1.0000 1.0000
vt 0.6500 0.0000 1.0000
vt 0.3382 0.0000 -0.0000
vt 0.1219 0.0000 -0.6180
vt 0.0500 0.0000 -1.0000
vt 0.1500 0.0000 -1.0000
vt 0.3837 0.0000 -0.6180
vt 0.6618 0.0000 0.0000
vt 0.8781 0.0000 0.6180
vt 1.0000 0.0000 0.0000
vt 1.0000 0.9417 0.0000
vt 0.9714 1.0000 0.0000
vt 0.0286 1.0000 0.0000
vt 0.0000 0.9771 0.0000
vt 0.0000 0.0000 0.0000
vt 1.0000 0.9771 0.0000
vt 0.0000 0.9417 0.0000
vt 1.0000 1.0000 0.0000
vt 0.0000 1.0000 0.0000
vt 0.9771 0.0000 0.0000
vt 0.9771 1.0000 0.0000
vt 0.0286 0.0000 0.0000
vt 0.9714 0.0000 0.0000
vt 0.0583 0.0000 0.0000
vt 0.0583 1.0000 0.0000
vt -0.0498 -0.0000 0.0000
vt -0.0498 1.0000 0.0000
vt -0.1277 -0.0000 0.0000
vt -0.1277 1.0000 0.0000
# 55 texture coords

o Object002
g Object002
usemtl 02___Default
s 1
f 1/1/1 2/2/1 3/3/1 
f 3/3/1 4/4/1 5/5/1 
f 5/5/1 6/6/1 7/7/1 
f 7/7/1 8/8/1 9/9/1 
f 5/5/1 7/7/1 9/9/1 
f 3/3/1 5/5/1 9/9/1 
f 1/1/1 3/3/1 9/9/1 
f 10/10/1 1/1/1 9/9/1 
s off
f 11/1/2 12/2/2 13/2/2 
f 13/2/2 14/1/2 11/1/2 
f 12/2/3 15/3/3 16/3/3 
f 16/3/3 13/2/3 12/2/3 
f 15/3/4 17/4/4 18/4/4 
f 18/4/4 16/3/4 15/3/4 
f 17/4/5 19/5/5 20/5/5 
f 20/5/5 18/4/5 17/4/5 
f 19/5/6 21/6/6 22/6/6 
f 22/6/6 20/5/6 19/5/6 
f 21/6/7 23/7/7 24/7/7 
f 24/7/7 22/6/7 21/6/7 
f 23/7/8 25/8/8 26/8/8 
f 26/8/8 24/7/8 23/7/8 
f 25/8/9 27/9/9 28/9/9 
f 28/9/9 26/8/9 25/8/9 
f 27/9/10 29/10/10 30/10/10 
f 30/10/10 28/9/10 27/9/10 
f 29/10/11 11/1/11 14/1/11 
f 14/1/11 30/10/11 29/10/11 
f 14/1/12 13/2/12 2/2/12 
f 2/2/12 1/1/12 14/1/12 
f 13/2/13 16/3/13 3/3/13 
f 3/3/13 2/2/13 13/2/13 
f 16/3/14 18/4/14 4/4/14 
f 4/4/14 3/3/14 16/3/14 
f 18/4/15 20/5/15 5/5/15 
f 5/5/15 4/4/15 18/4/15 
f 20/5/16 22/6/16 6/6/16 
f 6/6/16 5/5/16 20/5/16 
f 22/6/17 24/7/17 7/7/17 
f 7/7/17 6/6/17 22/6/17 
f 24/7/18 26/8/18 8/8/18 
f 8/8/18 7/7/18 24/7/18 
f 26/8/19 28/9/19 9/9/19 
f 9/9/19 8/8/19 26/8/19 
f 28/9/20 30/10/20 10/10/20 
f 10/10/20 9/9/20 28/9/20 
f 30/10/21 14/1/21 1/1/21 
f 1/1/21 10/10/21 30/10/21 
usemtl 03___Default
s 8
f 31/11/22 32/12/23 12/2/23 
f 12/2/23 11/1/22 31/11/22 
f 32/12/23 33/13/24 15/3/24 
f 15/3/24 12/2/23 32/12/23 
f 33/14/24 34/15/25 17/16/25 
f 17/16/25 15/17/24 33/14/24 
f 34/15/25 35/18/26 19/19/26 
f 19/19/26 17/16/25 34/15/25 
f 35/18/26 36/20/27 21/21/27 
f 21/21/27 19/19/26 35/18/26 
f 36/20/27 37/22/28 23/23/28 
f 23/23/28 21/21/27 36/20/27 
f 37/22/28 38/24/29 25/25/29 
f 25/25/29 23/23/28 37/22/28 
f 38/24/29 39/26/30 27/27/30 
f 27/27/30 25/25/29 38/24/29 
f 39/26/30 40/28/31 29/10/31 
f 29/10/31 27/27/30 39/26/30 
f 40/28/31 31/11/22 11/1/22 
f 11/1/22 29/10/31 40/28/31 
s off
f 32/12/32 31/11/32 41/11/32 
f 41/11/32 42/12/32 32/12/32 
f 31/11/33 40/29/33 43/29/33 
f 43/29/33 41/11/33 31/11/33 
f 40/29/34 39/30/34 44/30/34 
f 44/30/34 43/29/34 40/29/34 
f 39/30/35 38/31/35 45/31/35 
f 45/31/36 44/30/36 39/30/36 
f 38/31/37 37/32/37 46/32/37 
f 46/32/37 45/31/37 38/31/37 
f 37/32/38 36/33/38 47/33/38 
f 47/33/38 46/32/38 37/32/38 
f 36/33/39 35/34/39 48/34/39 
f 48/34/39 47/33/39 36/33/39 
f 35/34/40 34/35/40 49/35/40 
f 49/35/40 48/34/40 35/34/40 
f 34/35/41 33/13/41 50/13/41 
f 50/13/41 49/35/41 34/35/41 
f 33/13/42 32/12/42 42/12/42 
f 42/12/42 50/13/42 33/13/42 
f 51/12/43 52/11/43 53/11/43 
f 53/11/43 54/12/43 51/12/43 
f 52/11/44 55/29/44 56/29/44 
f 56/29/44 53/11/44 52/11/44 
f 55/29/45 57/30/45 58/30/45 
f 58/30/45 56/29/45 55/29/45 
f 57/30/46 59/31/46 60/31/46 
f 60/31/46 58/30/46 57/30/46 
f 59/31/47 61/32/47 62/32/47 
f 62/32/47 60/31/47 59/31/47 
f 61/32/48 63/33/48 64/33/48 
f 64/33/48 62/32/48 61/32/48 
f 63/33/49 65/34/49 66/34/49 
f 66/34/49 64/33/49 63/33/49 
f 65/34/50 67/35/50 68/35/50 
f 68/35/50 66/34/50 65/34/50 
f 67/35/51 69/13/51 70/13/51 
f 70/13/51 68/35/51 67/35/51 
f 69/13/52 51/12/52 54/12/52 
f 54/12/52 70/13/52 69/13/52 
f 54/12/53 53/11/53 71/11/53 
f 71/11/53 72/12/53 54/12/53 
f 53/11/54 56/29/54 73/29/54 
f 73/29/54 71/11/54 53/11/54 
f 56/29/55 58/30/55 74/30/55 
f 74/30/55 73/29/55 56/29/55 
f 58/30/56 60/31/56 75/31/56 
f 75/31/56 74/30/56 58/30/56 
f 60/31/57 62/32/57 76/32/57 
f 76/32/57 75/31/57 60/31/57 
f 62/32/58 64/33/58 77/33/58 
f 77/33/58 76/32/58 62/32/58 
f 64/33/59 66/34/59 78/34/59 
f 78/34/59 77/33/59 64/33/59 
f 66/34/60 68/35/60 79/35/60 
f 79/35/60 78/34/60 66/34/60 
f 68/35/61 70/13/61 80/13/61 
f 80/13/61 79/35/61 68/35/61 
f 70/13/62 54/12/62 72/12/62 
f 72/12/62 80/13/62 70/13/62 
f 72/12/63 71/11/63 81/11/63 
f 81/11/63 82/12/63 72/12/63 
f 71/11/63 73/29/63 83/29/63 
f 83/29/63 81/11/63 71/11/63 
f 73/29/63 74/30/63 84/30/63 
f 84/30/63 83/29/63 73/29/63 
f 74/30/63 75/31/63 85/31/63 
f 85/31/63 84/30/63 74/30/63 
f 75/31/63 76/32/63 86/32/63 
f 86/32/63 85/31/63 75/31/63 
f 76/32/63 77/33/63 87/33/63 
f 87/33/63 86/32/63 76/32/63 
f 77/33/63 78/34/63 88/34/63 
f 88/34/63 87/33/63 77/33/63 
f 78/34/63 79/35/63 89/35/63 
f 89/35/63 88/34/63 78/34/63 
f 79/35/63 80/13/63 90/13/63 
f 90/13/63 89/35/63 79/35/63 
f 80/13/63 72/12/63 82/12/63 
f 82/12/63 90/13/63 80/13/63 
usemtl 02___Default
s 1
f 91/36/56 92/37/64 93/38/56 
f 93/38/56 94/39/56 95/40/56 
f 91/36/56 93/38/56 95/40/56 
f 91/36/56 95/40/56 96/41/56 
f 97/36/61 98/42/61 99/38/61 
f 100/41/61 97/36/61 99/38/61 
f 99/38/61 101/39/61 102/43/61 
f 100/41/61 99/38/61 102/43/61 
s 2
f 91/41/22 96/36/22 97/44/22 
f 97/44/22 100/45/22 91/41/22 
s 4
f 96/41/63 95/46/63 98/47/63 
f 98/47/63 97/45/63 96/41/63 
f 94/48/65 93/49/66 101/38/66 
f 101/38/66 99/39/65 94/48/65 
f 92/50/67 91/36/68 100/44/68 
f 100/44/68 102/51/67 92/50/67 
s 2
f 95/52/69 94/48/69 99/39/69 
f 99/39/69 98/53/69 95/52/69 
s 4
f 93/54/66 92/50/67 102/51/67 
f 102/51/67 101/55/66 93/54/66 
s 1
f 103/36/61 104/37/61 105/38/61 
f 105/38/61 106/39/61 107/40/61 
f 103/36/61 105/38/61 107/40/61 
f 103/36/61 107/40/61 108/41/61 
f 109/36/56 110/42/56 111/38/56 
f 112/41/56 109/36/56 111/38/56 
f 111/38/56 113/39/70 114/43/56 
f 112/41/56 111/38/56 114/43/56 
s 2
f 103/41/27 108/36/27 109/44/27 
f 109/44/27 112/45/27 103/41/27 
s 4
f 108/41/63 107/46/63 110/47/63 
f 110/47/63 109/45/63 108/41/63 
f 106/48/71 105/49/72 113/38/72 
f 113/38/72 111/39/71 106/48/71 
f 104/50/73 103/36/74 112/44/74 
f 112/44/74 114/51/73 104/50/73 
s 2
f 107/52/75 106/48/75 111/39/75 
f 111/39/75 110/53/75 107/52/75 
s 4
f 105/54/72 104/50/73 114/51/73 
f 114/51/73 113/55/72 105/54/72 
s 1
f 115/36/22 116/37/22 117/38/22 
f 117/38/22 118/39/22 119/40/22 
f 115/36/22 117/38/22 119/40/22 
f 115/36/22 119/40/22 120/41/22 
f 121/36/27 122/42/27 123/38/27 
f 124/41/27 121/36/27 123/38/27 
f 123/38/27 125/39/27 126/43/27 
f 124/41/27 123/38/27 126/43/27 
s 2
f 115/41/61 120/36/61 121/44/61 
f 121/44/61 124/45/61 115/41/61 
s 4
f 120/41/63 119/46/63 122/47/63 
f 122/47/63 121/45/63 120/41/63 
f 118/48/76 117/49/77 125/38/77 
f 125/38/77 123/39/76 118/48/76 
f 116/50/78 115/36/1 124/44/1 
f 124/44/1 126/51/78 116/50/78 
s 2
f 119/52/79 118/48/79 123/39/80 
f 123/39/80 122/53/80 119/52/79 
s 4
f 117/54/77 116/50/78 126/51/78 
f 126/51/78 125/55/77 117/54/77 
s 1
f 127/36/27 128/37/27 129/38/27 
f 129/38/27 130/39/81 131/40/81 
f 127/36/27 129/38/27 131/40/81 
f 127/36/27 131/40/81 132/41/27 
f 133/36/22 134/42/22 135/38/22 
f 136/41/22 133/36/22 135/38/22 
f 135/38/22 137/39/82 138/43/22 
f 136/41/22 135/38/22 138/43/22 
s 2
f 127/41/56 132/36/56 133/44/56 
f 133/44/56 136/45/56 127/41/56 
s 4
f 132/41/63 131/46/63 134/47/63 
f 134/47/63 133/45/63 132/41/63 
f 130/48/83 129/49/84 137/38/85 
f 137/38/85 135/39/83 130/48/83 
f 128/50/86 127/36/1 136/44/1 
f 136/44/1 138/51/86 128/50/86 
s 2
f 131/52/87 130/48/87 135/39/87 
f 135/39/87 134/53/87 131/52/87 
s 4
f 129/54/84 128/50/86 138/51/86 
f 138/51/86 137/55/85 129/54/84 
usemtl 07___Default
s off
f 42/12/53 41/11/53 52/11/53 
f 52/11/53 51/12/53 42/12/53 
f 41/11/54 43/29/54 55/29/54 
f 55/29/54 52/11/54 41/11/54 
f 43/29/55 44/30/55 57/30/55 
f 57/30/55 55/29/55 43/29/55 
f 44/30/56 45/31/56 59/31/56 
f 59/31/56 57/30/56 44/30/56 
f 45/31/88 46/32/88 61/32/88 
f 61/32/88 59/31/88 45/31/88 
f 46/32/58 47/33/58 63/33/58 
f 63/33/58 61/32/58 46/32/58 
f 47/33/59 48/34/59 65/34/59 
f 65/34/59 63/33/59 47/33/59 
f 48/34/60 49/35/60 67/35/60 
f 67/35/60 65/34/60 48/34/60 
f 49/35/61 50/13/61 69/13/61 
f 69/13/61 67/35/61 49/35/61 
f 50/13/89 42/12/89 51/12/89 
f 51/12/89 69/13/89 50/13/89 
s 1
f 139/30/63 140/31/63 141/32/63 
f 141/32/63 142/33/63 143/34/63 
f 143/34/63 144/35/90 145/13/63 
f 145/13/63 146/12/63 147/11/63 
f 143/34/63 145/13/63 147/11/63 
f 141/32/63 143/34/63 147/11/63 
f 139/30/63 141/32/63 147/11/63 
f 148/29/63 139/30/63 147/11/63 
s off
f 82/12/58 81/11/58 147/11/58 
f 147/11/58 146/12/58 82/12/58 
f 81/11/59 83/29/59 148/29/59 
f 148/29/59 147/11/59 81/11/59 
f 83/29/60 84/30/60 139/30/60 
f 139/30/60 148/29/60 83/29/60 
f 84/30/61 85/31/61 140/31/61 
f 140/31/61 139/30/61 84/30/61 
f 85/31/89 86/32/89 141/32/89 
f 141/32/89 140/31/89 85/31/89 
f 86/32/53 87/33/53 142/33/53 
f 142/33/53 141/32/53 86/32/53 
f 87/33/54 88/34/54 143/34/54 
f 143/34/54 142/33/54 87/33/54 
f 88/34/55 89/35/55 144/35/55 
f 144/35/55 143/34/55 88/34/55 
f 89/35/56 90/13/56 145/13/56 
f 145/13/56 144/35/56 89/35/56 
f 90/13/88 82/12/88 146/12/88 
f 146/12/88 145/13/88 90/13/88 
# 276 faces

#
# object Plane002
#

v  50.0000 0.0000 -25.0000
v  50.0000 0.0000 -50.0000
v  25.0000 0.0000 -25.0000
v  25.0000 0.0000 -50.0000
v  0.0000 0.0000 -25.0000
v  0.0000 0.0000 -50.0000
v  -25.0000 0.0000 -25.0000
v  -25.0000 0.0000 -50.0000
v  -50.0000 0.0000 -25.0000
v  -50.0000 0.0000 -50.0000
v  50.0000 0.0000 0.0000
v  25.0000 0.0000 0.0000
v  0.0000 0.0000 -0.0000
v  -25.0000 0.0000 -0.0000
v  -50.0000 0.0000 -0.0000
v  50.0000 0.0000 25.0000
v  25.0000 0.0000 25.0000
v  -0.0000 0.0000 25.0000
v  -25.0000 0.0000 25.0000
v  -50.0000 0.0000 25.0000
v  50.0000 0.0000 50.0000
v  25.0000 0.0000 50.0000
v  -0.0000 0.0000 50.0000
v  -25.0000 0.0000 50.0000
v  -50.0000 0.0000 50.0000
# 25 vertices

vn 0.0000 1.0000 -0.0000
# 1 vertex normals

vt 0.0000 0.2500 0.0000
vt 0.0000 0.0000 0.0000
vt 0.2500 0.2500 0.0000
vt 0.2500 0.0000 0.0000
vt 0.5000 0.2500 0.0000
vt 0.5000 0.0000 0.0000
vt 0.7500 0.2500 0.0000
vt 0.7500 0.0000 0.0000
vt 1.0000 0.2500 0.0000
vt 1.0000 0.0000 0.0000
vt 0.0000 0.5000 0.0000
vt 0.2500 0.5000 0.0000
vt 0.5000 0.5000 0.0000
vt 0.7500 0.5000 0.0000
vt 1.0000 0.5000 0.0000
vt 0.0000 0.7500 0.0000
vt 0.2500 0.7500 0.0000
vt 0.5000 0.7500 0.0000
vt 0.7500 0.7500 0.0000
vt 1.0000 0.7500 0.0000
vt 0.0000 1.0000 0.0000
vt 0.2500 1.0000 0.0000
vt 0.5000 1.0000 0.0000
vt 0.7500 1.0000 0.0000
vt 1.0000 1.0000 0.0000
# 25 texture coords

o Plane002
g Plane002
usemtl Material__53
s 1
f 149/56/91 150/57/91 151/58/91 
f 152/59/91 151/58/91 150/57/91 
f 151/58/91 152/59/91 153/60/91 
f 154/61/91 153/60/91 152/59/91 
f 153/60/91 154/61/91 155/62/91 
f 156/63/91 155/62/91 154/61/91 
f 155/62/91 156/63/91 157/64/91 
f 158/65/91 157/64/91 156/63/91 
f 159/66/91 149/56/91 160/67/91 
f 151/58/91 160/67/91 149/56/91 
f 160/67/91 151/58/91 161/68/91 
f 153/60/91 161/68/91 151/58/91 
f 161/68/91 153/60/91 162/69/91 
f 155/62/91 162/69/91 153/60/91 
f 162/69/91 155/62/91 163/70/91 
f 157/64/91 163/70/91 155/62/91 
f 164/71/91 159/66/91 165/72/91 
f 160/67/91 165/72/91 159/66/91 
f 165/72/91 160/67/91 166/73/91 
f 161/68/91 166/73/91 160/67/91 
f 166/73/91 161/68/91 167/74/91 
f 162/69/91 167/74/91 161/68/91 
f 167/74/91 162/69/91 168/75/91 
f 163/70/91 168/75/91 162/69/91 
f 169/76/91 164/71/91 170/77/91 
f 165/72/91 170/77/91 164/71/91 
f 170/77/91 165/72/91 171/78/91 
f 166/73/91 171/78/91 165/72/91 
f 171/78/91 166/73/91 172/79/91 
f 167/74/91 172/79/91 166/73/91 
f 172/79/91 167/74/91 173/80/91 
f 168/75/91 173/80/91 167/74/91 
# 32 faces

