# 3ds Max Wavefront OBJ Exporter v0.97b - (c)2007 guruware
# File Created: 13.03.2019 20:37:06

mtllib skybox.mtl

#
# object Object001
#

v  -290.3167 -105.8793 100.0000
v  -290.3167 94.1207 100.0000
v  309.6833 94.1207 100.0000
v  309.6833 -105.8793 100.0000
v  309.6833 94.1207 -100.0000
v  309.6833 -105.8793 -100.0000
v  309.6832 -105.8793 -100.0000
v  309.6832 94.1207 -100.0000
v  -290.3168 94.1207 -100.0000
v  -290.3168 -105.8793 -100.0000
v  -290.3167 94.1207 -100.0000
v  -290.3167 -105.8793 -100.0000
# 12 vertices

vn 0.0000 0.0000 -1.0000
vn -1.0000 0.0000 -0.0000
vn 0.0000 -0.0000 1.0000
vn 0.0000 -1.0000 -0.0000
vn 1.0000 0.0000 -0.0000
# 5 vertex normals

vt 0.0000 0.0000 0.0000
vt 0.0000 1.0000 0.0000
vt 1.0000 1.0000 0.0000
vt 1.0000 0.0000 0.0000
# 4 texture coords

o Object001
g Object001
usemtl Material__25
s 8
f 1/1/1 2/2/1 3/3/1 
f 3/3/1 4/4/1 1/1/1 
usemtl Material__30
s 16
f 4/1/2 3/2/2 5/3/2 
f 5/3/2 6/4/2 4/1/2 
usemtl Material__31
s 32
f 7/1/3 8/2/3 9/3/3 
f 9/3/3 10/4/3 7/1/3 
usemtl Material__27
s 4
f 2/1/4 11/2/4 5/3/4 
f 5/3/4 3/4/4 2/1/4 
usemtl Material__32
s 64
f 12/1/5 11/2/5 2/3/5 
f 2/3/5 1/4/5 12/1/5 
usemtl Material__34
s 2
f 1/4/4 12/3/4 6/2/4 
f 6/2/4 4/1/4 1/4/4 
# 12 faces

