# 3ds Max Wavefront OBJ Exporter v0.97b - (c)2007 guruware
# File Created: 18.03.2019 09:53:35

mtllib stone.mtl

#
# object Sphere011
#

v  0.0000 39.2329 24.9846
v  -0.0000 52.5078 9.2605
v  -15.5744 46.5877 11.6390
v  -19.4210 33.2852 16.9833
v  -8.6431 22.6175 21.2692
v  8.6432 22.6175 21.2692
v  19.4210 33.2852 16.9833
v  15.5744 46.5877 11.6390
v  -19.4210 43.5066 -10.4710
v  -0.0000 50.8889 -13.4369
v  -24.2176 26.9187 -3.8067
v  -10.7778 13.6163 1.5376
v  10.7778 13.6163 1.5376
v  24.2176 26.9187 -3.8067
v  19.4210 43.5066 -10.4710
v  0.0000 26.2251 -24.9846
v  3.7119 24.6200 8.5744
v  3.0146 24.6104 20.1326
v  4.8161 32.7926 16.7027
v  9.0893 34.8663 8.9958
v  12.6164 29.2700 2.8153
v  12.7415 20.2179 2.8153
v  9.3703 14.5263 8.9958
v  5.0415 16.4811 16.7027
v  13.8620 34.9322 23.6073
v  11.6156 24.7292 27.8843
v  19.1906 37.5181 13.9969
v  23.5889 30.5397 6.2900
v  23.7448 19.2518 6.2900
v  19.5410 12.1545 13.9969
v  14.1430 14.5922 23.6073
v  27.0133 24.9420 21.5808
v  23.4165 -11.1336 -13.4200
v  23.4165 -12.4652 8.6499
v  7.8421 -8.8099 2.1006
v  3.9956 -0.5965 -12.6154
v  14.7734 5.9902 -24.4167
v  32.0597 5.9902 -24.4167
v  42.8375 -0.5965 -12.6154
v  38.9910 -8.8099 2.1006
v  3.9956 8.5176 15.2845
v  23.4165 3.9595 23.4513
v  -0.8010 18.7595 -3.0660
v  12.6387 26.9729 -17.7820
v  34.1944 26.9729 -17.7820
v  47.6341 18.7595 -3.0660
v  42.8375 8.5176 15.2845
v  23.4165 33.3634 11.4150
v  10.0357 -2.9671 5.3591
v  10.0357 -1.0777 35.1661
v  -13.0105 4.3403 20.7164
v  -4.2076 13.1068 -2.6637
v  24.2790 13.1068 -2.6637
v  33.0818 4.3403 20.7164
v  10.0357 25.1969 31.1055
v  -11.4173 17.6188 24.9846
v  -11.4173 30.8937 9.2605
v  -26.9918 24.9736 11.6390
v  -30.8383 11.6712 16.9833
v  -20.0605 1.0034 21.2692
v  -2.7742 1.0035 21.2692
v  8.0037 11.6712 16.9833
v  4.1571 24.9736 11.6390
v  -30.8383 21.8925 -10.4710
v  -11.4173 29.2748 -13.4369
v  -35.6349 5.3046 -3.8067
v  -22.1952 -7.9978 1.5376
v  -0.6395 -7.9978 1.5376
v  12.8002 5.3046 -3.8067
v  8.0037 21.8925 -10.4710
v  -11.4173 4.6110 -24.9846
v  -34.1365 10.8075 -35.7777
v  -35.4679 10.7891 -13.7078
v  -32.0282 26.4126 -20.2570
v  -23.8687 30.3722 -34.9730
v  -17.1338 19.6864 -46.7743
v  -16.8949 2.4018 -46.7743
v  -23.3320 -8.4660 -34.9730
v  -31.5978 -4.7333 -20.2570
v  -14.7555 30.4981 -7.0731
v  -19.0448 11.0160 1.0936
v  -4.5808 35.4358 -25.4237
v  3.8175 22.1108 -40.1396
v  4.1153 0.5572 -40.1396
v  -3.9116 -12.9947 -25.4237
v  -14.2188 -8.3401 -7.0731
v  10.3562 11.4223 -10.9427
v  -13.1659 32.3594 -32.3765
v  -13.6299 32.8506 -23.2000
v  -6.6111 36.9299 -25.9232
v  -2.3299 35.2408 -32.0420
v  -4.0101 29.0551 -36.9489
v  -10.3865 23.0309 -36.9489
v  -16.6575 21.7044 -32.0420
v  -18.1010 26.0746 -25.9232
v  0.8464 31.8789 -20.4414
v  -7.9060 26.7920 -17.0457
v  6.1850 29.7725 -28.0714
v  4.0898 22.0591 -34.1902
v  -3.8614 14.5470 -34.1902
v  -11.6813 12.8930 -28.0714
v  -13.4813 18.3425 -20.4414
v  2.3412 15.9458 -22.0503
v  -6.4452 24.6200 -21.7742
v  -7.1425 24.6104 -10.2160
v  -5.3410 32.7926 -13.6459
v  -1.0678 34.8663 -21.3528
v  2.4593 29.2700 -27.5333
v  2.5844 20.2179 -27.5333
v  -0.7868 14.5263 -21.3528
v  -5.1157 16.4811 -13.6459
v  3.7048 34.9322 -6.7413
v  1.4585 24.7293 -2.4643
v  9.0335 37.5181 -16.3517
v  13.4317 30.5397 -24.0586
v  13.5877 19.2518 -24.0586
v  9.3839 12.1545 -16.3517
v  3.9859 14.5922 -6.7413
v  16.8561 24.9420 -8.7679
v  -9.2160 10.8239 -46.6199
v  -9.9133 10.8143 -35.0617
v  -8.1119 18.9964 -38.4916
v  -3.8387 21.0702 -46.1985
v  -0.3115 15.4739 -52.3790
v  -0.1864 6.4217 -52.3790
v  -3.5576 0.7301 -46.1985
v  -7.8865 2.6850 -38.4916
v  0.9340 21.1361 -31.5870
v  -1.3124 10.9331 -27.3100
v  6.2626 23.7220 -41.1974
v  10.6609 16.7436 -48.9043
v  10.8169 5.4557 -48.9043
v  6.6131 -1.6416 -41.1974
v  1.2151 0.7961 -31.5870
v  14.0853 11.1459 -33.6136
v  18.6027 -2.9671 -40.0808
v  18.6027 -1.0777 -10.2739
v  -4.4434 4.3403 -24.7236
v  4.3594 13.1068 -48.1036
v  32.8460 13.1068 -48.1036
v  41.6489 4.3403 -24.7236
v  18.6027 25.1969 -14.3344
v  40.9725 9.3397 -8.8493
v  34.8705 14.5267 -20.3074
v  27.4528 7.1034 -12.5022
v  37.4531 -1.1232 -14.3368
v  44.8708 6.3001 -22.1419
v  31.3510 4.0638 -25.7948
# 148 vertices

vn -0.0000 0.2519 0.9677
vn -0.0000 0.9058 0.2459
vn -0.6421 0.6189 0.3612
vn -0.8007 -0.0259 0.6202
vn -0.3564 -0.5429 0.8279
vn 0.3564 -0.5429 0.8279
vn 0.8007 -0.0259 0.6202
vn 0.6421 0.6189 0.3612
vn -0.7478 0.4798 -0.5048
vn -0.0000 0.8140 -0.6390
vn -0.9325 -0.2710 -0.2031
vn -0.4150 -0.8731 0.0388
vn 0.4150 -0.8731 0.0388
vn 0.9325 -0.2710 -0.2031
vn 0.7478 0.4798 -0.5048
vn 0.0000 -0.2519 -0.9677
vn -0.8695 0.0124 -0.5108
vn -0.9000 -0.0307 0.4519
vn -0.7890 0.5547 0.1566
vn -0.4383 0.7574 -0.5302
vn -0.1469 0.3413 -0.9902
vn -0.1375 -0.2590 -0.9547
vn -0.4157 -0.7258 -0.4432
vn -0.7726 -0.5921 0.2249
vn -0.0532 0.6552 0.6806
vn -0.2045 -0.0472 1.0138
vn 0.3615 0.8964 -0.1083
vn 0.6799 0.4026 -0.6655
vn 0.6906 -0.3284 -0.6214
vn 0.3883 -0.8811 -0.0033
vn -0.0324 -0.7203 0.7621
vn 0.8722 -0.0114 0.5057
vn 0.0000 -0.7891 -0.5023
vn -0.0000 -0.8674 0.5410
vn -0.6747 -0.6956 0.2278
vn -0.8142 -0.3372 -0.4402
vn -0.3566 -0.0679 -0.9536
vn 0.3566 -0.0679 -0.9536
vn 0.8142 -0.3372 -0.4402
vn 0.6747 -0.6956 0.2278
vn -0.7476 -0.0651 0.6888
vn -0.0000 -0.2384 1.0257
vn -0.9406 0.3255 -0.0645
vn -0.4267 0.6549 -0.6861
vn 0.4267 0.6549 -0.6861
vn 0.9406 0.3255 -0.0645
vn 0.7476 -0.0651 0.6888
vn -0.0000 0.8115 0.4636
vn -0.0000 -0.8172 -0.4532
vn -0.0000 -0.6087 0.8658
vn -0.9464 -0.2495 0.2259
vn -0.5806 0.3033 -0.8079
vn 0.5806 0.3033 -0.8079
vn 0.9464 -0.2495 0.2259
vn -0.0000 0.7847 0.5095
vn -0.6072 0.5737 -0.6046
vn -0.6350 0.5581 0.4642
vn -0.0625 0.9293 0.1541
vn 0.3258 0.7935 -0.5635
vn 0.1497 0.3078 -0.9990
vn -0.3035 -0.0656 -0.9732
vn -0.8507 -0.2074 -0.4715
vn -0.9746 0.0930 0.1979
vn 0.4986 0.4511 0.7020
vn -0.1396 0.0728 1.0105
vn 0.9337 0.3412 -0.0867
vn 0.7484 -0.1581 -0.6453
vn 0.1858 -0.6753 -0.6342
vn -0.4484 -0.8553 0.0040
vn -0.5633 -0.4444 0.7556
vn 0.6090 -0.6160 0.5505
vn 0.0000 0.7847 0.5095
vn 0.4726 0.2669 0.8334
vn -0.1219 0.9236 -0.3597
vn -0.8754 0.0190 0.4962
vn 0.1219 -0.9236 0.3597
vn 0.8754 -0.0190 -0.4962
vn -0.4726 -0.2669 -0.8334
# 78 vertex normals

vt 0.0000 1.0000 0.0000
vt 0.0000 0.7143 0.0000
vt 0.1429 0.7143 0.0000
vt 0.1429 1.0000 0.0000
vt 0.2857 0.7143 0.0000
vt 0.2857 1.0000 0.0000
vt 0.4286 0.7143 0.0000
vt 0.4286 1.0000 0.0000
vt 0.5714 0.7143 0.0000
vt 0.5714 1.0000 0.0000
vt 0.7143 0.7143 0.0000
vt 0.7143 1.0000 0.0000
vt 0.8571 0.7143 0.0000
vt 0.8571 1.0000 0.0000
vt 1.0000 0.7143 0.0000
vt 0.1429 0.4286 0.0000
vt 0.0000 0.4286 0.0000
vt 0.2857 0.4286 0.0000
vt 0.4286 0.4286 0.0000
vt 0.5714 0.4286 0.0000
vt 0.7143 0.4286 0.0000
vt 0.8571 0.4286 0.0000
vt 1.0000 0.4286 0.0000
vt 0.0000 0.1429 0.0000
vt 0.1429 0.1429 0.0000
vt 0.2857 0.1429 0.0000
vt 0.4286 0.1429 0.0000
vt 0.5714 0.1429 0.0000
vt 0.7143 0.1429 0.0000
vt 0.8571 0.1429 0.0000
vt 0.0000 0.6000 0.0000
vt 0.2000 0.6000 0.0000
vt 0.2000 1.0000 0.0000
vt 0.4000 0.6000 0.0000
vt 0.4000 1.0000 0.0000
vt 0.6000 0.6000 0.0000
vt 0.6000 1.0000 0.0000
vt 0.8000 0.6000 0.0000
vt 0.8000 1.0000 0.0000
vt 1.0000 0.6000 0.0000
vt 0.0000 0.2000 0.0000
vt 0.2000 0.2000 0.0000
vt 0.4000 0.2000 0.0000
vt 0.6000 0.2000 0.0000
vt 0.8000 0.2000 0.0000
vt 0.0000 0.5000 0.0000
vt 0.2500 0.5000 0.0000
vt 0.2500 1.0000 0.0000
vt 0.5000 0.5000 0.0000
vt 0.5000 1.0000 0.0000
vt 0.7500 0.5000 0.0000
vt 0.7500 1.0000 0.0000
vt 1.0000 0.5000 0.0000
vt 0.0000 0.0000 0.0000
vt 0.2500 0.0000 0.0000
vt 0.5000 0.0000 0.0000
vt 0.7500 0.0000 0.0000
# 57 texture coords

o Sphere011
g Sphere011
usemtl Material__25
s 1
f 1/1/1 2/2/2 3/3/3 
f 1/4/1 3/3/3 4/5/4 
f 1/6/1 4/5/4 5/7/5 
f 1/8/1 5/7/5 6/9/6 
f 1/10/1 6/9/6 7/11/7 
f 1/12/1 7/11/7 8/13/8 
f 1/14/1 8/13/8 2/15/2 
f 9/16/9 3/3/3 2/2/2 
f 2/2/2 10/17/10 9/16/9 
f 11/18/11 4/5/4 3/3/3 
f 3/3/3 9/16/9 11/18/11 
f 12/19/12 5/7/5 4/5/4 
f 4/5/4 11/18/11 12/19/12 
f 13/20/13 6/9/6 5/7/5 
f 5/7/5 12/19/12 13/20/13 
f 14/21/14 7/11/7 6/9/6 
f 6/9/6 13/20/13 14/21/14 
f 15/22/15 8/13/8 7/11/7 
f 7/11/7 14/21/14 15/22/15 
f 10/23/10 2/15/2 8/13/8 
f 8/13/8 15/22/15 10/23/10 
f 16/24/16 9/16/9 10/17/10 
f 16/25/16 11/18/11 9/16/9 
f 16/26/16 12/19/12 11/18/11 
f 16/27/16 13/20/13 12/19/12 
f 16/28/16 14/21/14 13/20/13 
f 16/29/16 15/22/15 14/21/14 
f 16/30/16 10/23/10 15/22/15 
f 17/1/17 18/2/18 19/3/19 
f 17/4/17 19/3/19 20/5/20 
f 17/6/17 20/5/20 21/7/21 
f 17/8/17 21/7/21 22/9/22 
f 17/10/17 22/9/22 23/11/23 
f 17/12/17 23/11/23 24/13/24 
f 17/14/17 24/13/24 18/15/18 
f 25/16/25 19/3/19 18/2/18 
f 18/2/18 26/17/26 25/16/25 
f 27/18/27 20/5/20 19/3/19 
f 19/3/19 25/16/25 27/18/27 
f 28/19/28 21/7/21 20/5/20 
f 20/5/20 27/18/27 28/19/28 
f 29/20/29 22/9/22 21/7/21 
f 21/7/21 28/19/28 29/20/29 
f 30/21/30 23/11/23 22/9/22 
f 22/9/22 29/20/29 30/21/30 
f 31/22/31 24/13/24 23/11/23 
f 23/11/23 30/21/30 31/22/31 
f 26/23/26 18/15/18 24/13/24 
f 24/13/24 31/22/31 26/23/26 
f 32/24/32 25/16/25 26/17/26 
f 32/25/32 27/18/27 25/16/25 
f 32/26/32 28/19/28 27/18/27 
f 32/27/32 29/20/29 28/19/28 
f 32/28/32 30/21/30 29/20/29 
f 32/29/32 31/22/31 30/21/30 
f 32/30/32 26/23/26 31/22/31 
f 33/1/33 34/2/34 35/3/35 
f 33/4/33 35/3/35 36/5/36 
f 33/6/33 36/5/36 37/7/37 
f 33/8/33 37/7/37 38/9/38 
f 33/10/33 38/9/38 39/11/39 
f 33/12/33 39/11/39 40/13/40 
f 33/14/33 40/13/40 34/15/34 
f 41/16/41 35/3/35 34/2/34 
f 34/2/34 42/17/42 41/16/41 
f 43/18/43 36/5/36 35/3/35 
f 35/3/35 41/16/41 43/18/43 
f 44/19/44 37/7/37 36/5/36 
f 36/5/36 43/18/43 44/19/44 
f 45/20/45 38/9/38 37/7/37 
f 37/7/37 44/19/44 45/20/45 
f 46/21/46 39/11/39 38/9/38 
f 38/9/38 45/20/45 46/21/46 
f 47/22/47 40/13/40 39/11/39 
f 39/11/39 46/21/46 47/22/47 
f 42/23/42 34/15/34 40/13/40 
f 40/13/40 47/22/47 42/23/42 
f 48/24/48 41/16/41 42/17/42 
f 48/25/48 43/18/43 41/16/41 
f 48/26/48 44/19/44 43/18/43 
f 48/27/48 45/20/45 44/19/44 
f 48/28/48 46/21/46 45/20/45 
f 48/29/48 47/22/47 46/21/46 
f 48/30/48 42/23/42 47/22/47 
f 49/1/49 50/31/50 51/32/51 
f 49/33/49 51/32/51 52/34/52 
f 49/35/49 52/34/52 53/36/53 
f 49/37/49 53/36/53 54/38/54 
f 49/39/49 54/38/54 50/40/50 
f 55/41/55 51/32/51 50/31/50 
f 55/42/55 52/34/52 51/32/51 
f 55/43/55 53/36/53 52/34/52 
f 55/44/55 54/38/54 53/36/53 
f 55/45/55 50/40/50 54/38/54 
f 56/1/1 57/2/2 58/3/3 
f 56/4/1 58/3/3 59/5/4 
f 56/6/1 59/5/4 60/7/5 
f 56/8/1 60/7/5 61/9/6 
f 56/10/1 61/9/6 62/11/7 
f 56/12/1 62/11/7 63/13/8 
f 56/14/1 63/13/8 57/15/2 
f 64/16/9 58/3/3 57/2/2 
f 57/2/2 65/17/10 64/16/9 
f 66/18/11 59/5/4 58/3/3 
f 58/3/3 64/16/9 66/18/11 
f 67/19/12 60/7/5 59/5/4 
f 59/5/4 66/18/11 67/19/12 
f 68/20/13 61/9/6 60/7/5 
f 60/7/5 67/19/12 68/20/13 
f 69/21/14 62/11/7 61/9/6 
f 61/9/6 68/20/13 69/21/14 
f 70/22/15 63/13/8 62/11/7 
f 62/11/7 69/21/14 70/22/15 
f 65/23/10 57/15/2 63/13/8 
f 63/13/8 70/22/15 65/23/10 
f 71/24/16 64/16/9 65/17/10 
f 71/25/16 66/18/11 64/16/9 
f 71/26/16 67/19/12 66/18/11 
f 71/27/16 68/20/13 67/19/12 
f 71/28/16 69/21/14 68/20/13 
f 71/29/16 70/22/15 69/21/14 
f 71/30/16 65/23/10 70/22/15 
f 72/1/17 73/2/18 74/3/19 
f 72/4/17 74/3/19 75/5/20 
f 72/6/17 75/5/20 76/7/21 
f 72/8/17 76/7/21 77/9/22 
f 72/10/17 77/9/22 78/11/23 
f 72/12/17 78/11/23 79/13/24 
f 72/14/17 79/13/24 73/15/18 
f 80/16/25 74/3/19 73/2/18 
f 73/2/18 81/17/26 80/16/25 
f 82/18/27 75/5/20 74/3/19 
f 74/3/19 80/16/25 82/18/27 
f 83/19/28 76/7/21 75/5/20 
f 75/5/20 82/18/27 83/19/28 
f 84/20/29 77/9/22 76/7/21 
f 76/7/21 83/19/28 84/20/29 
f 85/21/30 78/11/23 77/9/22 
f 77/9/22 84/20/29 85/21/30 
f 86/22/31 79/13/24 78/11/23 
f 78/11/23 85/21/30 86/22/31 
f 81/23/26 73/15/18 79/13/24 
f 79/13/24 86/22/31 81/23/26 
f 87/24/32 80/16/25 81/17/26 
f 87/25/32 82/18/27 80/16/25 
f 87/26/32 83/19/28 82/18/27 
f 87/27/32 84/20/29 83/19/28 
f 87/28/32 85/21/30 84/20/29 
f 87/29/32 86/22/31 85/21/30 
f 87/30/32 81/23/26 86/22/31 
f 88/1/56 89/2/57 90/3/58 
f 88/4/56 90/3/58 91/5/59 
f 88/6/56 91/5/59 92/7/60 
f 88/8/56 92/7/60 93/9/61 
f 88/10/56 93/9/61 94/11/62 
f 88/12/56 94/11/62 95/13/63 
f 88/14/56 95/13/63 89/15/57 
f 96/16/64 90/3/58 89/2/57 
f 89/2/57 97/17/65 96/16/64 
f 98/18/66 91/5/59 90/3/58 
f 90/3/58 96/16/64 98/18/66 
f 99/19/67 92/7/60 91/5/59 
f 91/5/59 98/18/66 99/19/67 
f 100/20/68 93/9/61 92/7/60 
f 92/7/60 99/19/67 100/20/68 
f 101/21/69 94/11/62 93/9/61 
f 93/9/61 100/20/68 101/21/69 
f 102/22/70 95/13/63 94/11/62 
f 94/11/62 101/21/69 102/22/70 
f 97/23/65 89/15/57 95/13/63 
f 95/13/63 102/22/70 97/23/65 
f 103/24/71 96/16/64 97/17/65 
f 103/25/71 98/18/66 96/16/64 
f 103/26/71 99/19/67 98/18/66 
f 103/27/71 100/20/68 99/19/67 
f 103/28/71 101/21/69 100/20/68 
f 103/29/71 102/22/70 101/21/69 
f 103/30/71 97/23/65 102/22/70 
f 104/1/17 105/2/18 106/3/19 
f 104/4/17 106/3/19 107/5/20 
f 104/6/17 107/5/20 108/7/21 
f 104/8/17 108/7/21 109/9/22 
f 104/10/17 109/9/22 110/11/23 
f 104/12/17 110/11/23 111/13/24 
f 104/14/17 111/13/24 105/15/18 
f 112/16/25 106/3/19 105/2/18 
f 105/2/18 113/17/26 112/16/25 
f 114/18/27 107/5/20 106/3/19 
f 106/3/19 112/16/25 114/18/27 
f 115/19/28 108/7/21 107/5/20 
f 107/5/20 114/18/27 115/19/28 
f 116/20/29 109/9/22 108/7/21 
f 108/7/21 115/19/28 116/20/29 
f 117/21/30 110/11/23 109/9/22 
f 109/9/22 116/20/29 117/21/30 
f 118/22/31 111/13/24 110/11/23 
f 110/11/23 117/21/30 118/22/31 
f 113/23/26 105/15/18 111/13/24 
f 111/13/24 118/22/31 113/23/26 
f 119/24/32 112/16/25 113/17/26 
f 119/25/32 114/18/27 112/16/25 
f 119/26/32 115/19/28 114/18/27 
f 119/27/32 116/20/29 115/19/28 
f 119/28/32 117/21/30 116/20/29 
f 119/29/32 118/22/31 117/21/30 
f 119/30/32 113/23/26 118/22/31 
f 120/1/17 121/2/18 122/3/19 
f 120/4/17 122/3/19 123/5/20 
f 120/6/17 123/5/20 124/7/21 
f 120/8/17 124/7/21 125/9/22 
f 120/10/17 125/9/22 126/11/23 
f 120/12/17 126/11/23 127/13/24 
f 120/14/17 127/13/24 121/15/18 
f 128/16/25 122/3/19 121/2/18 
f 121/2/18 129/17/26 128/16/25 
f 130/18/27 123/5/20 122/3/19 
f 122/3/19 128/16/25 130/18/27 
f 131/19/28 124/7/21 123/5/20 
f 123/5/20 130/18/27 131/19/28 
f 132/20/29 125/9/22 124/7/21 
f 124/7/21 131/19/28 132/20/29 
f 133/21/30 126/11/23 125/9/22 
f 125/9/22 132/20/29 133/21/30 
f 134/22/31 127/13/24 126/11/23 
f 126/11/23 133/21/30 134/22/31 
f 129/23/26 121/15/18 127/13/24 
f 127/13/24 134/22/31 129/23/26 
f 135/24/32 128/16/25 129/17/26 
f 135/25/32 130/18/27 128/16/25 
f 135/26/32 131/19/28 130/18/27 
f 135/27/32 132/20/29 131/19/28 
f 135/28/32 133/21/30 132/20/29 
f 135/29/32 134/22/31 133/21/30 
f 135/30/32 129/23/26 134/22/31 
f 136/1/49 137/31/50 138/32/51 
f 136/33/49 138/32/51 139/34/52 
f 136/35/49 139/34/52 140/36/53 
f 136/37/49 140/36/53 141/38/54 
f 136/39/49 141/38/54 137/40/50 
f 142/41/72 138/32/51 137/31/50 
f 142/42/72 139/34/52 138/32/51 
f 142/43/72 140/36/53 139/34/52 
f 142/44/72 141/38/54 140/36/53 
f 142/45/72 137/40/50 141/38/54 
f 143/1/73 144/46/74 145/47/75 
f 143/48/73 145/47/75 146/49/76 
f 143/50/73 146/49/76 147/51/77 
f 143/52/73 147/51/77 144/53/74 
f 148/54/78 145/47/75 144/46/74 
f 148/55/78 146/49/76 145/47/75 
f 148/56/78 147/51/77 146/49/76 
f 148/57/78 144/53/74 147/51/77 
# 252 faces

